<svg width="20" height="20" viewBox="0 0 20 20" fill="none" xmlns="http://www.w3.org/2000/svg">
<path d="M16.9921 16.6346L17.1141 17.2476L16.9921 16.6346ZM18.3016 15.3251L18.9146 15.4471V15.4471L18.3016 15.3251ZM3.00851 16.6346L2.88658 17.2476L2.88658 17.2476L3.00851 16.6346ZM1.69902 15.3251L1.08603 15.4471L1.69902 15.3251ZM16.9686 8.6058L16.6849 9.16268H16.6849L16.9686 8.6058ZM18.0612 9.69834L18.6181 9.41459V9.41459L18.0612 9.69834ZM3.03202 8.6058L3.31576 9.16268H3.31576L3.03202 8.6058ZM1.93948 9.69834L1.3826 9.41459H1.3826L1.93948 9.69834ZM15.6081 5.15671L15.0152 5.35435L15.0152 5.35435L15.6081 5.15671ZM16.667 8.33331L16.0741 8.53096C16.1591 8.78617 16.398 8.95831 16.667 8.95831V8.33331ZM3.33366 8.33331V8.95831C3.60268 8.95831 3.84151 8.78617 3.92659 8.53096L3.33366 8.33331ZM14.4091 3.44896L14.6378 2.86733V2.86733L14.4091 3.44896ZM15.0776 3.9308L14.5981 4.33174V4.33174L15.0776 3.9308ZM5.59158 3.44896L5.36283 2.86733L5.36283 2.86733L5.59158 3.44896ZM4.92307 3.9308L4.44362 3.52985L4.44362 3.52985L4.92307 3.9308ZM1.66699 7.70831C1.32181 7.70831 1.04199 7.98813 1.04199 8.33331C1.04199 8.67849 1.32181 8.95831 1.66699 8.95831V7.70831ZM18.3337 8.95831C18.6788 8.95831 18.9587 8.67849 18.9587 8.33331C18.9587 7.98813 18.6788 7.70831 18.3337 7.70831V8.95831ZM8.95866 10.8333C8.95866 10.4881 8.67884 10.2083 8.33366 10.2083C7.98848 10.2083 7.70866 10.4881 7.70866 10.8333H8.95866ZM11.8753 10.8333C11.8753 10.4881 11.5955 10.2083 11.2503 10.2083C10.9051 10.2083 10.6253 10.4881 10.6253 10.8333H11.8753ZM15.8337 11.4583C16.1788 11.4583 16.4587 11.1785 16.4587 10.8333C16.4587 10.4881 16.1788 10.2083 15.8337 10.2083V11.4583ZM15.0003 10.2083C14.6551 10.2083 14.3753 10.4881 14.3753 10.8333C14.3753 11.1785 14.6551 11.4583 15.0003 11.4583V10.2083ZM5.00033 11.4583C5.3455 11.4583 5.62533 11.1785 5.62533 10.8333C5.62533 10.4881 5.3455 10.2083 5.00033 10.2083V11.4583ZM4.16699 10.2083C3.82181 10.2083 3.54199 10.4881 3.54199 10.8333C3.54199 11.1785 3.82181 11.4583 4.16699 11.4583V10.2083ZM5.66699 8.95831H14.3337V7.70831H5.66699V8.95831ZM13.7503 13.9583H11.2503V15.2083H13.7503V13.9583ZM11.2503 13.9583H8.33366V15.2083H11.2503V13.9583ZM8.33366 13.9583H6.25033V15.2083H8.33366V13.9583ZM4.16699 16.0416H3.75033V17.2916H4.16699V16.0416ZM16.2503 16.0416H15.8337V17.2916H16.2503V16.0416ZM2.29199 14.5833V12.3333H1.04199V14.5833H2.29199ZM17.7087 12.3333V14.5833H18.9587V12.3333H17.7087ZM16.2503 17.2916C16.6076 17.2916 16.8775 17.2947 17.1141 17.2476L16.8702 16.0216C16.7848 16.0386 16.6675 16.0416 16.2503 16.0416V17.2916ZM17.7087 14.5833C17.7087 15.0005 17.7056 15.1178 17.6886 15.2032L18.9146 15.4471C18.9617 15.2105 18.9587 14.9406 18.9587 14.5833H17.7087ZM17.1141 17.2476C18.0232 17.0668 18.7338 16.3561 18.9146 15.4471L17.6886 15.2032C17.6064 15.6164 17.2834 15.9394 16.8702 16.0216L17.1141 17.2476ZM13.542 15C13.542 16.2656 14.568 17.2916 15.8337 17.2916V16.0416C15.2584 16.0416 14.792 15.5753 14.792 15H13.542ZM5.20866 15C5.20866 15.5753 4.74229 16.0416 4.16699 16.0416V17.2916C5.43264 17.2916 6.45866 16.2656 6.45866 15H5.20866ZM3.75033 16.0416C3.33316 16.0416 3.21584 16.0386 3.13044 16.0216L2.88658 17.2476C3.12317 17.2947 3.39307 17.2916 3.75033 17.2916V16.0416ZM1.04199 14.5833C1.04199 14.9406 1.03896 15.2105 1.08603 15.4471L2.31201 15.2032C2.29502 15.1178 2.29199 15.0005 2.29199 14.5833H1.04199ZM3.13044 16.0216C2.71722 15.9394 2.3942 15.6164 2.31201 15.2032L1.08603 15.4471C1.26685 16.3561 1.97749 17.0668 2.88658 17.2476L3.13044 16.0216ZM6.25033 13.9583C5.67503 13.9583 5.20866 14.4247 5.20866 15H6.45866C6.45866 15.115 6.36539 15.2083 6.25033 15.2083V13.9583ZM13.7503 15.2083C13.6353 15.2083 13.542 15.115 13.542 15H14.792C14.792 14.4247 14.3256 13.9583 13.7503 13.9583V15.2083ZM14.3337 8.95831C15.044 8.95831 15.5392 8.9588 15.9248 8.9903C16.303 9.0212 16.5203 9.07881 16.6849 9.16268L17.2524 8.04892C16.8822 7.8603 16.4821 7.78167 16.0265 7.74445C15.5783 7.70783 15.0234 7.70831 14.3337 7.70831V8.95831ZM18.9587 12.3333C18.9587 11.6436 18.9591 11.0887 18.9225 10.6404C18.8853 10.1849 18.8067 9.78477 18.6181 9.41459L17.5043 9.98208C17.5882 10.1467 17.6458 10.364 17.6767 10.7422C17.7082 11.1277 17.7087 11.6229 17.7087 12.3333H18.9587ZM16.6849 9.16268C17.0377 9.34244 17.3245 9.62928 17.5043 9.98208L18.6181 9.41459C18.3184 8.82659 17.8404 8.34852 17.2524 8.04892L16.6849 9.16268ZM5.66699 7.70831C4.97724 7.70831 4.42234 7.70783 3.9741 7.74445C3.51857 7.78167 3.11845 7.8603 2.74827 8.04892L3.31576 9.16268C3.48036 9.07881 3.69766 9.0212 4.07589 8.9903C4.46142 8.9588 4.95661 8.95831 5.66699 8.95831V7.70831ZM2.29199 12.3333C2.29199 11.6229 2.29248 11.1277 2.32398 10.7422C2.35488 10.364 2.41249 10.1467 2.49635 9.98208L1.3826 9.41459C1.19398 9.78477 1.11535 10.1849 1.07813 10.6404C1.04151 11.0887 1.04199 11.6436 1.04199 12.3333H2.29199ZM2.74827 8.04892C2.16027 8.34852 1.6822 8.82659 1.3826 9.41459L2.49635 9.98208C2.67612 9.62928 2.96296 9.34244 3.31576 9.16268L2.74827 8.04892ZM6.92235 3.95831H13.0783V2.70831H6.92235V3.95831ZM15.0152 5.35435L16.0741 8.53096L17.2599 8.13567L16.201 4.95906L15.0152 5.35435ZM3.92659 8.53096L4.98546 5.35435L3.7996 4.95906L2.74073 8.13567L3.92659 8.53096ZM13.0783 3.95831C13.8228 3.95831 14.0232 3.96882 14.1803 4.03059L14.6378 2.86733C14.2068 2.69781 13.7161 2.70831 13.0783 2.70831V3.95831ZM16.201 4.95907C15.9994 4.35399 15.8541 3.88514 15.557 3.52985L14.5981 4.33174C14.7064 4.46121 14.7798 4.6481 15.0152 5.35435L16.201 4.95907ZM14.1803 4.03059C14.3426 4.09442 14.4863 4.19797 14.5981 4.33174L15.557 3.52985C15.3109 3.23555 14.9949 3.00774 14.6378 2.86733L14.1803 4.03059ZM6.92235 2.70831C6.28452 2.70831 5.79384 2.69781 5.36283 2.86733L5.82033 4.03059C5.9774 3.96882 6.17787 3.95831 6.92235 3.95831V2.70831ZM4.98546 5.35435C5.22088 4.64807 5.29424 4.46122 5.40251 4.33174L4.44362 3.52985C4.1465 3.88515 4.0013 4.35397 3.7996 4.95906L4.98546 5.35435ZM5.36283 2.86733C5.0058 3.00774 4.68973 3.23555 4.44362 3.52985L5.40251 4.33174C5.51438 4.19797 5.65805 4.09442 5.82033 4.03059L5.36283 2.86733ZM1.66699 8.95831H3.33366V7.70831H1.66699V8.95831ZM16.667 8.95831H18.3337V7.70831H16.667V8.95831ZM7.70866 10.8333V14.5833H8.95866V10.8333H7.70866ZM10.6253 10.8333V14.5833H11.8753V10.8333H10.6253ZM15.8337 10.2083H15.0003V11.4583H15.8337V10.2083ZM5.00033 10.2083H4.16699V11.4583H5.00033V10.2083Z" fill="white"/>
</svg>
