<svg width="20" height="20" viewBox="0 0 20 20" fill="none" xmlns="http://www.w3.org/2000/svg">
<path d="M15.8335 11.6667H16.866C17.791 11.6667 18.486 12.5667 18.3043 13.5325L18.0835 14.7059C17.8693 15.8459 16.9277 16.6667 15.8335 16.6667M4.16682 11.6667H3.13432C2.20932 11.6667 1.51432 12.5667 1.69599 13.5325L1.91682 14.7059C2.13099 15.8459 3.07266 16.6667 4.16682 16.6667M15.2252 8.75002L15.6593 12.6642C15.8927 15.3159 16.0093 16.6417 15.2252 17.4875C14.441 18.3334 13.0943 18.3334 10.4002 18.3334H9.59849C6.90516 18.3334 5.55932 18.3334 4.77432 17.4875C3.98932 16.6417 4.10682 15.3159 4.34016 12.6642L4.77516 8.75002M12.5002 4.16669C12.5002 3.50365 12.2368 2.86776 11.7679 2.39892C11.2991 1.93008 10.6632 1.66669 10.0002 1.66669C9.33712 1.66669 8.70123 1.93008 8.23239 2.39892C7.76355 2.86776 7.50016 3.50365 7.50016 4.16669M10.0002 8.33502L10.0077 8.33335M4.38516 7.39169C4.17682 6.21169 4.07182 5.62169 4.28016 5.17002C4.42222 4.86439 4.65233 4.60816 4.94099 4.43419C5.37932 4.16669 6.01349 4.16669 7.28182 4.16669H12.7193C13.9868 4.16669 14.621 4.16669 15.0593 4.43335C15.3518 4.61252 15.5818 4.86835 15.7202 5.17002C15.9285 5.62169 15.8235 6.21169 15.6152 7.39169L15.5735 7.63252C15.4918 8.09002 15.4518 8.31835 15.3718 8.52919C15.2343 8.89252 15.0085 9.22085 14.7135 9.48835C14.5435 9.64335 14.3385 9.77169 13.9302 10.03C13.5452 10.2717 13.3527 10.3925 13.1493 10.4875C12.7964 10.6523 12.4194 10.7597 12.0327 10.8059C11.8077 10.8334 11.5768 10.8334 11.1143 10.8334H8.88599C8.42349 10.8334 8.19266 10.8334 7.96766 10.8059C7.58084 10.7595 7.20389 10.6517 6.85099 10.4867C6.64766 10.3925 6.45516 10.2717 6.07099 10.0292C5.66182 9.77252 5.45682 9.64335 5.28599 9.48835C4.99448 9.22476 4.76922 8.89615 4.62849 8.52919C4.54849 8.31835 4.50849 8.09002 4.42766 7.63252L4.38516 7.39169Z" stroke="white" stroke-width="1.25" stroke-linecap="round" stroke-linejoin="round"/>
</svg>
