<svg width="20" height="20" viewBox="0 0 20 20" fill="none" xmlns="http://www.w3.org/2000/svg">
<path d="M10 18.3334C5.85833 18.3334 2.5 16.1817 2.5 12.5V12.4267C2.5 10.6617 3.615 9.25002 5.3125 8.33335C6.93667 7.45669 7.89667 5.84169 7.65667 4.16669L7.1875 1.66669L8.92583 2.32919C12.0567 3.52085 14.6642 5.58919 16.3542 8.21752C17.097 9.35935 17.4948 10.6912 17.5 12.0534V12.5C17.5 13.8017 17.08 14.9125 16.3542 15.8042M10 18.3334C8.61917 18.3334 7.5 17.1392 7.5 15.6667C7.5 14.5 8.34667 13.5659 9.09167 12.71L10 11.6667L10.9083 12.71C11.6533 13.5667 12.5 14.5 12.5 15.6667C12.5 17.1392 11.3808 18.3334 10 18.3334Z" stroke="white" stroke-width="1.25" stroke-linecap="round" stroke-linejoin="round"/>
</svg>
