<svg width="20" height="20" viewBox="0 0 20 20" fill="none" xmlns="http://www.w3.org/2000/svg">
<path d="M14.9998 1.66675C3.911 3.96101 0.893029 11.8699 1.43748 17.3424C1.52027 18.1746 2.25904 18.7501 3.09532 18.7501C4.12864 18.7501 4.94211 17.8801 4.91299 16.8472C4.89925 16.3601 4.89413 15.883 4.90096 15.415M14.9998 1.66675C9.8105 4.26144 7.20194 6.85613 5.95131 9.74197M14.9998 1.66675L15 6.24998M5.95131 9.74197C5.65316 9.63915 5.33312 9.58332 5.00004 9.58332C3.38921 9.58332 2.08337 10.8892 2.08337 12.5C2.08337 14.0777 3.336 15.3628 4.90096 15.415M5.95131 9.74197C7.09506 10.1364 7.9167 11.2222 7.9167 12.5C7.9167 14.1108 6.61087 15.4167 5.00004 15.4167C4.96688 15.4167 4.93385 15.4161 4.90096 15.415M15 15.4167C15 15.4167 18.3334 13.8889 18.3334 10.8333C18.3334 7.77776 15 6.24998 15 6.24998M15 15.4167C15 15.4167 11.6667 13.8889 11.6667 10.8333C11.6667 7.77776 15 6.24998 15 6.24998M15 15.4167C15 15.4167 16.4584 16.9792 17.9167 17.2917C17.9167 17.2917 16.823 17.9167 15 17.9167C13.1771 17.9167 12.0834 17.2917 12.0834 17.2917C13.5417 16.9792 15 15.4167 15 15.4167ZM17.7656 8.7503C16.0955 9.86141 13.9046 9.86141 12.2344 8.7503M4.58337 12.5C4.58337 12.7301 4.76992 12.9167 5.00004 12.9167C5.23015 12.9167 5.4167 12.7301 5.4167 12.5M4.58337 12.5C4.58337 12.2699 4.76992 12.0833 5.00004 12.0833C5.23015 12.0833 5.4167 12.2699 5.4167 12.5M4.58337 12.5H5.4167" stroke="white" stroke-width="1.25" stroke-linecap="round" stroke-linejoin="round"/>
</svg>
