<svg width="20" height="20" viewBox="0 0 20 20" fill="none" xmlns="http://www.w3.org/2000/svg">
<path d="M8.33336 10L7.32042 8.88578C6.93232 8.45888 6.86986 7.82808 7.1667 7.33335M10.4167 16.25L16.1895 9.7981C16.66 9.27219 16.8953 9.00924 17.0052 8.70712C17.1022 8.44039 17.1294 8.1533 17.0844 7.87307C17.0334 7.55567 16.8519 7.25311 16.4888 6.64799L15.7768 5.46137C15.4936 4.98925 15.3519 4.7532 15.1569 4.58173C14.9844 4.43 14.7823 4.31558 14.5634 4.24568C14.316 4.16669 14.0408 4.16669 13.4902 4.16669H6.50987C5.9593 4.16669 5.68402 4.16669 5.43666 4.24568C5.21776 4.31558 5.01569 4.43 4.84312 4.58173C4.64812 4.7532 4.50649 4.98926 4.22322 5.46137L3.51125 6.64799C3.14818 7.25311 2.96664 7.55567 2.91564 7.87307C2.87061 8.1533 2.89789 8.44039 2.99489 8.70712C3.10477 9.00924 3.34004 9.27219 3.81059 9.79809L9.58336 16.25C9.63768 16.3055 9.70251 16.3495 9.77405 16.3796C9.8456 16.4096 9.92242 16.4251 10 16.4251C10.0776 16.4251 10.1545 16.4096 10.226 16.3796C10.2976 16.3495 10.3624 16.3055 10.4167 16.25Z" stroke="white" stroke-width="1.25" stroke-linecap="round" stroke-linejoin="round"/>
</svg>
