<svg width="20" height="20" viewBox="0 0 20 20" fill="none" xmlns="http://www.w3.org/2000/svg">
<path d="M2.91699 10.8333C4.16699 8.12493 9.58366 5.83327 10.417 7.49994M10.417 7.49994C11.2503 9.16661 7.33365 15.5 4.58366 17.9166H6.25033M10.417 7.49994C10.8337 8.95828 14.5837 9.99996 15.8337 9.16663V18.3333M8.33369 7.08329C5.83366 11.6666 7.70885 11.5363 9.16706 12.0833C10.6253 12.6303 12.0837 14.5833 12.0837 17.9166H13.7503M11.667 3.33326C11.667 4.25373 10.9208 4.99994 10.0003 4.99996C9.07982 4.99998 8.33364 4.2538 8.33366 3.33333C8.33368 2.41285 9.07989 1.66665 10.0004 1.66663C10.9208 1.66661 11.667 2.41278 11.667 3.33326Z" stroke="white" stroke-width="1.25" stroke-linecap="round" stroke-linejoin="round"/>
</svg>
