<svg width="20" height="20" viewBox="0 0 20 20" fill="none" xmlns="http://www.w3.org/2000/svg">
<path d="M7.50033 1.66663C5.41699 1.66663 1.66699 3.33329 1.66699 7.62413V10.4166M14.5837 12.5V18.3333M7.50616 9.16663C7.70866 9.79163 8.33366 11.0416 10.1653 10.7241C11.242 10.5945 13.7845 10.8916 15.0003 12.9166C15.6253 13.9583 17.2699 13.9566 18.3337 11.3083M10.8337 6.667L10.0003 5.62533C10.0003 5.62533 9.32658 4.89408 8.75033 4.58366C8.17408 4.27366 7.08366 3.95866 5.83366 4.58366C5.29324 4.92325 4.16699 5.417 4.16699 7.47658V18.3337M11.2503 18.3333V17.0833C11.2503 16.5308 11.0308 16.0009 10.6401 15.6102C10.2494 15.2195 9.71953 15 9.16699 15C8.61446 15 8.08455 15.2195 7.69385 15.6102C7.30315 16.0009 7.08366 16.5308 7.08366 17.0833V18.3333" stroke="white" stroke-width="1.25" stroke-linecap="round" stroke-linejoin="round"/>
</svg>
