<svg width="20" height="20" viewBox="0 0 20 20" fill="none" xmlns="http://www.w3.org/2000/svg">
<path d="M10.0003 14.1667C10.0003 14.1667 9.48878 12.3326 9.58366 11.1454C9.6749 10.0036 10.4058 9.47865 10.417 8.33333C10.4286 7.14878 9.66072 6.59877 9.58366 5.41667C9.50881 4.26851 10.0003 2.5 10.0003 2.5M12.917 4.16667C12.917 4.16667 12.5003 5.41667 12.5003 6.25C12.5003 7.08333 13.2846 7.63205 13.3337 8.75C13.3696 9.56864 12.917 10.4167 12.917 11.1454M7.08366 4.16667C7.08366 4.16667 6.66699 5.41667 6.66699 6.25C6.66699 7.08333 7.45128 7.63205 7.50033 8.75C7.53624 9.56864 7.08366 10.4167 7.08366 11.1454M3.75033 11.2695C2.45374 11.9306 1.66699 12.799 1.66699 13.75C1.66699 15.8211 5.39795 17.5 10.0003 17.5C14.6027 17.5 18.3337 15.8211 18.3337 13.75C18.3337 12.799 17.5469 11.9306 16.2503 11.2695" stroke="white" stroke-width="1.25" stroke-linecap="round" stroke-linejoin="round"/>
</svg>
