<svg width="20" height="20" viewBox="0 0 20 20" fill="none" xmlns="http://www.w3.org/2000/svg">
<path d="M14.9997 12.5L13.333 3.33337C13.333 3.33337 16.2497 3.33337 16.6663 5.41671M4.16634 6.66671L4.99967 10L13.7497 5.83337M2.49967 6.66671H5.83301M7.49967 13.3334C7.49967 15.1743 6.00729 16.6667 4.16634 16.6667C2.32539 16.6667 0.833008 15.1743 0.833008 13.3334C0.833008 11.4924 2.32539 10 4.16634 10C6.00729 10 7.49967 11.4924 7.49967 13.3334ZM19.1663 12.5C19.1663 14.8012 17.3009 16.6667 14.9997 16.6667C12.6985 16.6667 10.833 14.8012 10.833 12.5C10.833 10.1989 12.6985 8.33337 14.9997 8.33337C17.3009 8.33337 19.1663 10.1989 19.1663 12.5Z" stroke="white" stroke-width="1.25" stroke-linecap="round" stroke-linejoin="round"/>
</svg>
