<svg width="20" height="20" viewBox="0 0 20 20" fill="none" xmlns="http://www.w3.org/2000/svg">
<path d="M17.3499 2.65018C13.2527 1.9544 9.36925 3.68642 6.59756 6.55719M6.59756 6.55719C3.79231 9.46273 2.12587 13.5348 2.52911 17.4368C6.41773 17.8369 10.4752 16.1961 13.3844 13.4267M6.59756 6.55719L4.79911 4.73685M6.59756 6.55719L13.3844 13.4267M13.3844 13.4267C16.2927 10.6584 18.0536 6.76236 17.3516 2.65018M13.3844 13.4267L15.1999 15.2643M5.79995 14.1635H5.80661M14.1333 5.83018H14.1399M4.79911 4.73685C4.90078 2.74352 4.35245 1.94102 3.83661 1.71518C3.53911 1.58435 3.21495 1.74935 2.95245 1.94185C2.45745 2.30268 2.18578 2.57102 1.86411 3.06685C1.69911 3.31935 1.59411 3.63352 1.72495 3.90518C2.16245 4.81685 3.90411 4.94935 4.79911 4.73685ZM15.1999 15.2643C15.0991 17.2577 15.6483 18.0593 16.1633 18.2852C16.4616 18.416 16.7858 18.2502 17.0483 18.0585C17.5424 17.6968 17.8141 17.4285 18.1358 16.9327C18.2999 16.6793 18.4049 16.3652 18.2741 16.0935C17.8358 15.1827 16.0949 15.051 15.1999 15.2643Z" stroke="white" stroke-width="1.25" stroke-linecap="round" stroke-linejoin="round"/>
</svg>
