<svg width="20" height="20" viewBox="0 0 20 20" fill="none" xmlns="http://www.w3.org/2000/svg">
<path d="M7.49956 10.8333L5.83289 9.16662M17.1296 10.8333H7.86956C7.66622 10.8333 7.49956 11.0408 7.49956 11.2966C7.49956 13.3416 8.82622 14.9999 10.4629 14.9999H14.5362C16.1729 14.9999 17.4996 13.3416 17.4996 11.2966C17.4996 11.0408 17.3337 10.8333 17.1296 10.8333ZM1.97289 5.30662C2.38122 4.89828 3.04456 4.89828 3.45372 5.30662L5.52622 7.37912C5.62346 7.47635 5.70058 7.59178 5.75321 7.71882C5.80583 7.84586 5.83291 7.98202 5.83291 8.11953C5.83291 8.25704 5.80583 8.3932 5.75321 8.52024C5.70058 8.64728 5.62346 8.76272 5.52622 8.85995C5.42899 8.95718 5.31356 9.03431 5.18652 9.08693C5.05948 9.13956 4.92331 9.16664 4.78581 9.16664C4.6483 9.16664 4.51214 9.13956 4.38509 9.08693C4.25805 9.03431 4.14262 8.95718 4.04539 8.85995L1.97289 6.78745C1.8756 6.69025 1.79843 6.57482 1.74577 6.44778C1.69312 6.32073 1.66602 6.18456 1.66602 6.04703C1.66602 5.90951 1.69312 5.77333 1.74577 5.64629C1.79843 5.51924 1.8756 5.40382 1.97289 5.30662Z" stroke="white" stroke-width="1.25" stroke-linecap="round" stroke-linejoin="round"/>
</svg>
