<svg width="20" height="20" viewBox="0 0 20 20" fill="none" xmlns="http://www.w3.org/2000/svg">
<path d="M13.333 2.49996C13.333 4.16663 12.9163 6.24996 12.9163 6.24996C11.6366 7.49159 11.2497 6.66663 11.2497 7.49994C11.2497 8.33329 8.16633 15.5 5.41634 17.9166H3.74967H7.08301M14.583 17.9166H11.2497H12.9163C12.9163 14.5833 11.4579 12.6303 9.99974 12.0833C8.54153 11.5363 6.66637 11.25 9.16641 6.66663H11.2497M5.83301 2.49996H3.74967M3.33301 17.9166H16.2497M16.2497 2.49996H14.9997M10.833 3.33326C10.833 4.25373 10.0868 4.99994 9.16634 4.99996C8.24587 4.99998 7.49969 4.2538 7.49971 3.33333C7.49973 2.41285 8.24594 1.66665 9.16641 1.66663C10.0869 1.66661 10.8331 2.41278 10.833 3.33326Z" stroke="white" stroke-width="1.25" stroke-linecap="round" stroke-linejoin="round"/>
</svg>
