<svg width="20" height="20" viewBox="0 0 20 20" fill="none" xmlns="http://www.w3.org/2000/svg">
<path d="M11.875 13.4375C11.875 15.336 13.414 16.875 15.3125 16.875C17.211 16.875 18.75 15.336 18.75 13.4375C18.75 11.539 17.211 10 15.3125 10C13.414 10 11.875 11.539 11.875 13.4375ZM11.875 13.4375V5C11.875 3.96484 12.5 3.125 13.5938 3.125C14.9609 3.125 15.4102 3.96484 15.8203 5C15.8203 5 17.7148 9.99348 18.5938 12.4023M8.125 13.4375C8.125 15.336 6.58598 16.875 4.6875 16.875C2.78902 16.875 1.25 15.336 1.25 13.4375C1.25 11.539 2.78902 10 4.6875 10C6.58598 10 8.125 11.539 8.125 13.4375ZM8.125 13.4375V5C8.125 3.96484 7.5 3.125 6.40625 3.125C5.03906 3.125 4.58984 3.96484 4.17969 5C4.17969 5 2.28516 9.99348 1.40625 12.4023M8.125 7.1875C8.125 7.1875 8.76953 6.875 10 6.875C11.2305 6.875 11.875 7.1875 11.875 7.1875M8.125 10.625C8.125 10.625 8.76953 10.3125 10 10.3125C11.2305 10.3125 11.875 10.625 11.875 10.625" stroke="white" stroke-width="1.25" stroke-linecap="round" stroke-linejoin="round"/>
</svg>
