<svg width="20" height="20" viewBox="0 0 20 20" fill="none" xmlns="http://www.w3.org/2000/svg">
<path d="M3.33366 6.25012C6.25033 7.08341 7.50033 7.18849 10.417 8.33341M10.417 8.33341C12.5003 9.15122 10.8337 7.91675 10.0003 6.66675L9.16699 7.86888M10.417 8.33341C12.5003 9.15122 13.3337 9.58342 15.8337 9.16675M6.66699 10.0001C10.417 11.2501 10.417 11.2501 11.2503 11.2501C12.7085 11.797 10.0003 11.2501 8.33366 14.5834M1.66699 12.5C1.66699 12.5 12.5003 16.25 15.0003 16.25C17.5003 16.25 18.3337 15.4167 18.3337 15.4167M15.0003 4.58338C15.0003 5.50385 14.2541 6.25006 13.3336 6.25008C12.4132 6.2501 11.667 5.50392 11.667 4.58345C11.667 3.66297 12.4132 2.91677 13.3337 2.91675C14.2542 2.91673 15.0003 3.66291 15.0003 4.58338Z" stroke="#6D6D6D" stroke-width="1.25" stroke-linecap="round" stroke-linejoin="round"/>
</svg>
