<svg width="20" height="20" viewBox="0 0 20 20" fill="none" xmlns="http://www.w3.org/2000/svg">
<path d="M3.82795 9.40938L2.30816 11.836H14.3539C14.3539 11.836 16.0988 11.1427 16.2114 11.0627C16.324 10.9827 16.5382 10.8094 16.6336 10.5827C16.7476 10.3119 16.8024 10.1027 16.6336 9.83604C16.4647 9.56938 12.5808 6.47604 12.4119 6.34271C12.2431 6.20938 12.0483 6.22921 11.8772 6.34271C11.7282 6.44159 11.652 6.58274 11.6802 6.74271C11.694 6.82147 11.8716 7.46906 12.0484 8.10627C12.2306 8.76334 12.4119 9.40938 12.4119 9.40938H8.61246M3.82795 9.40938H8.61246M3.82795 9.40938C3.82795 9.40938 3.65908 8.79604 3.63094 8.60937C3.60279 8.42271 3.60586 8.0646 3.82795 7.83604C4.06112 7.59608 4.50341 7.52512 4.67227 7.59604C4.84114 7.66697 8.61246 9.40938 8.61246 9.40938M6.50165 13.9427H2.5896C2.5896 13.9427 2.18181 13.7296 2.08301 13.4894M18.1252 11.916C18.1252 11.916 18.586 12.2636 18.6881 12.5827C18.7678 12.8319 18.7726 13.0016 18.6881 13.2494C18.5733 13.586 18.0408 13.916 18.0408 13.916H9.4005" stroke="#6D6D6D" stroke-width="1.25" stroke-linecap="round" stroke-linejoin="round"/>
</svg>
