<svg width="20" height="20" viewBox="0 0 20 20" fill="none" xmlns="http://www.w3.org/2000/svg">
<path d="M3.75 10.8333C5 8.12493 10.4167 5.83327 11.25 7.49994M11.25 7.49994C12.0833 9.16661 8.16666 15.5 5.41667 17.9166H3.75H7.08333M11.25 7.49994C11.6667 8.95828 15.4167 9.99996 16.6667 9.16663M9.1667 7.08329C6.66667 11.6666 8.54186 11.5363 10.0001 12.0833C11.4583 12.6303 12.9167 14.5833 12.9167 17.9166H11.25H14.5833M12.5 3.33326C12.5 4.25373 11.7538 4.99994 10.8333 4.99996C9.91282 4.99998 9.16665 4.2538 9.16667 3.33333C9.16669 2.41285 9.91289 1.66665 10.8334 1.66663C11.7538 1.66661 12.5 2.41278 12.5 3.33326Z" stroke="#6D6D6D" stroke-width="1.25" stroke-linecap="round" stroke-linejoin="round"/>
</svg>
