<svg width="20" height="20" viewBox="0 0 20 20" fill="none" xmlns="http://www.w3.org/2000/svg">
<path d="M7.91634 18.3333H12.083M6.66634 1.66663H13.333M9.99967 4.16663V1.66663M3.33301 9.99996H16.6663M14.1663 15.8333L15.4163 18.3333M5.83301 15.8333L4.58301 18.3333M7.08301 12.9166H7.09134M12.9163 12.9166H12.9247M7.33301 15.8333H12.6663C14.0665 15.8333 14.7665 15.8333 15.3013 15.5608C15.7717 15.3211 16.1542 14.9387 16.3939 14.4683C16.6663 13.9335 16.6663 13.2334 16.6663 11.8333V8.16663C16.6663 6.7665 16.6663 6.06643 16.3939 5.53165C16.1542 5.06124 15.7717 4.67879 15.3013 4.43911C14.7665 4.16663 14.0665 4.16663 12.6663 4.16663H7.33301C5.93288 4.16663 5.23281 4.16663 4.69803 4.43911C4.22763 4.67879 3.84517 5.06124 3.60549 5.53165C3.33301 6.06643 3.33301 6.7665 3.33301 8.16663V11.8333C3.33301 13.2334 3.33301 13.9335 3.60549 14.4683C3.84517 14.9387 4.22763 15.3211 4.69803 15.5608C5.23281 15.8333 5.93288 15.8333 7.33301 15.8333ZM7.49967 12.9166C7.49967 13.1467 7.31313 13.3333 7.08301 13.3333C6.85289 13.3333 6.66634 13.1467 6.66634 12.9166C6.66634 12.6865 6.85289 12.5 7.08301 12.5C7.31313 12.5 7.49967 12.6865 7.49967 12.9166ZM13.333 12.9166C13.333 13.1467 13.1465 13.3333 12.9163 13.3333C12.6862 13.3333 12.4997 13.1467 12.4997 12.9166C12.4997 12.6865 12.6862 12.5 12.9163 12.5C13.1465 12.5 13.333 12.6865 13.333 12.9166Z" stroke="white" stroke-width="1.25" stroke-linecap="round" stroke-linejoin="round"/>
</svg>
