<svg width="20" height="20" viewBox="0 0 20 20" fill="none" xmlns="http://www.w3.org/2000/svg">
<path d="M4.79953 4.73685C4.9012 2.74352 4.35287 1.94102 3.83703 1.71518C3.53953 1.58435 3.21537 1.74935 2.95287 1.94185C2.45787 2.30268 2.1862 2.57102 1.86453 3.06685C1.69953 3.31935 1.59453 3.63352 1.72537 3.90518C2.16287 4.81685 3.90453 4.94935 4.79953 4.73685ZM4.79953 4.73685L6.50078 6.4381M15.2004 15.2643C15.0995 17.2577 15.6487 18.0593 16.1637 18.2852C16.462 18.416 16.7862 18.2502 17.0487 18.0585C17.5429 17.6968 17.8145 17.4285 18.1362 16.9327C18.3004 16.6793 18.4054 16.3652 18.2745 16.0935C17.8362 15.1827 16.0954 15.051 15.2004 15.2643ZM15.2004 15.2643L13.4822 13.5462M2.52953 11.8473C1.47093 14.0729 1.26647 16.1482 2.52953 17.4368C3.811 18.7443 5.91951 18.5292 8.18276 17.4368M2.52953 11.8473L8.18276 17.4368M2.52953 11.8473C2.79469 11.2899 3.11343 10.723 3.47611 10.1568M8.18276 17.4368C8.78193 17.1477 9.39194 16.797 10.0003 16.3968M3.47611 10.1568C3.77791 9.68553 4.11015 9.2147 4.46726 8.75004C5.08102 7.95144 5.76826 7.17104 6.50078 6.4381M3.47611 10.1568L10.0003 16.3968M10.0003 16.3968C11.1991 15.6083 12.3915 14.6275 13.4822 13.5462M9.58366 3.84395C8.52027 4.58015 7.47082 5.46752 6.50078 6.4381M9.58366 3.84395L16.1637 10.3716M9.58366 3.84395C10.1385 3.45981 10.6972 3.11682 11.2503 2.82464M6.50078 6.4381L8.39606 8.33337M13.4822 13.5462C14.4873 12.5496 15.4061 11.4675 16.1637 10.3716M13.4822 13.5462L11.6027 11.6667M16.1637 10.3716C16.5371 9.83158 16.8713 9.2882 17.1575 8.75004M17.3504 2.65018C15.9156 1.24988 13.6341 1.5655 11.2503 2.82464M11.2503 2.82464L17.1575 8.75004M17.1575 8.75004C18.4256 6.36511 18.7498 4.08292 17.352 2.65018" stroke="white" stroke-width="1.25" stroke-linecap="round" stroke-linejoin="round"/>
</svg>
