<svg width="20" height="20" viewBox="0 0 20 20" fill="none" xmlns="http://www.w3.org/2000/svg">
<path d="M8.49426 9.99998C8.92936 10.843 10.6379 12.8799 9.35451 15M8.49426 9.99998C8.2792 9.58329 7.24129 10.6997 6.34376 10.8333C6.7739 13.3333 7.84927 14.453 9.35451 15M8.49426 9.99998C8.92441 9.99996 9.78462 9.99996 10.6448 9.99996C11.5932 9.65969 11.9352 8.74996 11.9352 8.33329M9.35451 15C10.1603 15.2928 11.6946 12.6837 12.3653 13.3333C13.2255 14.1666 14.0857 15 15.376 16.25M9.35451 15V3.85749M11.9352 15.4166L13.6556 17.0833M3.33301 2.91663L9.35451 3.85749M16.6663 4.99996L9.35451 3.85749M7.20398 7.49992C7.20396 8.4204 6.43368 9.16661 5.48351 9.16663C4.53334 9.16665 3.7631 8.42047 3.76312 7.49999C3.76313 6.57952 4.53341 5.83331 5.48358 5.83329C6.43375 5.83327 7.20399 6.57945 7.20398 7.49992Z" stroke="white" stroke-width="1.25" stroke-linecap="round" stroke-linejoin="round"/>
</svg>
