<svg width="20" height="20" viewBox="0 0 20 20" fill="none" xmlns="http://www.w3.org/2000/svg">
<path d="M16.7816 15.1639C16.665 16.0319 16.0809 16.7824 15.2635 17.116C14.863 17.2824 14.429 17.333 13.995 17.2824C13.5782 17.2327 13.1605 17.0989 12.7273 16.8493C12.1269 16.5148 11.5257 15.9984 10.825 15.2308C11.9263 13.8791 12.5936 12.6449 12.844 11.5436C12.9606 11.0264 12.9778 10.559 12.9272 10.125C12.8603 9.70817 12.7102 9.32398 12.4769 8.99033C11.9597 8.23983 11.0918 7.80586 10.1243 7.80586C9.15679 7.80586 8.28885 8.25616 7.77166 8.99033C7.53834 9.32398 7.38824 9.70817 7.32136 10.125C7.25447 10.559 7.27158 11.0428 7.40457 11.5436C7.655 12.6449 8.33862 13.8962 9.42355 15.2471C8.73915 16.0148 8.12241 16.5319 7.52123 16.8656C7.08726 17.116 6.6704 17.2498 6.25354 17.2996C5.82346 17.3478 5.38871 17.2902 4.98585 17.1331C4.16846 16.7995 3.58438 16.0482 3.46772 15.181C3.41795 14.7642 3.45139 14.3473 3.61783 13.8799C3.6676 13.7127 3.75159 13.5463 3.83481 13.3464C3.95147 13.0796 4.08524 12.7957 4.21823 12.5119L4.23534 12.4784C5.38637 9.99205 6.6214 7.45588 7.90621 4.9866L7.95598 4.88627C8.08975 4.63662 8.22274 4.36909 8.35651 4.11866C8.49028 3.8519 8.64038 3.60147 8.82392 3.38448C9.17468 2.98396 9.64131 2.76697 10.1585 2.76697C10.6757 2.76697 11.1431 2.98396 11.4931 3.38448C11.6766 3.60147 11.8267 3.8519 11.9605 4.11866C12.0943 4.36909 12.2273 4.63585 12.361 4.8855L12.4116 4.98582C13.6793 7.47143 14.9143 10.0076 16.0653 12.494V12.5103C16.1991 12.7771 16.3158 13.0781 16.4487 13.3448C16.532 13.5455 16.616 13.7119 16.6657 13.8783C16.7987 14.3131 16.8485 14.73 16.7816 15.1639ZM10.1243 14.3792C9.22367 13.2445 8.6396 12.1767 8.43895 11.2761C8.35573 10.8919 8.33862 10.5582 8.38917 10.258C8.42262 9.99127 8.52294 9.75717 8.65593 9.5573C8.97325 9.10699 9.50677 8.82312 10.1243 8.82312C10.7418 8.82312 11.2924 9.09066 11.5926 9.5573C11.7264 9.75795 11.8259 9.99127 11.8594 10.258C11.9092 10.5582 11.8928 10.909 11.8096 11.2761C11.6097 12.1603 11.0257 13.2282 10.1243 14.3792ZM17.6496 13.512C17.5663 13.3122 17.4823 13.0952 17.3991 12.9116C17.2654 12.6114 17.1324 12.3276 17.0149 12.0608L16.9986 12.0445C15.8476 9.54174 14.6125 7.00558 13.3114 4.50285L13.2616 4.40253C13.1279 4.1521 12.9949 3.88534 12.8611 3.61858C12.6939 3.31838 12.5275 3.00107 12.2607 2.70086C11.7264 2.0328 10.9588 1.66571 10.1414 1.66571C9.30689 1.66571 8.55639 2.0328 8.00498 2.66664C7.75455 2.96685 7.57101 3.28416 7.40457 3.58436C7.2708 3.85112 7.13781 4.11788 7.00404 4.36831L6.95427 4.46786C5.66947 6.97058 4.41811 9.50674 3.26707 12.0095L3.25074 12.0429C3.13408 12.3097 3.00031 12.5935 2.86654 12.8937C2.7771 13.0913 2.69389 13.2919 2.61611 13.4941C2.39913 14.1117 2.33224 14.6957 2.41546 15.2961C2.599 16.5475 3.4335 17.599 4.58454 18.0656C5.01851 18.2492 5.46881 18.3324 5.93623 18.3324C6.07 18.3324 6.23643 18.316 6.3702 18.2989C6.92083 18.232 7.48779 18.0493 8.03842 17.732C8.72282 17.3486 9.373 16.7979 10.1072 15.9969C10.8413 16.7979 11.5086 17.3486 12.1759 17.732C12.7266 18.0493 13.2935 18.232 13.8441 18.2989C13.9779 18.316 14.1443 18.3324 14.2781 18.3324C14.7455 18.3324 15.2122 18.2492 15.6298 18.0656C16.7979 17.5982 17.6153 16.5304 17.7989 15.2961C17.9327 14.7128 17.8658 14.1295 17.6496 13.512Z" fill="white"/>
</svg>
