<svg width="20" height="20" viewBox="0 0 20 20" fill="none" xmlns="http://www.w3.org/2000/svg">
<path d="M16.4705 6.69927C16.8483 6.99312 17.0372 7.14005 17.1733 7.32405M16.4705 6.69927L14.286 5.0002M16.4705 6.69927V1.918H14.286V5.0002M17.1733 7.32405C17.2939 7.48704 17.3837 7.67065 17.4383 7.86588C17.5 8.08627 17.5 8.32558 17.5 8.80421V11.3333M17.1733 7.32405H2.82669M17.5 14.8333C17.5 15.7667 17.5 16.2335 17.3183 16.59C17.1586 16.9036 16.9036 17.1585 16.59 17.3183C16.2335 17.5 15.7668 17.5 14.8333 17.5H13.1667C12.9333 17.5 12.8166 17.5 12.7275 17.4546C12.6491 17.4146 12.5854 17.3509 12.5454 17.2725C12.5 17.1834 12.5 17.0667 12.5 16.8333V14.8333M17.5 14.8333V11.3333M17.5 14.8333H12.5M12.5 11.3333C12.5 10.8666 12.5 10.6333 12.4092 10.455C12.3293 10.2982 12.2018 10.1707 12.045 10.0908C11.8667 9.99999 11.6334 9.99999 11.1667 9.99999H8.83333C8.36662 9.99999 8.13327 9.99999 7.95501 10.0908C7.79821 10.1707 7.67072 10.2982 7.59083 10.455C7.5 10.6333 7.5 10.8666 7.5 11.3333M12.5 11.3333H17.5M12.5 11.3333V14.8333M7.5 11.3333H2.5M7.5 11.3333V14.8333M2.5 14.8333C2.5 15.7667 2.5 16.2335 2.68166 16.59C2.84144 16.9036 3.09641 17.1585 3.41002 17.3183C3.76654 17.5 4.23325 17.5 5.16667 17.5H6.83333C7.06669 17.5 7.18337 17.5 7.2725 17.4546C7.3509 17.4146 7.41464 17.3509 7.45459 17.2725C7.5 17.1834 7.5 17.0667 7.5 16.8333V14.8333M2.5 14.8333V11.3333M2.5 14.8333H7.5M2.82669 7.32405C2.96278 7.14005 3.15168 6.99312 3.52949 6.69927L6.35545 4.5013M2.82669 7.32405C2.70614 7.48704 2.61633 7.67065 2.56169 7.86588C2.5 8.08627 2.5 8.32558 2.5 8.80421V11.3333M14.286 5.0002L13.6445 4.5013M6.35545 4.5013L9.18141 2.30333C9.47418 2.07562 9.62057 1.96177 9.78221 1.918C9.92484 1.87938 10.0752 1.87938 10.2178 1.918C10.3794 1.96177 10.5258 2.07562 10.8186 2.30333L13.6445 4.5013M6.35545 4.5013H13.6445" stroke="white" stroke-width="1.25" stroke-linecap="round" stroke-linejoin="round"/>
</svg>
