<svg width="20" height="20" viewBox="0 0 20 20" fill="none" xmlns="http://www.w3.org/2000/svg">
<path d="M10.633 4.06248H15.3982L17.4841 5.25032L16.6497 7.22949H12.7705V13.9587M10.633 4.06248H7.62467M10.633 4.06248V2.08331H7.62467V4.06248M13.958 7.20762H15.0167C15.2103 7.20762 15.3071 7.20762 15.3982 7.22949C15.479 7.24888 15.5562 7.28087 15.6271 7.32428C15.707 7.37324 15.9372 8.41699 15.9123 8.76612L17.5453 9.62933C17.6823 9.76625 17.7507 9.83471 17.7997 9.9146C17.8431 9.98543 17.8751 10.0627 17.8945 10.1434C17.9163 10.2345 17.9163 10.3314 17.9163 10.525V12.692C17.9163 13.1354 17.9163 13.3571 17.8301 13.5264C17.7542 13.6754 17.633 13.7965 17.4841 13.8724C17.3147 13.9587 17.093 13.9587 16.6497 13.9587H12.7705M6.43717 13.9587H4.61634C3.72959 13.9587 3.28622 13.9587 2.94752 13.7861C2.6496 13.6343 2.40738 13.3921 2.25558 13.0941C2.08301 12.7554 2.08301 12.3121 2.08301 11.4253V6.20032C2.08301 5.31357 2.08301 5.26569 2.25558 4.92699C2.40738 4.62907 2.6496 4.38685 2.94752 4.23505C3.28622 4.06248 3.72959 4.06248 4.61634 4.06248H7.62467M6.43717 13.9587V8.02116H9.99967V13.9587M6.43717 13.9587H9.99967M9.99967 13.9587H12.7705M7.62467 15.9378C7.62467 17.0309 6.73857 17.917 5.64551 17.917C4.55244 17.917 3.66634 17.0309 3.66634 15.9378C3.66634 14.8448 4.55244 13.9587 5.64551 13.9587C6.73857 13.9587 7.62467 14.8448 7.62467 15.9378ZM16.333 15.9378C16.333 17.0309 15.4469 17.917 14.3538 17.917C13.2608 17.917 12.3747 17.0309 12.3747 15.9378C12.3747 14.8448 13.2608 13.9587 14.3538 13.9587C15.4469 13.9587 16.333 14.8448 16.333 15.9378Z" stroke="white" stroke-width="1.25" stroke-linecap="round" stroke-linejoin="round"/>
</svg>
