<svg width="132" height="24" viewBox="0 0 132 24" fill="none" xmlns="http://www.w3.org/2000/svg">
<g clip-path="url(#clip0_4212_29826)">
<path d="M71.4725 0.496582C69.2383 1.96555 67.4551 4.07589 66.3688 6.57934H60.6296C60.3222 6.57934 60.3632 6.53796 60.3632 6.84831C60.3632 12.4345 60.3632 18.0207 60.3632 23.6069C60.3632 23.938 60.4042 23.8966 60.0762 23.8966C57.8626 23.8966 55.6284 23.8966 53.4147 23.8966C53.1483 23.8966 53.1688 23.9173 53.1688 23.6483C53.1688 18.0621 53.1688 12.4552 53.1688 6.869C53.1688 6.53797 53.2098 6.57934 52.8818 6.57934H43.2483C43.1663 6.57934 43.1048 6.57934 43.0228 6.57934C43.0023 6.57934 42.9818 6.53796 43.0023 6.51727C43.0228 6.47589 43.0433 6.4552 43.0638 6.41383C43.7197 5.54486 44.3961 4.67589 45.0725 3.78624C45.5644 3.14486 46.0564 2.48279 46.5688 1.84141C46.8762 1.42762 47.2042 1.03451 47.4911 0.620721C47.5526 0.537963 47.6141 0.496582 47.7166 0.496582C47.7781 0.496582 47.8191 0.496582 47.8806 0.496582H60.4247C64.1141 0.496582 67.7831 0.496582 71.4725 0.496582Z" fill="#FEDB25"/>
<path d="M40.4198 17.8552C40.5018 17.8552 40.5838 17.8552 40.6863 17.8552C44.0068 17.8552 47.3273 17.8552 50.6683 17.8552C50.7298 17.8552 50.7708 17.8552 50.8323 17.8552C50.9552 17.8552 50.9553 17.8552 50.9553 18.0001C50.9553 18.0415 50.9553 18.0621 50.9553 18.1035C50.9553 19.9449 50.9553 21.7863 50.9553 23.6277C50.9553 23.8966 50.9962 23.8759 50.7093 23.8759C46.9379 23.8759 43.1459 23.8759 39.3745 23.8759C38.9031 23.8759 38.4521 23.8552 37.9807 23.8346C35.6031 23.669 33.3484 23.0277 31.2577 21.8484C30.1099 21.1863 29.0646 20.3794 28.1832 19.3656C27.0764 18.1242 26.2565 16.6966 25.7851 15.1035C25.5801 14.4415 25.4571 13.7587 25.3956 13.0553C25.3341 12.3932 25.3341 11.7518 25.3751 11.0897C25.4981 9.3518 26.031 7.738 26.9739 6.26904C27.9167 4.80007 29.1466 3.62077 30.6223 2.71042C31.7087 2.04835 32.877 1.5518 34.1068 1.20007C34.8447 0.993177 35.6031 0.827661 36.3615 0.703523C37.3658 0.558696 38.3702 0.496627 39.3745 0.496627C41.2192 0.496627 43.0639 0.496627 44.9087 0.496627C44.9702 0.496627 45.0521 0.475938 45.1341 0.517318C45.0931 0.600076 45.0521 0.641454 45.0112 0.703523C44.3962 1.51042 43.7813 2.31732 43.1664 3.12422C42.3671 4.1587 41.5882 5.19318 40.7888 6.22766C40.7683 6.24835 40.7478 6.26904 40.7273 6.31042C40.6658 6.26904 40.5838 6.24835 40.5223 6.20697C39.7025 5.7518 38.8211 5.50353 37.8987 5.42077C37.3863 5.37939 36.8739 5.40008 36.382 5.48283C35.8285 5.56559 35.2751 5.73111 34.7627 5.95869C33.6764 6.43456 32.795 7.17938 32.0981 8.13111C31.2987 9.24835 30.8888 10.4897 30.8683 11.8759C30.8478 12.3104 30.8888 12.7449 30.9708 13.1794C31.1962 14.4208 31.7292 15.5173 32.5695 16.4484C33.2459 17.1932 34.0453 17.7518 34.9882 18.1449C35.6031 18.3932 36.259 18.5587 36.9354 18.6001C37.4273 18.6415 37.9192 18.6208 38.3907 18.538C39.0466 18.4346 39.682 18.2484 40.2764 17.938C40.3174 17.9173 40.3789 17.8759 40.4198 17.8552Z" fill="#C10B2F"/>
<path d="M24.3708 15.7033C24.3298 15.6413 24.2888 15.5792 24.2478 15.5378C22.6695 13.2413 21.1118 10.9033 19.554 8.58609C19.513 8.52402 19.472 8.46195 19.431 8.39988C19.3696 8.42057 19.3491 8.48264 19.3081 8.52402C18.5497 9.59988 17.7913 10.6757 17.0329 11.7723C14.2453 15.7654 11.4373 19.7378 8.64968 23.7309C8.64968 23.7516 8.62918 23.7516 8.62918 23.7723C8.5062 23.9378 8.54719 23.9171 8.36272 23.9171C5.94409 23.9171 3.52545 23.9171 1.10682 23.9171C0.799368 23.9171 0.491914 23.9171 0.163964 23.9171C0.143467 23.9171 0.12297 23.9171 0.102473 23.9171C0.0819762 23.9171 0.0614796 23.8757 0.0819765 23.8551C0.102473 23.8137 0.143467 23.7723 0.163964 23.7309C4.75527 17.193 9.34657 10.6757 13.9174 4.13781C14.2248 3.70333 14.5323 3.26885 14.8397 2.83437C15.3727 2.06885 16.0491 1.42747 16.8074 0.889536C17.2584 0.558501 17.7708 0.372299 18.3242 0.248161C19.1441 0.0826441 19.964 0.0826441 20.7633 0.248161C21.3373 0.372299 21.8497 0.579192 22.3211 0.910227C22.9975 1.38609 23.5919 1.98609 24.0633 2.66885C24.6373 3.49643 25.1907 4.32402 25.7646 5.15161C25.8671 5.29643 25.8671 5.25506 25.7646 5.42058C25.0677 6.51713 24.5348 7.67575 24.2273 8.93782C24.0838 9.53782 23.9813 10.1171 23.9199 10.7378C23.8789 11.2137 23.8584 11.6895 23.8584 12.1654C23.8789 13.324 24.0428 14.4826 24.3708 15.5999C24.3913 15.6206 24.4118 15.662 24.3708 15.7033Z" fill="#012A6A"/>
<path d="M40.4199 17.8553C40.3584 17.8759 40.3174 17.8966 40.2559 17.9173C39.6615 18.207 39.0261 18.4139 38.3702 18.5173C37.8782 18.6001 37.3863 18.6208 36.9149 18.5794C36.2385 18.538 35.6031 18.3725 34.9677 18.1242C34.0453 17.7518 33.2255 17.1932 32.5491 16.4277C31.7087 15.4966 31.1758 14.4001 30.9503 13.1587C30.8683 12.7242 30.8273 12.2897 30.8478 11.8553C30.8888 10.4897 31.2987 9.22767 32.0776 8.11043C32.7745 7.13802 33.6559 6.41388 34.7422 5.93802C35.2546 5.71043 35.7876 5.54491 36.3615 5.46215C36.8739 5.37939 37.3863 5.35871 37.8782 5.40008C38.8006 5.46215 39.682 5.73112 40.5019 6.18629C40.5633 6.22767 40.6453 6.24836 40.7068 6.28974C40.7683 6.33112 40.8298 6.39319 40.8913 6.43457C41.9366 7.11733 42.7155 8.00698 43.2484 9.12422C43.5559 9.7656 43.7404 10.4277 43.8428 11.1311C43.8838 11.4208 43.9043 11.7104 43.9043 11.9794C43.9043 12.3932 43.8633 12.807 43.7814 13.2208C43.6174 14.0484 43.3304 14.8139 42.8795 15.538C42.2851 16.4691 41.5062 17.2139 40.5633 17.7518C40.5428 17.7932 40.4814 17.8346 40.4199 17.8553Z" fill="#FEDB25"/>
<path d="M31.9341 23.876C31.8726 23.8967 31.8521 23.8967 31.8316 23.8967C31.7701 23.8967 31.7086 23.8967 31.6266 23.8967C25.0676 23.8967 18.5086 23.8967 11.9496 23.8967C11.8676 23.8967 11.7652 23.9381 11.6832 23.876C11.7037 23.7932 11.7652 23.7312 11.8266 23.6691C13.1794 21.807 14.5117 19.9243 15.8645 18.0622C16.008 17.8553 15.9465 17.8967 16.1925 17.8967C17.6273 17.8967 19.062 17.8967 20.4968 17.9174C22.0136 17.9174 23.5304 17.9381 25.0471 17.9588C25.1086 17.9588 25.1496 17.9588 25.2111 17.9588C25.3341 17.9381 25.3956 18.0001 25.4366 18.1036C25.867 18.9105 26.3999 19.6346 26.9943 20.3174C27.9577 21.4346 29.1055 22.345 30.3558 23.0898C30.7863 23.3588 31.2372 23.5863 31.7086 23.7932C31.7701 23.7932 31.8316 23.8139 31.9341 23.876Z" fill="#012A6A"/>
<path d="M19.39 9.57935C19.2466 10.0759 19.1031 10.5518 18.9596 11.0069C19.0006 11.069 19.0621 11.0897 19.1236 11.1104C19.2056 11.1518 19.2875 11.1725 19.349 11.2138C19.3695 11.2345 19.39 11.2552 19.3695 11.2759C19.349 11.3173 19.308 11.338 19.2671 11.3793C17.9757 12.7035 16.6844 14.0276 15.3931 15.3724C15.3316 15.4345 15.2702 15.4966 15.1882 15.5587C15.2292 15.4966 15.2702 15.4138 15.3317 15.3518C16.6435 13.469 17.9553 11.6069 19.2671 9.72418C19.2876 9.6828 19.308 9.64141 19.39 9.57935Z" fill="white"/>
<path d="M22.6695 14.3379C22.649 14.3586 22.6285 14.3379 22.608 14.3172C22.567 14.2758 22.526 14.2137 22.485 14.1724C21.7881 13.3448 21.0912 12.5379 20.3943 11.7103C20.3533 11.6689 20.2918 11.6275 20.2713 11.5448C20.3328 11.5034 20.4148 11.5448 20.4763 11.4827C20.4148 11.2551 20.3123 11.0482 20.2509 10.8413C20.2918 10.8206 20.3123 10.8413 20.3123 10.862C20.3943 10.9862 20.4968 11.131 20.5788 11.2551C21.2142 12.2069 21.8496 13.1379 22.485 14.0896C22.5465 14.1724 22.608 14.2551 22.6695 14.3379Z" fill="white"/>
<path d="M24.3706 15.7036C24.3913 15.7036 24.3913 15.7036 24.3913 15.7036C24.3913 15.7036 24.3913 15.7243 24.412 15.7243C24.412 15.7243 24.3913 15.7243 24.3913 15.7036C24.3913 15.7243 24.3706 15.7243 24.3706 15.7036Z" fill="#012A6A"/>
<path d="M22.6489 14.3381V14.3588C22.6696 14.3588 22.6696 14.3381 22.6489 14.3381Z" fill="#012A6A"/>
<path d="M85.6974 2.60687L82.6434 6.57928H89.2229C88.362 4.98618 87.1527 3.64135 85.6974 2.60687ZM89.8788 8.04825H81.5571C81.5776 8.06893 81.5981 8.08963 81.6186 8.08963C82.3769 8.58618 82.9509 9.24825 83.3403 10.0551C83.5658 10.5103 83.7092 11.0069 83.7707 11.5241C83.7912 11.731 83.8117 11.9379 83.8117 12.1448C83.8117 12.4551 83.7912 12.7448 83.7297 13.0551C83.6067 13.6551 83.4018 14.2345 83.0738 14.7517C82.6434 15.4345 82.0695 15.9724 81.3726 16.3862C81.3316 16.4069 81.2906 16.4276 81.2496 16.4689C81.2086 16.4896 81.1676 16.5103 81.1266 16.5103C80.6962 16.7172 80.2248 16.862 79.7533 16.9448C79.4049 17.0069 79.0359 17.0069 78.6875 16.9862C78.1956 16.9448 77.7241 16.8414 77.2732 16.6551C76.5968 16.3862 76.0024 15.9724 75.5105 15.4138C74.8956 14.731 74.5061 13.9241 74.3422 13.0138C74.2807 12.7034 74.2602 12.3931 74.2602 12.062C74.2807 11.0482 74.5881 10.1379 75.162 9.33101C75.6745 8.62756 76.3304 8.08962 77.1092 7.7379C77.4782 7.57238 77.8881 7.44825 78.2981 7.38618C78.667 7.32411 79.0359 7.30342 79.4049 7.3448C79.6508 7.36549 79.8968 7.40687 80.1223 7.44825L80.7987 6.57928L84.4471 1.82066C82.8279 0.951692 81.0036 0.47583 79.0359 0.47583C72.6409 0.47583 67.4552 5.71031 67.4552 12.1655C67.4552 18.6207 72.6409 23.8551 79.0359 23.8551C85.431 23.8551 90.6167 18.6207 90.6167 12.1655C90.6167 10.7172 90.3707 9.331 89.8788 8.04825Z" fill="white"/>
<path d="M106.604 23.607C106.604 23.938 106.645 23.8966 106.317 23.8966H105.62L106.604 22.4897V23.607Z" fill="#FEDB25"/>
<path d="M112.938 0.517318C112.958 0.620766 112.856 0.682836 112.794 0.744905C111.646 2.25525 110.499 3.76559 109.351 5.27594C109.043 5.66904 108.736 6.08283 108.428 6.47594C108.387 6.53801 108.326 6.57938 108.244 6.57938C108.182 6.57938 108.141 6.57938 108.08 6.57938H100.332C100.025 6.57938 100.066 6.53801 100.066 6.84835V19.9449L97.2986 23.8966C95.9049 23.8966 94.5316 23.8966 93.1378 23.8966C92.8713 23.8966 92.8918 23.9173 92.8918 23.6483V6.86904C92.8918 6.53801 92.9328 6.57938 92.6048 6.57938H82.9713C82.8893 6.57938 82.8278 6.57938 82.7458 6.57938C82.7253 6.57938 82.7049 6.53801 82.7253 6.51732C82.7458 6.47594 82.7663 6.45525 82.7868 6.41387C83.4632 5.5449 84.1191 4.67594 84.7955 3.78628C85.2875 3.1449 85.7794 2.48283 86.2918 1.84145C86.5993 1.42766 86.9067 1.03456 87.2142 0.620766C87.2757 0.538007 87.3371 0.496627 87.4396 0.496627C87.5011 0.496627 87.5421 0.496627 87.6036 0.496627H100.148C104.329 0.496627 108.51 0.496627 112.692 0.496627C112.753 0.496627 112.856 0.475938 112.938 0.517318Z" fill="white"/>
<path d="M131.918 18.8067C131.918 19.386 131.795 19.9447 131.549 20.4826C131.221 21.2481 130.75 21.9309 130.135 22.4895C129.725 22.8826 129.274 23.1722 128.741 23.3584C128.72 23.3791 128.679 23.3791 128.659 23.3998C127.819 23.6895 126.958 23.855 126.056 23.855C125.523 23.855 124.99 23.855 124.457 23.855C116.525 23.855 117.898 23.8757 109.966 23.8757C109.904 23.8757 109.863 23.8757 109.802 23.8757C109.781 23.8757 109.761 23.8343 109.781 23.8136C109.781 23.7929 109.802 23.7722 109.822 23.7722C110.007 23.524 110.191 23.255 110.355 23.0067C111.749 21.0205 113.143 19.0136 114.537 17.0274C114.639 16.8619 114.598 16.8826 114.803 16.8826H114.844C119.681 16.8826 115.213 16.8826 120.05 16.8826C121.362 16.8826 122.674 16.8826 123.986 16.8826C124.047 16.8826 124.109 16.9033 124.15 16.8619C124.129 16.7791 121.69 13.0964 120.829 11.8343C120.091 10.7378 119.353 9.6412 118.616 8.56534C118.575 8.52396 118.575 8.46189 118.493 8.4412L118.472 8.46189C118.452 8.44121 118.431 8.42052 118.411 8.37914C118.349 8.39983 118.329 8.4619 118.288 8.50328C117.529 9.57914 116.771 10.655 116.012 11.7515C115.152 12.9722 114.291 14.2136 113.43 15.4343C111.503 18.186 109.556 20.9584 107.629 23.7102C107.629 23.7102 107.609 23.7309 107.609 23.7515C107.486 23.9171 107.527 23.8964 107.342 23.8964H99.164C99.1435 23.8964 99.123 23.8964 99.1025 23.8964C99.082 23.8964 99.0615 23.855 99.082 23.8343C99.1025 23.7929 99.1435 23.7516 99.164 23.7102C103.489 17.5653 107.814 11.3998 112.138 5.255C112.405 4.88258 112.671 4.51017 112.938 4.13776C113.245 3.70327 113.553 3.26879 113.86 2.83431C114.393 2.06879 115.049 1.42741 115.828 0.889479C116.053 0.723962 116.299 0.599825 116.545 0.496377C116.791 0.392928 117.037 0.33086 117.304 0.28948C118.124 0.144653 118.943 0.144655 119.743 0.330862C120.276 0.455 120.788 0.661893 121.239 0.992927C121.998 1.55155 122.633 2.19293 123.166 2.97914C123.473 3.41362 123.76 3.86879 124.068 4.30327C124.314 4.67569 124.56 5.02741 124.806 5.39983C126.609 8.06879 131.18 15.5791 131.467 16.386C131.795 17.1516 131.938 17.9584 131.918 18.8067Z" fill="white"/>
</g>
<defs>
<clipPath id="clip0_4212_29826">
<rect width="132" height="24" fill="white"/>
</clipPath>
</defs>
</svg>
