<svg width="80" height="80" viewBox="0 0 80 80" fill="none" xmlns="http://www.w3.org/2000/svg">
<rect width="80" height="80" rx="40" fill="#012A6A"/>
<path d="M48 49C48 47.6044 48 46.9067 47.8278 46.3389C47.44 45.0605 46.4395 44.06 45.1611 43.6722C44.5933 43.5 43.8956 43.5 42.5 43.5H37.5C36.1044 43.5 35.4067 43.5 34.8389 43.6722C33.5605 44.06 32.56 45.0605 32.1722 46.3389C32 46.9067 32 47.6044 32 49M44.5 35.5C44.5 37.9853 42.4853 40 40 40C37.5147 40 35.5 37.9853 35.5 35.5C35.5 33.0147 37.5147 31 40 31C42.4853 31 44.5 33.0147 44.5 35.5Z" stroke="white" stroke-width="1.5" stroke-linecap="round" stroke-linejoin="round"/>
</svg>
