<svg width="615" height="461" viewBox="0 0 615 461" fill="none" xmlns="http://www.w3.org/2000/svg">
<path d="M237.987 157.041L166.742 192.33L100.486 234.332C87.1265 242.801 74.4177 252.254 62.4651 262.614L32.6564 288.451C25.9497 294.264 20.2484 301.144 15.7824 308.814L8.58808 321.17C6.56178 324.65 5.43517 328.58 5.31021 332.605L5.23859 334.912C5.10327 339.271 6.54986 343.531 9.31116 346.907V346.907C11.0804 349.069 13.3272 350.792 15.875 351.939L22.0487 354.718C27.4667 357.157 33.2993 358.542 39.2353 358.801L57.1566 359.582C65.4832 359.944 73.8256 359.564 82.0847 358.445L121.536 353.102L203.29 331.626L326.394 284.213L377.504 259.148C440.488 228.26 501.009 192.585 558.534 152.436V152.436L575.774 137.51" stroke="url(#paint0_linear_2355_49730)" stroke-width="3" stroke-dasharray="26 26"/>
<path d="M605.756 110.59C607.277 109.537 609.364 109.935 610.392 111.472C611.392 112.967 611.014 114.987 609.542 116.021L605.152 119.104C604.808 119.346 604.636 119.467 604.514 119.624C604.405 119.763 604.326 119.922 604.279 120.092C604.227 120.285 604.233 120.495 604.246 120.915L604.56 131.156C604.573 131.588 604.58 131.803 604.525 132C604.476 132.174 604.392 132.336 604.279 132.476C604.151 132.635 603.972 132.755 603.613 132.995L603.032 133.384C602.081 134.019 601.606 134.336 601.186 134.327C600.82 134.32 600.472 134.161 600.226 133.889C599.944 133.578 599.873 133.011 599.73 131.877L598.668 123.47L593.424 126.975C593.111 127.185 592.954 127.289 592.837 127.426C592.732 127.546 592.65 127.685 592.595 127.835C592.532 128.004 592.516 128.192 592.484 128.567L592.295 130.777C592.262 131.152 592.246 131.339 592.184 131.509C592.128 131.658 592.046 131.797 591.942 131.918C591.824 132.054 591.668 132.159 591.355 132.368L591.045 132.575C590.303 133.071 589.933 133.319 589.571 133.34C589.254 133.358 588.94 133.263 588.687 133.071C588.399 132.853 588.228 132.44 587.888 131.616L586.448 128.132C586.387 127.985 586.357 127.911 586.318 127.842C586.284 127.781 586.245 127.722 586.201 127.667C586.152 127.605 586.096 127.549 585.983 127.436L583.314 124.774C582.683 124.144 582.367 123.829 582.275 123.479C582.195 123.171 582.227 122.845 582.365 122.559C582.523 122.234 582.894 121.986 583.635 121.49L583.945 121.283C584.258 121.074 584.415 120.969 584.586 120.912C584.737 120.862 584.897 120.839 585.056 120.845C585.237 120.852 585.416 120.909 585.775 121.023L587.889 121.693C588.248 121.807 588.428 121.863 588.608 121.87C588.768 121.876 588.927 121.854 589.079 121.803C589.25 121.747 589.406 121.642 589.719 121.433L594.964 117.927L587.601 113.732C586.608 113.166 586.112 112.883 585.932 112.504C585.775 112.172 585.761 111.791 585.894 111.449C586.047 111.058 586.522 110.74 587.472 110.105L588.053 109.716C588.412 109.477 588.591 109.357 588.787 109.299C588.96 109.248 589.142 109.233 589.321 109.255C589.524 109.279 589.721 109.368 590.114 109.545L599.422 113.734C599.808 113.909 600.002 113.996 600.2 114.021C600.392 114.045 600.586 114.027 600.77 113.968C600.961 113.908 601.135 113.787 601.484 113.546L605.756 110.59Z" fill="#F1F6FE"/>
<defs>
<linearGradient id="paint0_linear_2355_49730" x1="165.868" y1="199.293" x2="200.301" y2="292.799" gradientUnits="userSpaceOnUse">
<stop stop-color="#B0B0B0" stop-opacity="0"/>
<stop offset="1" stop-color="#B0B0B0"/>
</linearGradient>
</defs>
</svg>
