<svg width="20" height="20" viewBox="0 0 20 20" fill="none" xmlns="http://www.w3.org/2000/svg">
<path d="M7.08333 15.8334V17.6667C7.08333 17.9 7.08333 18.0167 7.03792 18.1059C6.99797 18.1843 6.93423 18.248 6.85583 18.2879C6.7667 18.3334 6.65002 18.3334 6.41667 18.3334H4.83333C4.59998 18.3334 4.4833 18.3334 4.39417 18.2879C4.31577 18.248 4.25203 18.1843 4.21208 18.1059C4.16667 18.0167 4.16667 17.9 4.16667 17.6667V15.8334M15.8333 15.8334V17.6667C15.8333 17.9 15.8333 18.0167 15.7879 18.1059C15.748 18.1843 15.6842 18.248 15.6058 18.2879C15.5167 18.3334 15.4 18.3334 15.1667 18.3334H13.5833C13.35 18.3334 13.2333 18.3334 13.1442 18.2879C13.0658 18.248 13.002 18.1843 12.9621 18.1059C12.9167 18.0167 12.9167 17.9 12.9167 17.6667V15.8334M2.5 10H17.5M2.5 4.58335H17.5M5.41667 12.9167H6.66667M13.3333 12.9167H14.5833M6.5 15.8334H13.5C14.9001 15.8334 15.6002 15.8334 16.135 15.5609C16.6054 15.3212 16.9878 14.9387 17.2275 14.4683C17.5 13.9336 17.5 13.2335 17.5 11.8334V5.66669C17.5 4.26656 17.5 3.56649 17.2275 3.03171C16.9878 2.56131 16.6054 2.17885 16.135 1.93917C15.6002 1.66669 14.9001 1.66669 13.5 1.66669H6.5C5.09987 1.66669 4.3998 1.66669 3.86502 1.93917C3.39462 2.17885 3.01217 2.56131 2.77248 3.03171C2.5 3.56649 2.5 4.26656 2.5 5.66669V11.8334C2.5 13.2335 2.5 13.9336 2.77248 14.4683C3.01217 14.9387 3.39462 15.3212 3.86502 15.5609C4.3998 15.8334 5.09987 15.8334 6.5 15.8334Z" stroke="white" stroke-width="1.25" stroke-linecap="round" stroke-linejoin="round"/>
</svg>
