<svg width="20" height="20" viewBox="0 0 20 20" fill="none" xmlns="http://www.w3.org/2000/svg">
<path d="M16.9921 17.4682L17.1141 18.0812L16.9921 17.4682ZM18.3016 16.1587L18.9146 16.2806L18.9146 16.2806L18.3016 16.1587ZM3.00851 17.4682L2.88658 18.0812H2.88658L3.00851 17.4682ZM1.69902 16.1587L1.08603 16.2806L1.69902 16.1587ZM16.9686 9.43935L16.6849 9.99623H16.6849L16.9686 9.43935ZM18.0612 10.5319L18.6181 10.2481V10.2481L18.0612 10.5319ZM3.03202 9.43935L3.31576 9.99623L3.03202 9.43935ZM1.93948 10.5319L2.49635 10.8156L1.93948 10.5319ZM16.9686 8.88567H16.3436C16.3436 9.09348 16.4469 9.28771 16.6192 9.40388C16.7916 9.52006 17.0103 9.54299 17.203 9.46506L16.9686 8.88567ZM3.03202 8.88567L2.79766 9.46506C2.99281 9.544 3.2146 9.51939 3.3877 9.39959C3.5608 9.27979 3.66196 9.08089 3.65683 8.87044L3.03202 8.88567ZM1.90135 7.75414C1.58136 7.6247 1.21703 7.77918 1.08759 8.09918C0.958162 8.41917 1.11264 8.7835 1.43263 8.91293L1.90135 7.75414ZM18.568 8.91293C18.888 8.7835 19.0425 8.41917 18.9131 8.09918C18.7836 7.77918 18.4193 7.6247 18.0993 7.75414L18.568 8.91293ZM5.83366 11.0417C5.48848 11.0417 5.20866 11.3215 5.20866 11.6667C5.20866 12.0118 5.48848 12.2917 5.83366 12.2917V11.0417ZM14.167 12.2917C14.5122 12.2917 14.792 12.0118 14.792 11.6667C14.792 11.3215 14.5122 11.0417 14.167 11.0417V12.2917ZM5.66699 9.79187H14.3337V8.54187H5.66699V9.79187ZM13.7503 14.7919H6.25033V16.0419H13.7503V14.7919ZM4.16699 16.8752H3.75033V18.1252H4.16699V16.8752ZM16.2503 16.8752H15.8337V18.1252H16.2503V16.8752ZM2.29199 15.4169V13.1669H1.04199V15.4169H2.29199ZM17.7087 13.1669V15.4169H18.9587V13.1669H17.7087ZM16.2503 18.1252C16.6076 18.1252 16.8775 18.1282 17.1141 18.0812L16.8702 16.8552C16.7848 16.8722 16.6675 16.8752 16.2503 16.8752V18.1252ZM17.7087 15.4169C17.7087 15.834 17.7056 15.9513 17.6886 16.0367L18.9146 16.2806C18.9617 16.044 18.9587 15.7741 18.9587 15.4169H17.7087ZM17.1141 18.0812C18.0232 17.9003 18.7338 17.1897 18.9146 16.2806L17.6886 16.0367C17.6064 16.45 17.2834 16.773 16.8702 16.8552L17.1141 18.0812ZM13.542 15.8335C13.542 17.0992 14.568 18.1252 15.8337 18.1252V16.8752C15.2584 16.8752 14.792 16.4088 14.792 15.8335H13.542ZM5.20866 15.8335C5.20866 16.4088 4.74229 16.8752 4.16699 16.8752V18.1252C5.43265 18.1252 6.45866 17.0992 6.45866 15.8335H5.20866ZM3.75033 16.8752C3.33316 16.8752 3.21584 16.8722 3.13044 16.8552L2.88658 18.0812C3.12317 18.1282 3.39307 18.1252 3.75033 18.1252V16.8752ZM1.04199 15.4169C1.04199 15.7741 1.03897 16.044 1.08603 16.2806L2.31201 16.0367C2.29502 15.9513 2.29199 15.834 2.29199 15.4169H1.04199ZM3.13044 16.8552C2.71722 16.773 2.3942 16.45 2.31201 16.0367L1.08603 16.2806C1.26685 17.1897 1.97749 17.9003 2.88658 18.0812L3.13044 16.8552ZM6.25033 14.7919C5.67503 14.7919 5.20866 15.2582 5.20866 15.8335H6.45866C6.45866 15.9486 6.36538 16.0419 6.25033 16.0419V14.7919ZM13.7503 16.0419C13.6353 16.0419 13.542 15.9486 13.542 15.8335H14.792C14.792 15.2582 14.3256 14.7919 13.7503 14.7919V16.0419ZM14.3337 9.79187C15.044 9.79187 15.5392 9.79235 15.9248 9.82385C16.303 9.85476 16.5203 9.91236 16.6849 9.99623L17.2524 8.88247C16.8822 8.69386 16.4821 8.61522 16.0265 8.578C15.5783 8.54138 15.0234 8.54187 14.3337 8.54187V9.79187ZM18.9587 13.1669C18.9587 12.4771 18.9591 11.9222 18.9225 11.474C18.8853 11.0184 18.8067 10.6183 18.6181 10.2481L17.5043 10.8156C17.5882 10.9802 17.6458 11.1975 17.6767 11.5758C17.7082 11.9613 17.7087 12.4565 17.7087 13.1669H18.9587ZM16.6849 9.99623C17.0377 10.176 17.3245 10.4628 17.5043 10.8156L18.6181 10.2481C18.3184 9.66014 17.8404 9.18208 17.2524 8.88247L16.6849 9.99623ZM5.66699 8.54187C4.97724 8.54187 4.42234 8.54138 3.9741 8.578C3.51857 8.61522 3.11845 8.69386 2.74827 8.88247L3.31576 9.99623C3.48036 9.91236 3.69766 9.85476 4.07589 9.82385C4.46142 9.79235 4.95661 9.79187 5.66699 9.79187V8.54187ZM2.29199 13.1669C2.29199 12.4565 2.29248 11.9613 2.32398 11.5758C2.35488 11.1975 2.41249 10.9802 2.49635 10.8156L1.3826 10.2481C1.19398 10.6183 1.11535 11.0184 1.07813 11.474C1.04151 11.9222 1.04199 12.4771 1.04199 13.1669H2.29199ZM2.74827 8.88247C2.16027 9.18208 1.6822 9.66014 1.3826 10.2481L2.49635 10.8156C2.67612 10.4628 2.96295 10.176 3.31576 9.99623L2.74827 8.88247ZM15.4967 3.85987C15.5129 3.87025 15.5745 3.92218 15.6581 4.07724C15.7382 4.22573 15.8165 4.42796 15.8892 4.68038C16.0345 5.18513 16.1361 5.81606 16.2055 6.44998C16.2743 7.07928 16.309 7.68957 16.3264 8.14419C16.335 8.37097 16.3394 8.55776 16.3415 8.68728C16.3426 8.75202 16.3431 8.80237 16.3434 8.83617C16.3435 8.85307 16.3436 8.86583 16.3436 8.87417C16.3436 8.87834 16.3436 8.8814 16.3436 8.88333C16.3436 8.8843 16.3436 8.88498 16.3436 8.88537C16.3436 8.88556 16.3436 8.88568 16.3436 8.88573C16.3436 8.88576 16.3436 8.88574 16.3436 8.88576C16.3436 8.88572 16.3436 8.88567 16.9686 8.88567C17.5936 8.88567 17.5936 8.88558 17.5936 8.88547C17.5936 8.88541 17.5936 8.88528 17.5936 8.88516C17.5936 8.88492 17.5936 8.8846 17.5936 8.88421C17.5936 8.88343 17.5936 8.88236 17.5936 8.881C17.5936 8.87828 17.5936 8.87442 17.5936 8.86944C17.5936 8.85947 17.5935 8.84504 17.5933 8.82642C17.593 8.78918 17.5925 8.73515 17.5913 8.66651C17.5891 8.52929 17.5845 8.33341 17.5754 8.09643C17.5574 7.62354 17.5211 6.98201 17.4481 6.31408C17.3755 5.65077 17.2644 4.93907 17.0904 4.33466C17.0035 4.03251 16.8956 3.73854 16.7584 3.48406C16.6248 3.23616 16.4381 2.97835 16.1706 2.8071L15.4967 3.85987ZM3.03202 8.88567C3.65683 8.87044 3.65683 8.8705 3.65683 8.87055C3.65683 8.87054 3.65683 8.87057 3.65683 8.87055C3.65683 8.87052 3.65683 8.87041 3.65683 8.87024C3.65682 8.86989 3.6568 8.86926 3.65678 8.86835C3.65674 8.86652 3.65668 8.86359 3.6566 8.85958C3.65644 8.85155 3.65621 8.83921 3.65595 8.82281C3.65545 8.79001 3.65485 8.74102 3.65451 8.67791C3.65383 8.55165 3.6542 8.36924 3.65846 8.14734C3.66701 7.70239 3.6911 7.10409 3.7527 6.48388C3.81474 5.85907 3.9127 5.23502 4.06179 4.72938C4.2223 4.18504 4.39958 3.92959 4.51371 3.85349L3.82027 2.81347C3.3094 3.1541 3.03232 3.80103 2.86283 4.37586C2.68192 4.98939 2.57426 5.7013 2.50881 6.36035C2.44291 7.024 2.41764 7.65749 2.40869 8.12334C2.4042 8.35684 2.4038 8.5496 2.40452 8.68465C2.40489 8.7522 2.40554 8.8054 2.4061 8.84213C2.40639 8.86049 2.40665 8.87475 2.40685 8.88463C2.40695 8.88957 2.40703 8.89342 2.40709 8.89614C2.40712 8.8975 2.40715 8.89858 2.40717 8.89938C2.40717 8.89977 2.40718 8.9001 2.40719 8.90035C2.40719 8.90048 2.40719 8.90062 2.4072 8.90068C2.4072 8.9008 2.4072 8.9009 3.03202 8.88567ZM1.43263 8.91293L2.79766 9.46506L3.26637 8.30627L1.90135 7.75414L1.43263 8.91293ZM17.203 9.46506L18.568 8.91293L18.0993 7.75414L16.7343 8.30627L17.203 9.46506ZM16.1706 2.8071C15.9171 2.64483 15.5387 2.54739 15.1769 2.47715C14.7844 2.40098 14.3018 2.33813 13.7665 2.28754C12.694 2.18618 11.3691 2.13024 10.0466 2.1235C8.72456 2.11675 7.39084 2.15909 6.30157 2.25723C5.75786 2.30621 5.2638 2.37007 4.8576 2.45162C4.47832 2.52777 4.08798 2.63498 3.82027 2.81347L4.51371 3.85349C4.55851 3.82362 4.73165 3.75186 5.10366 3.67716C5.44875 3.60788 5.89376 3.54903 6.41373 3.50218C7.4518 3.40866 8.74382 3.36686 10.0403 3.37348C11.3364 3.38009 12.6228 3.43502 13.6489 3.532C14.1629 3.58057 14.6014 3.63877 14.9387 3.70425C15.1074 3.737 15.2423 3.76996 15.3443 3.80158C15.3949 3.81726 15.4332 3.83131 15.4608 3.84298C15.4895 3.85508 15.4993 3.86152 15.4967 3.85987L16.1706 2.8071ZM5.83366 12.2917H14.167V11.0417H5.83366V12.2917Z" fill="white"/>
</svg>
