<svg width="20" height="21" viewBox="0 0 20 21" fill="none" xmlns="http://www.w3.org/2000/svg">
<path d="M14.7882 2.84399C15.5922 2.01359 16.9206 2.00285 17.7379 2.82014C18.5327 3.61503 18.5475 4.89918 17.7712 5.71218L15.4556 8.13698C15.2741 8.32704 15.1834 8.42207 15.1275 8.53337C15.078 8.6319 15.0485 8.73927 15.0408 8.84927C15.0321 8.97352 15.0616 9.10156 15.1207 9.35763L16.5606 15.5973C16.6213 15.8601 16.6516 15.9915 16.6418 16.1187C16.6332 16.2312 16.6017 16.3408 16.5495 16.4408C16.4904 16.5538 16.395 16.6491 16.2043 16.8399L15.8953 17.1489C15.3902 17.654 15.1376 17.9065 14.8791 17.9523C14.6534 17.9922 14.4212 17.9374 14.2372 17.8007C14.0264 17.6442 13.9135 17.3054 13.6876 16.6277L12.0128 11.6033L9.22499 14.391C9.05859 14.5575 8.97539 14.6407 8.91973 14.7386C8.87042 14.8254 8.83711 14.9204 8.82139 15.019C8.80364 15.1303 8.81664 15.2472 8.84263 15.4811L8.99572 16.8589C9.0217 17.0928 9.0347 17.2098 9.01695 17.321C9.00123 17.4196 8.96792 17.5146 8.91861 17.6014C8.86295 17.6994 8.77975 17.7826 8.61335 17.949L8.44876 18.1136C8.05454 18.5078 7.85744 18.7049 7.63839 18.762C7.44627 18.812 7.24259 18.7919 7.06402 18.7051C6.86042 18.6062 6.7058 18.3742 6.39655 17.9104L5.08962 15.9499C5.03436 15.8671 5.00674 15.8256 4.97467 15.7881C4.94618 15.7547 4.9151 15.7236 4.88171 15.6951C4.84413 15.663 4.80269 15.6354 4.71982 15.5801L2.75941 14.2732C2.29554 13.964 2.0636 13.8093 1.96467 13.6057C1.87789 13.4272 1.85773 13.2235 1.90779 13.0314C1.96488 12.8123 2.16199 12.6152 2.5562 12.221L2.72079 12.0564C2.8872 11.89 2.9704 11.8068 3.06838 11.7512C3.15518 11.7018 3.25014 11.6685 3.34872 11.6528C3.46 11.6351 3.57695 11.6481 3.81084 11.674L5.18867 11.8271C5.42256 11.8531 5.5395 11.8661 5.65078 11.8484C5.74937 11.8327 5.84432 11.7993 5.93113 11.75C6.02911 11.6944 6.11231 11.6112 6.27872 11.4448L9.06648 8.657L4.04209 6.9822C3.3644 6.75631 3.02555 6.64336 2.86906 6.4326C2.7324 6.24857 2.67759 6.01637 2.71751 5.79066C2.76323 5.53216 3.01579 5.2796 3.52091 4.77448L3.82989 4.46551C4.02063 4.27476 4.11601 4.17939 4.229 4.12031C4.32901 4.06803 4.4386 4.0366 4.55111 4.02793C4.67824 4.01814 4.80967 4.04847 5.07251 4.10913L11.2885 5.54358C11.5468 5.60318 11.6759 5.63299 11.8006 5.62412C11.921 5.61556 12.0381 5.58095 12.1438 5.52269C12.2532 5.46234 12.3454 5.36712 12.5298 5.17667L14.7882 2.84399Z" stroke="white" stroke-width="1.25" stroke-linecap="round" stroke-linejoin="round"/>
</svg>
