<svg width="80" height="80" viewBox="0 0 80 80" fill="none" xmlns="http://www.w3.org/2000/svg">
<g filter="url(#filter0_bd_1369_41408)">
<rect x="12" y="8" width="48" height="48" rx="24" fill="url(#paint0_radial_1369_41408)" fill-opacity="0.5" shape-rendering="crispEdges"/>
<rect x="12" y="8" width="48" height="48" rx="24" fill="black" fill-opacity="0.5" shape-rendering="crispEdges"/>
<rect x="12.5" y="8.5" width="47" height="47" rx="23.5" stroke="url(#paint1_linear_1369_41408)" shape-rendering="crispEdges"/>
<rect x="12.5" y="8.5" width="47" height="47" rx="23.5" stroke="black" stroke-opacity="0.2" shape-rendering="crispEdges"/>
<path d="M36 45.3333C34.1555 45.3333 32.4222 44.9831 30.8 44.2826C29.1777 43.5822 27.7666 42.6324 26.5666 41.4333C25.3666 40.2342 24.4168 38.8231 23.7173 37.2C23.0177 35.5769 22.6675 33.8435 22.6666 32C22.6666 30.3333 22.9888 28.7 23.6333 27.1C24.2777 25.5 25.1777 24.072 26.3333 22.816C27.4888 21.56 28.8777 20.5489 30.5 19.7826C32.1222 19.0164 33.9 18.6333 35.8333 18.6333C36.3 18.6333 36.7777 18.6555 37.2666 18.7C37.7555 18.7444 38.2555 18.8222 38.7666 18.9333C38.5666 19.9333 38.6333 20.8777 38.9666 21.7666C39.3 22.6555 39.8 23.3942 40.4666 23.9826C41.1333 24.5711 41.928 24.9769 42.8506 25.2C43.7733 25.4231 44.7231 25.3675 45.7 25.0333C45.1222 26.3444 45.2057 27.6 45.9506 28.8C46.6955 30 47.8008 30.6222 49.2666 30.6666C49.2888 30.9111 49.3057 31.1386 49.3173 31.3493C49.3288 31.56 49.3342 31.788 49.3333 32.0333C49.3333 33.8555 48.9831 35.572 48.2826 37.1826C47.5822 38.7933 46.6324 40.2044 45.4333 41.416C44.2342 42.6275 42.8231 43.5831 41.2 44.2826C39.5768 44.9822 37.8435 45.3324 36 45.3333ZM34 29.3333C34.5555 29.3333 35.028 29.1391 35.4173 28.7506C35.8066 28.3622 36.0008 27.8897 36 27.3333C35.9991 26.7769 35.8048 26.3049 35.4173 25.9173C35.0297 25.5297 34.5573 25.3351 34 25.3333C33.4426 25.3315 32.9706 25.5262 32.584 25.9173C32.1973 26.3084 32.0026 26.7804 32 27.3333C31.9973 27.8862 32.192 28.3586 32.584 28.7506C32.976 29.1426 33.448 29.3369 34 29.3333ZM31.3333 36C31.8888 36 32.3613 35.8057 32.7506 35.4173C33.14 35.0289 33.3342 34.5564 33.3333 34C33.3324 33.4435 33.1382 32.9715 32.7506 32.584C32.3631 32.1964 31.8906 32.0017 31.3333 32C30.776 31.9982 30.304 32.1929 29.9173 32.584C29.5306 32.9751 29.336 33.4471 29.3333 34C29.3306 34.5529 29.5253 35.0253 29.9173 35.4173C30.3093 35.8093 30.7813 36.0035 31.3333 36ZM40 37.3333C40.3777 37.3333 40.6946 37.2053 40.9506 36.9493C41.2066 36.6933 41.3342 36.3769 41.3333 36C41.3324 35.6231 41.2044 35.3066 40.9493 35.0506C40.6942 34.7946 40.3777 34.6666 40 34.6666C39.6222 34.6666 39.3057 34.7946 39.0506 35.0506C38.7955 35.3066 38.6675 35.6231 38.6666 36C38.6657 36.3769 38.7937 36.6937 39.0506 36.9506C39.3075 37.2075 39.624 37.3351 40 37.3333ZM36 42.6666C38.7111 42.6666 41.1168 41.7333 43.2173 39.8666C45.3177 38 46.4675 35.6222 46.6666 32.7333C45.5555 32.2444 44.6831 31.5777 44.0493 30.7333C43.4155 29.8889 42.988 28.9444 42.7666 27.9C41.0555 27.6555 39.5888 26.9222 38.3666 25.7C37.1444 24.4777 36.3888 23.0111 36.1 21.3C34.3222 21.2555 32.7613 21.5777 31.4173 22.2666C30.0733 22.9555 28.9506 23.8391 28.0493 24.9173C27.148 25.9955 26.4702 27.1675 26.016 28.4333C25.5617 29.6991 25.3342 30.888 25.3333 32C25.3333 34.9555 26.3724 37.4724 28.4506 39.5506C30.5288 41.6289 33.0453 42.6675 36 42.6666Z" fill="white"/>
</g>
<defs>
<filter id="filter0_bd_1369_41408" x="-12" y="-16" width="96" height="96" filterUnits="userSpaceOnUse" color-interpolation-filters="sRGB">
<feFlood flood-opacity="0" result="BackgroundImageFix"/>
<feGaussianBlur in="BackgroundImageFix" stdDeviation="12"/>
<feComposite in2="SourceAlpha" operator="in" result="effect1_backgroundBlur_1369_41408"/>
<feColorMatrix in="SourceAlpha" type="matrix" values="0 0 0 0 0 0 0 0 0 0 0 0 0 0 0 0 0 0 127 0" result="hardAlpha"/>
<feOffset dx="4" dy="8"/>
<feGaussianBlur stdDeviation="8"/>
<feComposite in2="hardAlpha" operator="out"/>
<feColorMatrix type="matrix" values="0 0 0 0 0 0 0 0 0 0 0 0 0 0 0 0 0 0 0.25 0"/>
<feBlend mode="normal" in2="effect1_backgroundBlur_1369_41408" result="effect2_dropShadow_1369_41408"/>
<feBlend mode="normal" in="SourceGraphic" in2="effect2_dropShadow_1369_41408" result="shape"/>
</filter>
<radialGradient id="paint0_radial_1369_41408" cx="0" cy="0" r="1" gradientUnits="userSpaceOnUse" gradientTransform="translate(14.0471 11.1698) rotate(42.8208) scale(58.1271 107.29)">
<stop stop-color="#CFCFCF" stop-opacity="0.5"/>
<stop offset="1" stop-color="#6B6B6B" stop-opacity="0.3"/>
</radialGradient>
<linearGradient id="paint1_linear_1369_41408" x1="20.0118" y1="8" x2="50.4954" y2="43.5813" gradientUnits="userSpaceOnUse">
<stop stop-color="#DEDEDE" stop-opacity="0.5"/>
<stop offset="1" stop-color="#666666" stop-opacity="0.5"/>
</linearGradient>
</defs>
</svg>
