<svg width="18" height="18" viewBox="0 0 18 18" fill="none" xmlns="http://www.w3.org/2000/svg">
<path d="M6.08329 11.2223C6.08329 12.2962 6.95385 13.1667 8.02774 13.1667H9.83329C10.9839 13.1667 11.9166 12.234 11.9166 11.0834C11.9166 9.93282 10.9839 9.00008 9.83329 9.00008H8.16663C7.01603 9.00008 6.08329 8.06734 6.08329 6.91675C6.08329 5.76615 7.01603 4.83341 8.16663 4.83341H9.97218C11.0461 4.83341 11.9166 5.70397 11.9166 6.77786M8.99996 3.58341V4.83341M8.99996 13.1667V14.4167M17.3333 9.00008C17.3333 13.6025 13.6023 17.3334 8.99996 17.3334C4.39759 17.3334 0.666626 13.6025 0.666626 9.00008C0.666626 4.39771 4.39759 0.666748 8.99996 0.666748C13.6023 0.666748 17.3333 4.39771 17.3333 9.00008Z" stroke="white" stroke-width="1.25" stroke-linecap="round" stroke-linejoin="round"/>
</svg>
