<svg width="20" height="19" viewBox="0 0 20 19" fill="none" xmlns="http://www.w3.org/2000/svg">
<path d="M9.99997 18.0002H19M1 18.0002H2.67454C3.16372 18.0002 3.40832 18.0002 3.63849 17.945C3.84256 17.896 4.03765 17.8152 4.2166 17.7055C4.41843 17.5818 4.59138 17.4089 4.93729 17.063L17.5 4.50023C18.3285 3.6718 18.3285 2.32865 17.5 1.50023C16.6716 0.671799 15.3285 0.6718 14.5 1.50023L1.93726 14.063C1.59136 14.4089 1.4184 14.5818 1.29472 14.7837C1.18506 14.9626 1.10425 15.1577 1.05526 15.3618C1 15.5919 1 15.8365 1 16.3257V18.0002Z" stroke="white" stroke-width="1.5" stroke-linecap="round" stroke-linejoin="round"/>
</svg>
