<svg width="25" height="24" viewBox="0 0 25 24" fill="none" xmlns="http://www.w3.org/2000/svg">
<g clip-path="url(#clip0_2332_88912)">
<path d="M8.69381 0.788944C6.29583 1.62082 4.22782 3.19976 2.79354 5.29382C1.35925 7.38789 0.634289 9.88671 0.725135 12.4233C0.81598 14.9598 1.71785 17.4004 3.29826 19.3864C4.87868 21.3725 7.05434 22.7995 9.50568 23.4577C11.493 23.9705 13.5752 23.993 15.5732 23.5233C17.3832 23.1168 19.0565 22.2471 20.4294 20.9996C21.8583 19.6615 22.8955 17.9592 23.4294 16.0758C24.0098 14.0277 24.1131 11.8738 23.7313 9.77957H12.5713V14.4089H19.0344C18.9053 15.1473 18.6285 15.852 18.2206 16.4809C17.8127 17.1098 17.2822 17.6499 16.6607 18.0689C15.8715 18.591 14.9818 18.9423 14.0488 19.1002C13.1131 19.2742 12.1533 19.2742 11.2176 19.1002C10.2692 18.9041 9.37199 18.5127 8.58318 17.9508C7.31596 17.0538 6.36445 15.7794 5.86443 14.3096C5.35596 12.8122 5.35596 11.1888 5.86443 9.69144C6.22035 8.64185 6.80874 7.6862 7.58568 6.89582C8.47479 5.97472 9.60043 5.31631 10.8391 4.99284C12.0778 4.66936 13.3816 4.69331 14.6076 5.06207C15.5652 5.35605 16.441 5.8697 17.1651 6.56207C17.8938 5.83707 18.6213 5.11019 19.3476 4.38144C19.7226 3.98957 20.1313 3.61644 20.5007 3.21519C19.3955 2.18671 18.0982 1.38643 16.6832 0.860194C14.1064 -0.0754498 11.2869 -0.100594 8.69381 0.788944Z" fill="white"/>
<path d="M8.69396 0.789855C11.2868 -0.100288 14.1063 -0.0758051 16.6833 0.85923C18.0986 1.38904 19.3953 2.19318 20.499 3.22548C20.124 3.62673 19.7283 4.00173 19.3458 4.39173C18.6183 5.11798 17.8915 5.84173 17.1652 6.56298C16.4412 5.87061 15.5654 5.35696 14.6077 5.06298C13.3822 4.69293 12.0784 4.66759 10.8394 4.98975C9.60037 5.3119 8.47404 5.9691 7.58395 6.88923C6.80702 7.67961 6.21863 8.63526 5.8627 9.68486L1.97583 6.67548C3.3671 3.91653 5.77598 1.80615 8.69396 0.789855Z" fill="#E33629"/>
<path d="M0.944409 9.65605C1.15332 8.62067 1.50017 7.61798 1.97566 6.6748L5.86253 9.69168C5.35406 11.1891 5.35406 12.8124 5.86253 14.3098C4.56753 15.3098 3.27191 16.3148 1.97566 17.3248C0.785316 14.9554 0.422282 12.2557 0.944409 9.65605Z" fill="#F8BD00"/>
<path d="M12.5714 9.77832H23.7314C24.1131 11.8726 24.0099 14.0264 23.4295 16.0746C22.8956 17.958 21.8584 19.6602 20.4295 20.9983C19.1751 20.0196 17.9151 19.0483 16.6608 18.0696C17.2827 17.6501 17.8135 17.1094 18.2213 16.4798C18.6292 15.8503 18.9058 15.1448 19.0345 14.4058H12.5714C12.5695 12.8646 12.5714 11.3214 12.5714 9.77832Z" fill="#587DBD"/>
<path d="M1.97388 17.3246C3.27013 16.3246 4.56575 15.3196 5.86075 14.3096C6.36177 15.7799 7.31464 17.0544 8.58325 17.9508C9.37452 18.5101 10.2736 18.8983 11.2233 19.0908C12.159 19.2648 13.1188 19.2648 14.0545 19.0908C14.9875 18.9329 15.8772 18.5816 16.6664 18.0596C17.9208 19.0383 19.1808 20.0096 20.4351 20.9883C19.0624 22.2366 17.389 23.1068 15.5789 23.5139C13.5809 23.9836 11.4987 23.9611 9.51138 23.4483C7.93957 23.0286 6.47139 22.2888 5.19888 21.2752C3.85199 20.2059 2.75192 18.8583 1.97388 17.3246Z" fill="#319F43"/>
</g>
<defs>
<clipPath id="clip0_2332_88912">
<rect width="24" height="24" fill="white" transform="translate(0.333252)"/>
</clipPath>
</defs>
</svg>
