<svg width="32" height="32" viewBox="0 0 32 32" fill="none" xmlns="http://www.w3.org/2000/svg">
<path d="M4.71585 7.85345C8.4331 3.65345 13.7877 2.20115 16.0003 2C18.213 2.20115 23.5676 3.65345 27.2848 7.85345C26.7618 9.24138 26.3193 12.2345 28.7331 13.1034C28.371 17.9914 25.9452 27.2966 16.0003 30C6.05551 27.2966 3.62965 17.9914 3.26758 13.1034C5.68137 12.2345 5.23884 9.24138 4.71585 7.85345Z" fill="url(#paint0_linear_2001_28717)"/>
<g style="mix-blend-mode:overlay" filter="url(#filter0_f_2001_28717)">
<path d="M7.4893 10.9644C7.59218 10.1212 7.53238 9.28756 7.39903 8.55269C10.391 5.75085 14.2387 4.64546 16.0006 4.42651C17.7625 4.64546 21.6102 5.75085 24.6022 8.55269C24.4688 9.28756 24.409 10.1212 24.5119 10.9644C24.6507 12.1023 25.1225 13.3834 26.1711 14.3391C25.5193 18.8517 23.1023 25.2321 16.0006 27.4835C8.89888 25.2321 6.48189 18.8517 5.83008 14.3391C6.87874 13.3834 7.35047 12.1023 7.4893 10.9644Z" stroke="black" stroke-width="1.2069"/>
</g>
<mask id="mask0_2001_28717" style="mask-type:alpha" maskUnits="userSpaceOnUse" x="3" y="2" width="26" height="28">
<path d="M6.28907 10.8192C6.40423 9.87536 6.27403 8.92245 6.07474 8.16062C9.43879 4.69897 14.0147 3.42375 15.9984 3.21274C17.9821 3.42375 22.558 4.69897 25.922 8.16062C25.7227 8.92245 25.5925 9.87536 25.7077 10.8192C25.8405 11.9077 26.325 13.0733 27.4531 13.8102C26.9141 18.5991 24.4257 26.284 15.9984 28.7461C7.57108 26.284 5.08271 18.5991 4.54364 13.8102C5.67175 13.0733 6.15627 11.9077 6.28907 10.8192Z" stroke="#969696" stroke-width="2.41379"/>
</mask>
<g mask="url(#mask0_2001_28717)">
<path fill-rule="evenodd" clip-rule="evenodd" d="M7.48708 10.9654C7.58996 10.1222 7.53016 9.2886 7.39681 8.55373C10.3888 5.75189 14.2365 4.6465 15.9984 4.42755V2C13.7857 2.20115 8.43114 3.65345 4.7139 7.85345C5.23689 9.24138 5.67942 12.2345 3.26562 13.1034C3.62769 17.9914 6.05356 27.2966 15.9984 30V27.4845C8.89666 25.2331 6.47967 18.8527 5.82786 14.3402C6.87652 13.3844 7.34825 12.1033 7.48708 10.9654Z" fill="url(#paint1_linear_2001_28717)"/>
<path d="M26.1689 14.3402C25.5171 18.8527 23.1001 25.2331 15.9984 27.4845V30C25.9432 27.2966 28.3691 17.9914 28.7311 13.1034C26.3174 12.2345 26.7599 9.24138 27.2829 7.85345C23.5656 3.65345 18.211 2.20115 15.9984 2V4.42755C17.7603 4.6465 21.608 5.75189 24.6 8.55373C24.4666 9.2886 24.4068 10.1222 24.5097 10.9654C24.6485 12.1033 25.1202 13.3844 26.1689 14.3402Z" fill="url(#paint2_linear_2001_28717)"/>
<g style="mix-blend-mode:soft-light" filter="url(#filter1_f_2001_28717)">
<path d="M6.76562 23.9057C9.32425 25.7885 9.03861 23.1212 8.57597 21.5522L12.076 25.0522C8.11735 23.8936 8.57597 26.6212 9.30011 28.1298L6.76562 23.9057Z" fill="#FFFEFF"/>
</g>
<g filter="url(#filter2_f_2001_28717)">
<path d="M6.76562 23.9057C9.32425 25.7885 9.03861 23.1212 8.57597 21.5522L12.076 25.0522C8.11735 23.8936 8.57597 26.6212 9.30011 28.1298L6.76562 23.9057Z" fill="#FFFEFF"/>
</g>
<g style="mix-blend-mode:soft-light" filter="url(#filter3_f_2001_28717)">
<path d="M22.3967 3.32812C24.0863 5.64537 20.2645 5.50054 18.4139 5.07813L15.457 5.19881L23.2415 8.69882C22.6984 4.05226 27.1036 6.34537 27.2243 6.34537C27.3208 6.34537 24.0461 4.33387 22.3967 3.32812Z" fill="#FFFEFF"/>
</g>
<g filter="url(#filter4_f_2001_28717)">
<path d="M22.2992 3.44946C23.9165 5.63652 19.8539 5.55679 18.0826 5.1581L14.7324 5.95547L23.1078 8.51843C22.588 4.13292 26.8046 6.2972 26.9201 6.2972C27.0125 6.2972 23.878 4.39871 22.2992 3.44946Z" fill="#FFFEFF"/>
</g>
</g>
<path d="M7.4893 10.9644C7.59218 10.1212 7.53238 9.28756 7.39903 8.55269C10.391 5.75085 14.2387 4.64546 16.0006 4.42651C17.7625 4.64546 21.6102 5.75085 24.6022 8.55269C24.4688 9.28756 24.409 10.1212 24.5119 10.9644C24.6507 12.1023 25.1225 13.3834 26.1711 14.3391C25.5193 18.8517 23.1023 25.2321 16.0006 27.4835C8.89888 25.2321 6.48189 18.8517 5.83008 14.3391C6.87874 13.3834 7.35047 12.1023 7.4893 10.9644Z" stroke="url(#paint3_linear_2001_28717)" stroke-width="1.08621"/>
<g style="mix-blend-mode:soft-light" filter="url(#filter5_f_2001_28717)">
<path d="M7.4893 10.9644C7.59218 10.1212 7.53238 9.28756 7.39903 8.55269C10.391 5.75085 14.2387 4.64546 16.0006 4.42651C17.7625 4.64546 21.6102 5.75085 24.6022 8.55269C24.4688 9.28756 24.409 10.1212 24.5119 10.9644C24.6507 12.1023 25.1225 13.3834 26.1711 14.3391C25.5193 18.8517 23.1023 25.2321 16.0006 27.4835C8.89888 25.2321 6.48189 18.8517 5.83008 14.3391C6.87874 13.3834 7.35047 12.1023 7.4893 10.9644Z" stroke="url(#paint4_linear_2001_28717)" stroke-width="0.181034"/>
</g>
<g filter="url(#filter6_d_2001_28717)">
<path fill-rule="evenodd" clip-rule="evenodd" d="M13.5811 10.1157C13.6552 10.1898 13.6968 10.2903 13.6968 10.3951V11.192C14.0471 11.1852 14.4401 11.1852 14.882 11.1852H16.989C17.431 11.1852 17.8239 11.1852 18.1742 11.192V10.3951C18.1742 10.2903 18.2159 10.1898 18.29 10.1157C18.364 10.0416 18.4645 10 18.5693 10C18.6741 10 18.7746 10.0416 18.8487 10.1157C18.9227 10.1898 18.9644 10.2903 18.9644 10.3951V11.2268C19.7224 11.2879 20.2201 11.4365 20.5857 11.8025C20.9518 12.1681 21.1003 12.6654 21.1615 13.4239H10.7096C10.7707 12.6659 10.9193 12.1681 11.2854 11.8025C11.6509 11.4365 12.1482 11.2879 12.9067 11.2273V10.3951C12.9067 10.2903 12.9483 10.1898 13.0224 10.1157C13.0965 10.0416 13.197 10 13.3018 10C13.4066 10 13.507 10.0416 13.5811 10.1157ZM10.6748 14.2139C10.668 14.5642 10.668 14.9571 10.668 15.3991V16.4526C10.668 18.4389 10.668 19.4324 11.2853 20.0492C11.9021 20.6666 12.8956 20.6666 14.882 20.6666H16.989C18.9754 20.6666 19.9688 20.6666 20.5857 20.0492C21.203 19.4324 21.203 18.4389 21.203 16.4526V15.3991C21.203 14.9571 21.203 14.5642 21.1962 14.2139H10.6748ZM18.9417 16.2983C18.8429 16.3971 18.709 16.4526 18.5693 16.4526C18.4295 16.4526 18.2956 16.3971 18.1968 16.2983C18.098 16.1995 18.0425 16.0655 18.0425 15.9258C18.0425 15.7861 18.098 15.6521 18.1968 15.5533C18.2956 15.4546 18.4295 15.3991 18.5693 15.3991C18.709 15.3991 18.8429 15.4546 18.9417 15.5533C19.0405 15.6521 19.096 15.7861 19.096 15.9258C19.096 16.0655 19.0405 16.1995 18.9417 16.2983ZM18.9417 18.4053C18.8429 18.5041 18.709 18.5596 18.5693 18.5596C18.4295 18.5596 18.2956 18.5041 18.1968 18.4053C18.098 18.3065 18.0425 18.1725 18.0425 18.0328C18.0425 17.8931 18.098 17.7591 18.1968 17.6604C18.2956 17.5616 18.4295 17.5061 18.5693 17.5061C18.709 17.5061 18.8429 17.5616 18.9417 17.6604C19.0405 17.7591 19.096 17.8931 19.096 18.0328C19.096 18.1725 19.0405 18.3065 18.9417 18.4053ZM16.308 16.2983C16.4067 16.1995 16.4622 16.0655 16.4622 15.9258C16.4622 15.7861 16.4067 15.6521 16.308 15.5533C16.2092 15.4546 16.0752 15.3991 15.9355 15.3991C15.7958 15.3991 15.6618 15.4546 15.563 15.5533C15.4642 15.6521 15.4087 15.7861 15.4087 15.9258C15.4087 16.0655 15.4642 16.1995 15.563 16.2983C15.6618 16.3971 15.7958 16.4526 15.9355 16.4526C16.0752 16.4526 16.2092 16.3971 16.308 16.2983ZM16.308 18.4053C16.4067 18.3065 16.4622 18.1725 16.4622 18.0328C16.4622 17.8931 16.4067 17.7591 16.308 17.6604C16.2092 17.5616 16.0752 17.5061 15.9355 17.5061C15.7958 17.5061 15.6618 17.5616 15.563 17.6604C15.4642 17.7591 15.4087 17.8931 15.4087 18.0328C15.4087 18.1725 15.4642 18.3065 15.563 18.4053C15.6618 18.5041 15.7958 18.5596 15.9355 18.5596C16.0752 18.5596 16.2092 18.5041 16.308 18.4053ZM13.6742 16.2983C13.5754 16.3971 13.4414 16.4526 13.3017 16.4526C13.162 16.4526 13.028 16.3971 12.9293 16.2983C12.8305 16.1995 12.775 16.0655 12.775 15.9258C12.775 15.7861 12.8305 15.6521 12.9293 15.5533C13.028 15.4546 13.162 15.3991 13.3017 15.3991C13.4414 15.3991 13.5754 15.4546 13.6742 15.5533C13.773 15.6521 13.8285 15.7861 13.8285 15.9258C13.8285 16.0655 13.773 16.1995 13.6742 16.2983ZM13.6742 18.4053C13.5754 18.5041 13.4414 18.5596 13.3017 18.5596C13.162 18.5596 13.028 18.5041 12.9293 18.4053C12.8305 18.3065 12.775 18.1725 12.775 18.0328C12.775 17.8931 12.8305 17.7591 12.9293 17.6604C13.028 17.5616 13.162 17.5061 13.3017 17.5061C13.4414 17.5061 13.5754 17.5616 13.6742 17.6604C13.773 17.7591 13.8285 17.8931 13.8285 18.0328C13.8285 18.1725 13.773 18.3065 13.6742 18.4053Z" fill="url(#paint5_linear_2001_28717)"/>
</g>
<defs>
<filter id="filter0_f_2001_28717" x="5.34732" y="3.94376" width="21.3073" height="24.0224" filterUnits="userSpaceOnUse" color-interpolation-filters="sRGB">
<feFlood flood-opacity="0" result="BackgroundImageFix"/>
<feBlend mode="normal" in="SourceGraphic" in2="BackgroundImageFix" result="shape"/>
<feGaussianBlur stdDeviation="0.241379" result="effect1_foregroundBlur_2001_28717"/>
</filter>
<filter id="filter1_f_2001_28717" x="6.28287" y="21.0695" width="6.27606" height="7.54315" filterUnits="userSpaceOnUse" color-interpolation-filters="sRGB">
<feFlood flood-opacity="0" result="BackgroundImageFix"/>
<feBlend mode="normal" in="SourceGraphic" in2="BackgroundImageFix" result="shape"/>
<feGaussianBlur stdDeviation="0.241379" result="effect1_foregroundBlur_2001_28717"/>
</filter>
<filter id="filter2_f_2001_28717" x="6.28287" y="21.0695" width="6.27606" height="7.54315" filterUnits="userSpaceOnUse" color-interpolation-filters="sRGB">
<feFlood flood-opacity="0" result="BackgroundImageFix"/>
<feBlend mode="normal" in="SourceGraphic" in2="BackgroundImageFix" result="shape"/>
<feGaussianBlur stdDeviation="0.241379" result="effect1_foregroundBlur_2001_28717"/>
</filter>
<filter id="filter3_f_2001_28717" x="14.9743" y="2.84537" width="12.735" height="6.33612" filterUnits="userSpaceOnUse" color-interpolation-filters="sRGB">
<feFlood flood-opacity="0" result="BackgroundImageFix"/>
<feBlend mode="normal" in="SourceGraphic" in2="BackgroundImageFix" result="shape"/>
<feGaussianBlur stdDeviation="0.241379" result="effect1_foregroundBlur_2001_28717"/>
</filter>
<filter id="filter4_f_2001_28717" x="14.2497" y="2.9667" width="13.155" height="6.03436" filterUnits="userSpaceOnUse" color-interpolation-filters="sRGB">
<feFlood flood-opacity="0" result="BackgroundImageFix"/>
<feBlend mode="normal" in="SourceGraphic" in2="BackgroundImageFix" result="shape"/>
<feGaussianBlur stdDeviation="0.241379" result="effect1_foregroundBlur_2001_28717"/>
</filter>
<filter id="filter5_f_2001_28717" x="5.61369" y="4.21452" width="20.7746" height="23.4845" filterUnits="userSpaceOnUse" color-interpolation-filters="sRGB">
<feFlood flood-opacity="0" result="BackgroundImageFix"/>
<feBlend mode="normal" in="SourceGraphic" in2="BackgroundImageFix" result="shape"/>
<feGaussianBlur stdDeviation="0.0603448" result="effect1_foregroundBlur_2001_28717"/>
</filter>
<filter id="filter6_d_2001_28717" x="7.45023" y="8.39113" width="16.9706" height="17.102" filterUnits="userSpaceOnUse" color-interpolation-filters="sRGB">
<feFlood flood-opacity="0" result="BackgroundImageFix"/>
<feColorMatrix in="SourceAlpha" type="matrix" values="0 0 0 0 0 0 0 0 0 0 0 0 0 0 0 0 0 0 127 0" result="hardAlpha"/>
<feOffset dy="1.60887"/>
<feGaussianBlur stdDeviation="1.60887"/>
<feComposite in2="hardAlpha" operator="out"/>
<feColorMatrix type="matrix" values="0 0 0 0 0 0 0 0 0 0 0 0 0 0 0 0 0 0 0.25 0"/>
<feBlend mode="normal" in2="BackgroundImageFix" result="effect1_dropShadow_2001_28717"/>
<feBlend mode="normal" in="SourceGraphic" in2="effect1_dropShadow_2001_28717" result="shape"/>
</filter>
<linearGradient id="paint0_linear_2001_28717" x1="16.0003" y1="2" x2="16.0003" y2="30" gradientUnits="userSpaceOnUse">
<stop stop-color="#FFA9BA"/>
<stop offset="0.315108" stop-color="#FF476C"/>
<stop offset="1" stop-color="#7E1B2F"/>
</linearGradient>
<linearGradient id="paint1_linear_2001_28717" x1="15.9984" y1="2" x2="15.9984" y2="30" gradientUnits="userSpaceOnUse">
<stop stop-color="#FFEDF1"/>
<stop offset="1" stop-color="#E6002E"/>
</linearGradient>
<linearGradient id="paint2_linear_2001_28717" x1="15.9984" y1="2" x2="15.9984" y2="30" gradientUnits="userSpaceOnUse">
<stop stop-color="#FFC9D4"/>
<stop offset="1" stop-color="#AD0023"/>
</linearGradient>
<linearGradient id="paint3_linear_2001_28717" x1="16.0006" y1="4.42651" x2="16.0006" y2="27.4835" gradientUnits="userSpaceOnUse">
<stop stop-color="#F68CA1"/>
<stop offset="1" stop-color="#FFC7D2"/>
</linearGradient>
<linearGradient id="paint4_linear_2001_28717" x1="16.0006" y1="4.42651" x2="16.0006" y2="27.4835" gradientUnits="userSpaceOnUse">
<stop stop-color="white" stop-opacity="0.3"/>
<stop offset="1" stop-color="white"/>
</linearGradient>
<linearGradient id="paint5_linear_2001_28717" x1="19.4669" y1="10.8044" x2="14.6276" y2="18.8246" gradientUnits="userSpaceOnUse">
<stop stop-color="white"/>
<stop offset="1" stop-color="#D9D9D9"/>
</linearGradient>
</defs>
</svg>
