<svg width="32" height="32" viewBox="0 0 32 32" fill="none" xmlns="http://www.w3.org/2000/svg">
<path d="M4.71585 7.85345C8.4331 3.65345 13.7877 2.20115 16.0003 2C18.213 2.20115 23.5676 3.65345 27.2848 7.85345C26.7618 9.24138 26.3193 12.2345 28.7331 13.1034C28.371 17.9914 25.9452 27.2966 16.0003 30C6.05551 27.2966 3.62965 17.9914 3.26758 13.1034C5.68137 12.2345 5.23884 9.24138 4.71585 7.85345Z" fill="url(#paint0_linear_2001_28669)"/>
<g style="mix-blend-mode:overlay" filter="url(#filter0_f_2001_28669)">
<path d="M7.4893 10.9644C7.59218 10.1212 7.53238 9.28756 7.39903 8.55269C10.391 5.75085 14.2387 4.64546 16.0006 4.42651C17.7625 4.64546 21.6102 5.75085 24.6022 8.55269C24.4688 9.28756 24.409 10.1212 24.5119 10.9644C24.6507 12.1023 25.1225 13.3834 26.1711 14.3391C25.5193 18.8517 23.1023 25.2321 16.0006 27.4835C8.89888 25.2321 6.48189 18.8517 5.83008 14.3391C6.87874 13.3834 7.35047 12.1023 7.4893 10.9644Z" stroke="black" stroke-width="1.2069"/>
</g>
<mask id="mask0_2001_28669" style="mask-type:alpha" maskUnits="userSpaceOnUse" x="3" y="2" width="26" height="28">
<path d="M6.28907 10.8192C6.40423 9.87536 6.27403 8.92245 6.07474 8.16062C9.43879 4.69897 14.0147 3.42375 15.9984 3.21274C17.9821 3.42375 22.558 4.69897 25.922 8.16062C25.7227 8.92245 25.5925 9.87536 25.7077 10.8192C25.8405 11.9077 26.325 13.0733 27.4531 13.8102C26.9141 18.5991 24.4257 26.284 15.9984 28.7461C7.57108 26.284 5.08271 18.5991 4.54364 13.8102C5.67175 13.0733 6.15627 11.9077 6.28907 10.8192Z" stroke="#969696" stroke-width="2.41379"/>
</mask>
<g mask="url(#mask0_2001_28669)">
<path fill-rule="evenodd" clip-rule="evenodd" d="M7.48708 10.9654C7.58996 10.1222 7.53016 9.2886 7.39681 8.55373C10.3888 5.75189 14.2365 4.6465 15.9984 4.42755V2C13.7857 2.20115 8.43114 3.65345 4.7139 7.85345C5.23689 9.24138 5.67942 12.2345 3.26562 13.1034C3.62769 17.9914 6.05356 27.2966 15.9984 30V27.4845C8.89666 25.2331 6.47967 18.8527 5.82786 14.3402C6.87652 13.3844 7.34825 12.1033 7.48708 10.9654Z" fill="url(#paint1_linear_2001_28669)"/>
<path d="M26.1689 14.3402C25.5171 18.8527 23.1001 25.2331 15.9984 27.4845V30C25.9432 27.2966 28.3691 17.9914 28.7311 13.1034C26.3174 12.2345 26.7599 9.24138 27.2829 7.85345C23.5656 3.65345 18.211 2.20115 15.9984 2V4.42755C17.7603 4.6465 21.608 5.75189 24.6 8.55373C24.4666 9.2886 24.4068 10.1222 24.5097 10.9654C24.6485 12.1033 25.1202 13.3844 26.1689 14.3402Z" fill="url(#paint2_linear_2001_28669)"/>
<g style="mix-blend-mode:soft-light" filter="url(#filter1_f_2001_28669)">
<path d="M6.76562 23.9057C9.32425 25.7885 9.03861 23.1212 8.57597 21.5522L12.076 25.0522C8.11735 23.8936 8.57597 26.6212 9.30011 28.1298L6.76562 23.9057Z" fill="#FFFEFF"/>
</g>
<g filter="url(#filter2_f_2001_28669)">
<path d="M6.76562 23.9057C9.32425 25.7885 9.03861 23.1212 8.57597 21.5522L12.076 25.0522C8.11735 23.8936 8.57597 26.6212 9.30011 28.1298L6.76562 23.9057Z" fill="#FFFEFF"/>
</g>
<g style="mix-blend-mode:soft-light" filter="url(#filter3_f_2001_28669)">
<path d="M22.3967 3.32812C24.0863 5.64537 20.2645 5.50054 18.4139 5.07813L15.457 5.19881L23.2415 8.69882C22.6984 4.05226 27.1036 6.34537 27.2243 6.34537C27.3208 6.34537 24.0461 4.33387 22.3967 3.32812Z" fill="#FFFEFF"/>
</g>
<g filter="url(#filter4_f_2001_28669)">
<path d="M22.2992 3.44946C23.9165 5.63652 19.8539 5.55679 18.0826 5.1581L14.7324 5.95547L23.1078 8.51843C22.588 4.13292 26.8046 6.2972 26.9201 6.2972C27.0125 6.2972 23.878 4.39871 22.2992 3.44946Z" fill="#FFFEFF"/>
</g>
</g>
<path d="M7.4893 10.9644C7.59218 10.1212 7.53238 9.28756 7.39903 8.55269C10.391 5.75085 14.2387 4.64546 16.0006 4.42651C17.7625 4.64546 21.6102 5.75085 24.6022 8.55269C24.4688 9.28756 24.409 10.1212 24.5119 10.9644C24.6507 12.1023 25.1225 13.3834 26.1711 14.3391C25.5193 18.8517 23.1023 25.2321 16.0006 27.4835C8.89888 25.2321 6.48189 18.8517 5.83008 14.3391C6.87874 13.3834 7.35047 12.1023 7.4893 10.9644Z" stroke="url(#paint3_linear_2001_28669)" stroke-width="1.08621"/>
<g style="mix-blend-mode:soft-light" filter="url(#filter5_f_2001_28669)">
<path d="M7.4893 10.9644C7.59218 10.1212 7.53238 9.28756 7.39903 8.55269C10.391 5.75085 14.2387 4.64546 16.0006 4.42651C17.7625 4.64546 21.6102 5.75085 24.6022 8.55269C24.4688 9.28756 24.409 10.1212 24.5119 10.9644C24.6507 12.1023 25.1225 13.3834 26.1711 14.3391C25.5193 18.8517 23.1023 25.2321 16.0006 27.4835C8.89888 25.2321 6.48189 18.8517 5.83008 14.3391C6.87874 13.3834 7.35047 12.1023 7.4893 10.9644Z" stroke="url(#paint4_linear_2001_28669)" stroke-width="0.181034"/>
</g>
<g filter="url(#filter6_d_2001_28669)">
<path d="M19.0289 10.4054C19.5498 9.87095 20.4105 9.86404 20.94 10.39C21.4551 10.9016 21.4646 11.728 20.9616 12.2512L19.4613 13.8116C19.3437 13.934 19.2849 13.9951 19.2487 14.0667C19.2166 14.1302 19.1976 14.1993 19.1926 14.27C19.1869 14.35 19.2061 14.4324 19.2443 14.5972L20.1773 18.6127C20.2166 18.7818 20.2362 18.8664 20.2299 18.9482C20.2243 19.0206 20.2039 19.0912 20.17 19.1555C20.1318 19.2282 20.07 19.2896 19.9464 19.4124L19.7462 19.6112C19.4189 19.9363 19.2553 20.0988 19.0878 20.1282C18.9416 20.1539 18.7911 20.1187 18.6719 20.0307C18.5353 19.93 18.4621 19.7119 18.3158 19.2758L17.2306 16.0424L15.4244 17.8364C15.3166 17.9435 15.2627 17.9971 15.2266 18.0601C15.1947 18.116 15.1731 18.1771 15.1629 18.2405C15.1514 18.3122 15.1598 18.3874 15.1767 18.5379L15.2759 19.4246C15.2927 19.5752 15.3011 19.6504 15.2896 19.722C15.2794 19.7855 15.2578 19.8466 15.2259 19.9024C15.1898 19.9655 15.1359 20.019 15.0281 20.1261L14.9215 20.2321C14.666 20.4857 14.5383 20.6126 14.3964 20.6493C14.2719 20.6816 14.14 20.6686 14.0243 20.6127C13.8924 20.5491 13.7922 20.3998 13.5918 20.1013L12.745 18.8397C12.7092 18.7863 12.6913 18.7597 12.6705 18.7355C12.6521 18.714 12.6319 18.694 12.6103 18.6757C12.586 18.655 12.5591 18.6372 12.5054 18.6017L11.2352 17.7606C10.9347 17.5616 10.7844 17.4621 10.7203 17.3311C10.6641 17.2161 10.651 17.0851 10.6835 16.9614C10.7205 16.8205 10.8482 16.6936 11.1036 16.4399L11.2102 16.334C11.318 16.2269 11.3719 16.1734 11.4354 16.1375C11.4917 16.1058 11.5532 16.0844 11.6171 16.0743C11.6892 16.0628 11.7649 16.0712 11.9165 16.0879L12.8092 16.1864C12.9607 16.2032 13.0365 16.2115 13.1086 16.2001C13.1725 16.19 13.234 16.1686 13.2903 16.1368C13.3537 16.101 13.4076 16.0475 13.5155 15.9404L15.3217 14.1463L12.0663 13.0685C11.6272 12.9231 11.4077 12.8504 11.3063 12.7148C11.2177 12.5964 11.1822 12.4469 11.2081 12.3017C11.2377 12.1353 11.4014 11.9728 11.7286 11.6477L11.9288 11.4489C12.0524 11.3261 12.1142 11.2647 12.1874 11.2267C12.2522 11.1931 12.3232 11.1729 12.3961 11.1673C12.4785 11.161 12.5636 11.1805 12.7339 11.2195L16.7614 12.1427C16.9287 12.181 17.0124 12.2002 17.0932 12.1945C17.1712 12.189 17.247 12.1667 17.3155 12.1292C17.3865 12.0904 17.4462 12.0291 17.5657 11.9065L19.0289 10.4054Z" fill="url(#paint5_linear_2001_28669)"/>
</g>
<defs>
<filter id="filter0_f_2001_28669" x="5.34732" y="3.94376" width="21.3073" height="24.0224" filterUnits="userSpaceOnUse" color-interpolation-filters="sRGB">
<feFlood flood-opacity="0" result="BackgroundImageFix"/>
<feBlend mode="normal" in="SourceGraphic" in2="BackgroundImageFix" result="shape"/>
<feGaussianBlur stdDeviation="0.241379" result="effect1_foregroundBlur_2001_28669"/>
</filter>
<filter id="filter1_f_2001_28669" x="6.28287" y="21.0695" width="6.27606" height="7.54315" filterUnits="userSpaceOnUse" color-interpolation-filters="sRGB">
<feFlood flood-opacity="0" result="BackgroundImageFix"/>
<feBlend mode="normal" in="SourceGraphic" in2="BackgroundImageFix" result="shape"/>
<feGaussianBlur stdDeviation="0.241379" result="effect1_foregroundBlur_2001_28669"/>
</filter>
<filter id="filter2_f_2001_28669" x="6.28287" y="21.0695" width="6.27606" height="7.54315" filterUnits="userSpaceOnUse" color-interpolation-filters="sRGB">
<feFlood flood-opacity="0" result="BackgroundImageFix"/>
<feBlend mode="normal" in="SourceGraphic" in2="BackgroundImageFix" result="shape"/>
<feGaussianBlur stdDeviation="0.241379" result="effect1_foregroundBlur_2001_28669"/>
</filter>
<filter id="filter3_f_2001_28669" x="14.9743" y="2.84537" width="12.735" height="6.33612" filterUnits="userSpaceOnUse" color-interpolation-filters="sRGB">
<feFlood flood-opacity="0" result="BackgroundImageFix"/>
<feBlend mode="normal" in="SourceGraphic" in2="BackgroundImageFix" result="shape"/>
<feGaussianBlur stdDeviation="0.241379" result="effect1_foregroundBlur_2001_28669"/>
</filter>
<filter id="filter4_f_2001_28669" x="14.2497" y="2.9667" width="13.155" height="6.03436" filterUnits="userSpaceOnUse" color-interpolation-filters="sRGB">
<feFlood flood-opacity="0" result="BackgroundImageFix"/>
<feBlend mode="normal" in="SourceGraphic" in2="BackgroundImageFix" result="shape"/>
<feGaussianBlur stdDeviation="0.241379" result="effect1_foregroundBlur_2001_28669"/>
</filter>
<filter id="filter5_f_2001_28669" x="5.61369" y="4.21452" width="20.7746" height="23.4845" filterUnits="userSpaceOnUse" color-interpolation-filters="sRGB">
<feFlood flood-opacity="0" result="BackgroundImageFix"/>
<feBlend mode="normal" in="SourceGraphic" in2="BackgroundImageFix" result="shape"/>
<feGaussianBlur stdDeviation="0.0603448" result="effect1_foregroundBlur_2001_28669"/>
</filter>
<filter id="filter6_d_2001_28669" x="7.44828" y="8.39113" width="17.1015" height="17.1022" filterUnits="userSpaceOnUse" color-interpolation-filters="sRGB">
<feFlood flood-opacity="0" result="BackgroundImageFix"/>
<feColorMatrix in="SourceAlpha" type="matrix" values="0 0 0 0 0 0 0 0 0 0 0 0 0 0 0 0 0 0 127 0" result="hardAlpha"/>
<feOffset dy="1.60887"/>
<feGaussianBlur stdDeviation="1.60887"/>
<feComposite in2="hardAlpha" operator="out"/>
<feColorMatrix type="matrix" values="0 0 0 0 0 0 0 0 0 0 0 0 0 0 0 0 0 0 0.25 0"/>
<feBlend mode="normal" in2="BackgroundImageFix" result="effect1_dropShadow_2001_28669"/>
<feBlend mode="normal" in="SourceGraphic" in2="effect1_dropShadow_2001_28669" result="shape"/>
</filter>
<linearGradient id="paint0_linear_2001_28669" x1="16.0003" y1="2" x2="16.0003" y2="30" gradientUnits="userSpaceOnUse">
<stop stop-color="#A9CAFF"/>
<stop offset="0.315108" stop-color="#478EFF"/>
<stop offset="1" stop-color="#1B417E"/>
</linearGradient>
<linearGradient id="paint1_linear_2001_28669" x1="15.9984" y1="2" x2="15.9984" y2="30" gradientUnits="userSpaceOnUse">
<stop stop-color="#EDF4FF"/>
<stop offset="1" stop-color="#1A71FF"/>
</linearGradient>
<linearGradient id="paint2_linear_2001_28669" x1="15.9984" y1="2" x2="15.9984" y2="30" gradientUnits="userSpaceOnUse">
<stop stop-color="#C9DEFF"/>
<stop offset="1" stop-color="#0056E0"/>
</linearGradient>
<linearGradient id="paint3_linear_2001_28669" x1="16.0006" y1="4.42651" x2="16.0006" y2="27.4835" gradientUnits="userSpaceOnUse">
<stop stop-color="#8CB5F6"/>
<stop offset="1" stop-color="#C7DCFF"/>
</linearGradient>
<linearGradient id="paint4_linear_2001_28669" x1="16.0006" y1="4.42651" x2="16.0006" y2="27.4835" gradientUnits="userSpaceOnUse">
<stop stop-color="white" stop-opacity="0.3"/>
<stop offset="1" stop-color="white"/>
</linearGradient>
<linearGradient id="paint5_linear_2001_28669" x1="19.5749" y1="10.8044" x2="14.7637" y2="18.8775" gradientUnits="userSpaceOnUse">
<stop stop-color="white"/>
<stop offset="1" stop-color="#D9D9D9"/>
</linearGradient>
</defs>
</svg>
