<svg width="40" height="24" viewBox="0 0 40 24" fill="none" xmlns="http://www.w3.org/2000/svg">
<g clip-path="url(#clip0_2052_95774)">
<path d="M25.2306 2.57129H14.7529V21.3954H25.2306V2.57129Z" fill="#FF5A00"/>
<path d="M15.4495 11.9841C15.4495 8.15959 17.2474 4.76518 20.0063 2.572C17.9759 0.975584 15.4146 0.0107422 12.6208 0.0107422C6.00249 0.0107422 0.647461 5.3658 0.647461 11.9841C0.647461 18.6024 6.00249 23.9575 12.6208 23.9575C15.4146 23.9575 17.9759 22.9926 20.0063 21.3961C17.2435 19.2339 15.4495 15.8086 15.4495 11.9841Z" fill="#EB001B"/>
<path d="M39.3657 11.9841C39.3657 18.6024 34.0106 23.9575 27.3924 23.9575C24.5986 23.9575 22.0372 22.9926 20.0068 21.3961C22.8006 19.1991 24.5637 15.8086 24.5637 11.9841C24.5637 8.15959 22.7657 4.76518 20.0068 2.572C22.0334 0.975584 24.5947 0.0107422 27.3884 0.0107422C34.0106 0.0107422 39.3657 5.40069 39.3657 11.9841Z" fill="#F79E1B"/>
</g>
<defs>
<clipPath id="clip0_2052_95774">
<rect width="38.8276" height="24" fill="white" transform="translate(0.585938)"/>
</clipPath>
</defs>
</svg>
