<svg width="25" height="24" viewBox="0 0 25 24" fill="none" xmlns="http://www.w3.org/2000/svg">
<path d="M8.17359 19.7458H4.27546C4.00476 19.7458 3.7882 19.4751 3.84234 19.2044L6.44109 2.74563C6.49523 2.36665 6.82007 2.09595 7.19906 2.09595H13.8042C18.352 2.25837 19.5973 4.58642 18.7851 8.1597" fill="#002C8A"/>
<path d="M18.9749 7.0769C20.5991 7.94315 20.9781 9.56737 20.4367 11.733C19.7329 14.9273 17.6214 16.2808 14.5354 16.335L13.6691 16.3891C13.3443 16.3891 13.1277 16.6057 13.0736 16.9305L12.3698 21.2076C12.3156 21.5866 11.9908 21.8573 11.6118 21.8573H8.36335C8.09265 21.8573 7.87609 21.5866 7.93023 21.3159L9.12132 13.5738L18.9749 7.0769Z" fill="#009BE1"/>
<path d="M9.05664 13.9526L10.1395 7.07675C10.175 6.91391 10.2632 6.76731 10.3904 6.65966C10.5176 6.552 10.6768 6.48928 10.8433 6.4812H16.0408C17.286 6.4812 18.2064 6.69776 18.9644 7.07675C18.6937 9.45894 17.5567 13.3029 12.0344 13.4112H9.65219C9.38148 13.4112 9.11078 13.6278 9.05664 13.9526Z" fill="#001F6B"/>
</svg>
