<svg width="18" height="16" viewBox="0 0 18 16" fill="none" xmlns="http://www.w3.org/2000/svg">
<path d="M7.33268 4.66659V3.83325M7.33268 8.41659V7.58325M7.33268 12.1666V11.3333M3.33268 1.33325H14.666C15.5994 1.33325 16.0661 1.33325 16.4227 1.51491C16.7363 1.6747 16.9912 1.92966 17.151 2.24327C17.3327 2.59979 17.3327 3.0665 17.3327 3.99992V5.08325C15.7219 5.08325 14.416 6.38909 14.416 7.99992C14.416 9.61075 15.7219 10.9166 17.3327 10.9166V11.9999C17.3327 12.9333 17.3327 13.4 17.151 13.7566C16.9912 14.0702 16.7363 14.3251 16.4227 14.4849C16.0661 14.6666 15.5994 14.6666 14.666 14.6666H3.33268C2.39926 14.6666 1.93255 14.6666 1.57603 14.4849C1.26243 14.3251 1.00746 14.0702 0.847671 13.7566C0.666016 13.4 0.666016 12.9333 0.666016 11.9999V10.9166C2.27685 10.9166 3.58268 9.61075 3.58268 7.99992C3.58268 6.38909 2.27685 5.08325 0.666016 5.08325V3.99992C0.666016 3.0665 0.666016 2.59979 0.847671 2.24327C1.00746 1.92966 1.26243 1.6747 1.57603 1.51491C1.93255 1.33325 2.39926 1.33325 3.33268 1.33325Z" stroke="white" stroke-width="1.25" stroke-linecap="round" stroke-linejoin="round"/>
</svg>
