<svg width="48" height="18" viewBox="0 0 48 18" fill="none" xmlns="http://www.w3.org/2000/svg">
<path d="M31.3904 1.72852C28.0965 1.72852 25.1529 3.43626 25.1529 6.59146C25.1529 10.2099 30.3735 10.4598 30.3735 12.2776C30.3735 13.043 29.4965 13.7282 27.9989 13.7282C25.8733 13.7282 24.2847 12.7708 24.2847 12.7708L23.6049 15.9548C23.6049 15.9548 25.435 16.7635 27.8647 16.7635C31.466 16.7635 34.2997 14.9719 34.2997 11.7627C34.2997 7.93919 29.0575 7.69669 29.0575 6.00948C29.0575 5.40985 29.7773 4.7529 31.2707 4.7529C32.9558 4.7529 34.3305 5.44917 34.3305 5.44917L34.9958 2.374C34.9958 2.374 33.4999 1.72852 31.3904 1.72852ZM1.25457 1.9606L1.1748 2.42478C1.1748 2.42478 2.56054 2.67846 3.80863 3.18455C5.41566 3.76477 5.53009 4.10263 5.80079 5.15181L8.74999 16.5241H12.7034L18.7941 1.9606H14.8497L10.9361 11.8624L9.33914 3.46917C9.19265 2.50861 8.45081 1.9606 7.54278 1.9606H1.25457ZM20.3801 1.9606L17.2859 16.5241H21.0472L24.1306 1.9606H20.3801ZM41.3583 1.9606C40.4513 1.9606 39.9707 2.44637 39.6181 3.29511L34.1076 16.5241H38.0519L38.8151 14.3193H43.6205L44.0845 16.5241H47.5649L44.5287 1.9606H41.3583ZM41.8713 5.8952L43.0405 11.3602H39.9081L41.8713 5.8952Z" fill="white"/>
</svg>
