<svg width="28" height="27" viewBox="0 0 28 27" fill="none" xmlns="http://www.w3.org/2000/svg">
<path d="M13.0439 2.6041C13.3512 1.98151 13.5048 1.67022 13.7134 1.57076C13.8949 1.48423 14.1058 1.48423 14.2873 1.57076C14.4959 1.67022 14.6495 1.98151 14.9568 2.6041L17.8724 8.51072C17.9631 8.69452 18.0085 8.78642 18.0748 8.85777C18.1335 8.92095 18.2039 8.97214 18.2821 9.0085C18.3704 9.04957 18.4718 9.06439 18.6746 9.09404L25.1963 10.0473C25.8831 10.1477 26.2265 10.1979 26.3854 10.3656C26.5236 10.5115 26.5887 10.7121 26.5623 10.9114C26.5321 11.1404 26.2835 11.3826 25.7863 11.8668L21.0689 16.4616C20.9219 16.6048 20.8483 16.6764 20.8009 16.7616C20.7589 16.8371 20.7319 16.92 20.7215 17.0057C20.7098 17.1025 20.7272 17.2037 20.7619 17.406L21.8749 23.8958C21.9923 24.5803 22.051 24.9226 21.9407 25.1257C21.8447 25.3024 21.6741 25.4263 21.4764 25.463C21.2492 25.5051 20.9418 25.3435 20.3271 25.0202L14.4968 21.9541C14.3152 21.8586 14.2243 21.8108 14.1286 21.7921C14.0439 21.7754 13.9568 21.7754 13.872 21.7921C13.7764 21.8108 13.6855 21.8586 13.5039 21.9541L7.67356 25.0202C7.05888 25.3435 6.75154 25.5051 6.52429 25.463C6.32657 25.4263 6.15596 25.3024 6.05998 25.1257C5.94966 24.9226 6.00836 24.5803 6.12576 23.8958L7.23884 17.406C7.27354 17.2037 7.29089 17.1025 7.27915 17.0057C7.26876 16.92 7.24181 16.8371 7.1998 16.7616C7.15236 16.6764 7.07883 16.6048 6.93177 16.4616L2.2144 11.8668C1.71721 11.3826 1.46861 11.1404 1.43836 10.9114C1.41204 10.7121 1.47706 10.5115 1.61533 10.3656C1.77424 10.1979 2.11762 10.1477 2.80438 10.0473L9.32607 9.09404C9.52889 9.06439 9.6303 9.04957 9.71862 9.0085C9.79681 8.97214 9.86721 8.92095 9.92591 8.85777C9.9922 8.78642 10.0376 8.69452 10.1283 8.51072L13.0439 2.6041Z" stroke="white" stroke-width="2" stroke-linecap="round" stroke-linejoin="round"/>
</svg>
