<svg width="390" height="240" viewBox="0 0 390 240" fill="none" xmlns="http://www.w3.org/2000/svg">
<g clip-path="url(#clip0_1966_66133)">
<rect width="389.333" height="240" rx="8" fill="#05080D"/>
<g filter="url(#filter0_bd_1966_66133)">
<rect x="23.1667" y="24" width="343" height="318" rx="8" fill="url(#paint0_radial_1966_66133)" fill-opacity="0.5" shape-rendering="crispEdges"/>
<rect x="23.1667" y="24" width="343" height="318" rx="8" fill="black" fill-opacity="0.5" shape-rendering="crispEdges"/>
<rect x="23.6667" y="24.5" width="342" height="317" rx="7.5" stroke="url(#paint1_linear_1966_66133)" shape-rendering="crispEdges"/>
<path d="M39.4867 58L43.1187 46.48H45.9427L49.5747 58H47.5907L44.2947 47.664H44.7267L41.4707 58H39.4867ZM41.5107 55.504V53.704H47.5587V55.504H41.5107ZM54.7731 58.24C53.8824 58.24 53.1224 58.0427 52.4931 57.648C51.8637 57.248 51.3811 56.704 51.0451 56.016C50.7144 55.328 50.5464 54.5493 50.5411 53.68C50.5464 52.7947 50.7197 52.0107 51.0611 51.328C51.4077 50.64 51.8984 50.1013 52.5331 49.712C53.1677 49.3173 53.9224 49.12 54.7971 49.12C55.7784 49.12 56.6077 49.368 57.2851 49.864C57.9677 50.3547 58.4131 51.0267 58.6211 51.88L56.7011 52.4C56.5517 51.936 56.3037 51.576 55.9571 51.32C55.6104 51.0587 55.2157 50.928 54.7731 50.928C54.2717 50.928 53.8584 51.048 53.5331 51.288C53.2077 51.5227 52.9677 51.848 52.8131 52.264C52.6584 52.68 52.5811 53.152 52.5811 53.68C52.5811 54.5013 52.7651 55.1653 53.1331 55.672C53.5011 56.1787 54.0477 56.432 54.7731 56.432C55.2851 56.432 55.6877 56.3147 55.9811 56.08C56.2797 55.8453 56.5037 55.5067 56.6531 55.064L58.6211 55.504C58.3544 56.384 57.8877 57.0613 57.2211 57.536C56.5544 58.0053 55.7384 58.24 54.7731 58.24ZM65.2882 58C64.7175 58.1067 64.1575 58.152 63.6082 58.136C63.0642 58.1253 62.5762 58.0267 62.1442 57.84C61.7122 57.648 61.3842 57.3467 61.1602 56.936C60.9629 56.5627 60.8589 56.1813 60.8482 55.792C60.8375 55.4027 60.8322 54.9627 60.8322 54.472V46.96H62.7522V54.36C62.7522 54.7067 62.7549 55.0107 62.7602 55.272C62.7709 55.5333 62.8269 55.7467 62.9282 55.912C63.1202 56.232 63.4269 56.4107 63.8482 56.448C64.2695 56.4853 64.7495 56.464 65.2882 56.384V58ZM59.2642 50.872V49.36H65.2882V50.872H59.2642ZM67.3061 48.048V46.28H69.2341V48.048H67.3061ZM67.3061 58V49.36H69.2341V58H67.3061ZM73.9664 58L70.8304 49.36H72.7584L74.9344 55.624L77.1024 49.36H79.0384L75.9024 58H73.9664ZM80.6342 48.048V46.28H82.5622V48.048H80.6342ZM80.6342 58V49.36H82.5622V58H80.6342ZM90.0226 58C89.4519 58.1067 88.8919 58.152 88.3426 58.136C87.7986 58.1253 87.3106 58.0267 86.8786 57.84C86.4466 57.648 86.1186 57.3467 85.8946 56.936C85.6972 56.5627 85.5932 56.1813 85.5826 55.792C85.5719 55.4027 85.5666 54.9627 85.5666 54.472V46.96H87.4866V54.36C87.4866 54.7067 87.4892 55.0107 87.4946 55.272C87.5052 55.5333 87.5612 55.7467 87.6626 55.912C87.8546 56.232 88.1612 56.4107 88.5826 56.448C89.0039 56.4853 89.4839 56.464 90.0226 56.384V58ZM83.9986 50.872V49.36H90.0226V50.872H83.9986ZM92.0404 48.048V46.28H93.9684V48.048H92.0404ZM92.0404 58V49.36H93.9684V58H92.0404ZM100.293 58.24C99.4181 58.24 98.6501 58.0507 97.9888 57.672C97.3275 57.2933 96.8101 56.768 96.4368 56.096C96.0688 55.424 95.8848 54.6507 95.8848 53.776C95.8848 52.832 96.0661 52.0133 96.4288 51.32C96.7915 50.6213 97.2955 50.08 97.9408 49.696C98.5861 49.312 99.3328 49.12 100.181 49.12C101.077 49.12 101.837 49.3307 102.461 49.752C103.09 50.168 103.557 50.7573 103.861 51.52C104.165 52.2827 104.279 53.1813 104.205 54.216H102.293V53.512C102.287 52.5733 102.122 51.888 101.797 51.456C101.471 51.024 100.959 50.808 100.261 50.808C99.4715 50.808 98.8848 51.0533 98.5008 51.544C98.1168 52.0293 97.9248 52.7413 97.9248 53.68C97.9248 54.5547 98.1168 55.232 98.5008 55.712C98.8848 56.192 99.4448 56.432 100.181 56.432C100.655 56.432 101.063 56.328 101.405 56.12C101.751 55.9067 102.018 55.6 102.205 55.2L104.109 55.776C103.778 56.5547 103.266 57.16 102.573 57.592C101.885 58.024 101.125 58.24 100.293 58.24ZM97.3168 54.216V52.76H103.261V54.216H97.3168ZM109.326 58.24C108.259 58.24 107.392 58 106.726 57.52C106.059 57.04 105.654 56.3653 105.51 55.496L107.478 55.192C107.579 55.6187 107.803 55.9547 108.15 56.2C108.496 56.4453 108.934 56.568 109.462 56.568C109.926 56.568 110.283 56.4773 110.534 56.296C110.79 56.1093 110.918 55.856 110.918 55.536C110.918 55.3387 110.87 55.1813 110.774 55.064C110.683 54.9413 110.48 54.824 110.166 54.712C109.851 54.6 109.368 54.4587 108.718 54.288C107.992 54.096 107.416 53.8907 106.99 53.672C106.563 53.448 106.256 53.184 106.07 52.88C105.883 52.576 105.79 52.208 105.79 51.776C105.79 51.2373 105.931 50.768 106.214 50.368C106.496 49.968 106.891 49.6613 107.398 49.448C107.904 49.2293 108.502 49.12 109.19 49.12C109.862 49.12 110.456 49.224 110.974 49.432C111.496 49.64 111.918 49.936 112.238 50.32C112.558 50.704 112.755 51.1547 112.83 51.672L110.862 52.024C110.814 51.656 110.646 51.3653 110.358 51.152C110.075 50.9387 109.696 50.8187 109.222 50.792C108.768 50.7653 108.403 50.8347 108.126 51C107.848 51.16 107.71 51.3867 107.71 51.68C107.71 51.8453 107.766 51.9867 107.878 52.104C107.99 52.2213 108.214 52.3387 108.55 52.456C108.891 52.5733 109.398 52.7173 110.07 52.888C110.758 53.064 111.307 53.2667 111.718 53.496C112.134 53.72 112.432 53.9893 112.614 54.304C112.8 54.6187 112.894 55 112.894 55.448C112.894 56.3173 112.576 57 111.942 57.496C111.312 57.992 110.44 58.24 109.326 58.24ZM117.849 58V46.48H122.417C123.196 46.48 123.833 46.6373 124.329 46.952C124.831 47.2613 125.201 47.6587 125.441 48.144C125.687 48.6293 125.809 49.1307 125.809 49.648C125.809 50.2827 125.657 50.8213 125.353 51.264C125.055 51.7067 124.647 52.0053 124.129 52.16V51.76C124.855 51.9253 125.404 52.2693 125.777 52.792C126.156 53.3147 126.345 53.9093 126.345 54.576C126.345 55.2587 126.215 55.856 125.953 56.368C125.692 56.88 125.303 57.28 124.785 57.568C124.273 57.856 123.639 58 122.881 58H117.849ZM119.801 56.184H122.641C122.977 56.184 123.279 56.1173 123.545 55.984C123.812 55.8453 124.02 55.6533 124.169 55.408C124.324 55.1573 124.401 54.8613 124.401 54.52C124.401 54.2107 124.335 53.9333 124.201 53.688C124.068 53.4427 123.873 53.248 123.617 53.104C123.361 52.9547 123.055 52.88 122.697 52.88H119.801V56.184ZM119.801 51.08H122.393C122.671 51.08 122.919 51.0267 123.137 50.92C123.356 50.8133 123.529 50.656 123.657 50.448C123.785 50.24 123.849 49.984 123.849 49.68C123.849 49.28 123.721 48.9467 123.465 48.68C123.209 48.4133 122.852 48.28 122.393 48.28H119.801V51.08ZM131.183 58.248C130.543 58.248 130.015 58.1413 129.599 57.928C129.183 57.7147 128.852 57.4427 128.607 57.112C128.362 56.7813 128.18 56.4293 128.063 56.056C127.946 55.6827 127.868 55.3307 127.831 55C127.799 54.664 127.783 54.392 127.783 54.184V49.36H129.735V53.52C129.735 53.7867 129.754 54.088 129.791 54.424C129.828 54.7547 129.914 55.0747 130.047 55.384C130.186 55.688 130.388 55.9387 130.655 56.136C130.927 56.3333 131.292 56.432 131.751 56.432C131.996 56.432 132.239 56.392 132.479 56.312C132.719 56.232 132.935 56.096 133.127 55.904C133.324 55.7067 133.482 55.4373 133.599 55.096C133.716 54.7547 133.775 54.3227 133.775 53.8L134.919 54.288C134.919 55.024 134.775 55.6907 134.487 56.288C134.204 56.8853 133.786 57.3627 133.231 57.72C132.676 58.072 131.994 58.248 131.183 58.248ZM134.007 58V55.32H133.775V49.36H135.711V58H134.007ZM141.423 58.24C140.628 58.24 139.935 58.04 139.343 57.64C138.751 57.24 138.292 56.696 137.967 56.008C137.641 55.32 137.479 54.544 137.479 53.68C137.479 52.8053 137.641 52.0267 137.967 51.344C138.297 50.656 138.764 50.1147 139.367 49.72C139.969 49.32 140.679 49.12 141.495 49.12C142.316 49.12 143.004 49.32 143.559 49.72C144.119 50.1147 144.543 50.656 144.831 51.344C145.119 52.032 145.263 52.8107 145.263 53.68C145.263 54.5387 145.119 55.3147 144.831 56.008C144.543 56.696 144.113 57.24 143.543 57.64C142.972 58.04 142.265 58.24 141.423 58.24ZM141.719 56.512C142.236 56.512 142.652 56.3947 142.967 56.16C143.287 55.92 143.519 55.5867 143.663 55.16C143.812 54.7333 143.887 54.24 143.887 53.68C143.887 53.1147 143.812 52.6213 143.663 52.2C143.519 51.7733 143.292 51.4427 142.983 51.208C142.673 50.968 142.273 50.848 141.783 50.848C141.265 50.848 140.839 50.976 140.503 51.232C140.167 51.4827 139.919 51.824 139.759 52.256C139.599 52.6827 139.519 53.1573 139.519 53.68C139.519 54.208 139.596 54.688 139.751 55.12C139.911 55.5467 140.153 55.8853 140.479 56.136C140.804 56.3867 141.217 56.512 141.719 56.512ZM143.887 58V51.936H143.647V46.48H145.591V58H143.887ZM151.466 62.08C150.986 62.08 150.524 62.0053 150.082 61.856C149.644 61.7067 149.25 61.4907 148.898 61.208C148.546 60.9307 148.258 60.5947 148.034 60.2L149.81 59.32C149.975 59.6347 150.207 59.8667 150.506 60.016C150.81 60.1707 151.132 60.248 151.474 60.248C151.874 60.248 152.231 60.176 152.546 60.032C152.86 59.8933 153.103 59.6853 153.274 59.408C153.45 59.136 153.532 58.7947 153.522 58.384V55.928H153.762V49.36H155.45V58.416C155.45 58.6347 155.439 58.8427 155.418 59.04C155.402 59.2427 155.372 59.44 155.33 59.632C155.202 60.192 154.956 60.6507 154.594 61.008C154.231 61.3707 153.78 61.64 153.242 61.816C152.708 61.992 152.116 62.08 151.466 62.08ZM151.298 58.24C150.503 58.24 149.81 58.04 149.218 57.64C148.626 57.24 148.167 56.696 147.842 56.008C147.516 55.32 147.354 54.544 147.354 53.68C147.354 52.8053 147.516 52.0267 147.842 51.344C148.172 50.656 148.639 50.1147 149.242 49.72C149.844 49.32 150.554 49.12 151.37 49.12C152.191 49.12 152.879 49.32 153.434 49.72C153.994 50.1147 154.418 50.656 154.706 51.344C154.994 52.032 155.138 52.8107 155.138 53.68C155.138 54.5387 154.994 55.3147 154.706 56.008C154.418 56.696 153.988 57.24 153.418 57.64C152.847 58.04 152.14 58.24 151.298 58.24ZM151.594 56.512C152.111 56.512 152.527 56.3947 152.842 56.16C153.162 55.92 153.394 55.5867 153.538 55.16C153.687 54.7333 153.762 54.24 153.762 53.68C153.762 53.1147 153.687 52.6213 153.538 52.2C153.394 51.7733 153.167 51.4427 152.858 51.208C152.548 50.968 152.148 50.848 151.658 50.848C151.14 50.848 150.714 50.976 150.378 51.232C150.042 51.4827 149.794 51.824 149.634 52.256C149.474 52.6827 149.394 53.1573 149.394 53.68C149.394 54.208 149.471 54.688 149.626 55.12C149.786 55.5467 150.028 55.8853 150.354 56.136C150.679 56.3867 151.092 56.512 151.594 56.512ZM161.621 58.24C160.746 58.24 159.978 58.0507 159.317 57.672C158.656 57.2933 158.138 56.768 157.765 56.096C157.397 55.424 157.213 54.6507 157.213 53.776C157.213 52.832 157.394 52.0133 157.757 51.32C158.12 50.6213 158.624 50.08 159.269 49.696C159.914 49.312 160.661 49.12 161.509 49.12C162.405 49.12 163.165 49.3307 163.789 49.752C164.418 50.168 164.885 50.7573 165.189 51.52C165.493 52.2827 165.608 53.1813 165.533 54.216H163.621V53.512C163.616 52.5733 163.45 51.888 163.125 51.456C162.8 51.024 162.288 50.808 161.589 50.808C160.8 50.808 160.213 51.0533 159.829 51.544C159.445 52.0293 159.253 52.7413 159.253 53.68C159.253 54.5547 159.445 55.232 159.829 55.712C160.213 56.192 160.773 56.432 161.509 56.432C161.984 56.432 162.392 56.328 162.733 56.12C163.08 55.9067 163.346 55.6 163.533 55.2L165.437 55.776C165.106 56.5547 164.594 57.16 163.901 57.592C163.213 58.024 162.453 58.24 161.621 58.24ZM158.645 54.216V52.76H164.589V54.216H158.645ZM172.382 58C171.811 58.1067 171.251 58.152 170.702 58.136C170.158 58.1253 169.67 58.0267 169.238 57.84C168.806 57.648 168.478 57.3467 168.254 56.936C168.057 56.5627 167.953 56.1813 167.942 55.792C167.931 55.4027 167.926 54.9627 167.926 54.472V46.96H169.846V54.36C169.846 54.7067 169.849 55.0107 169.854 55.272C169.865 55.5333 169.921 55.7467 170.022 55.912C170.214 56.232 170.521 56.4107 170.942 56.448C171.363 56.4853 171.843 56.464 172.382 56.384V58ZM166.358 50.872V49.36H172.382V50.872H166.358Z" fill="white"/>
<rect x="39.1667" y="144" width="13.65" height="8" rx="4" fill="white" fill-opacity="0.2"/>
<rect x="54.8167" y="136" width="13.65" height="16" rx="4" fill="white" fill-opacity="0.2"/>
<rect x="70.4667" y="136" width="13.65" height="16" rx="4" fill="white" fill-opacity="0.2"/>
<rect x="86.1167" y="128" width="13.65" height="24" rx="4" fill="white" fill-opacity="0.2"/>
<rect x="101.767" y="128" width="13.65" height="24" rx="4" fill="#215CBA"/>
<rect x="117.417" y="120" width="13.65" height="32" rx="4" fill="#215CBA"/>
<rect x="133.067" y="112" width="13.65" height="40" rx="4" fill="#215CBA"/>
<rect x="148.717" y="96" width="13.65" height="56" rx="4" fill="#215CBA"/>
<rect x="164.367" y="88" width="13.65" height="64" rx="4" fill="#215CBA"/>
<rect x="180.017" y="104" width="13.65" height="48" rx="4" fill="#215CBA"/>
<rect x="195.667" y="88" width="13.65" height="64" rx="4" fill="#215CBA"/>
<rect x="211.317" y="104" width="13.65" height="48" rx="4" fill="#215CBA"/>
<rect x="226.967" y="96" width="13.65" height="56" rx="4" fill="#215CBA"/>
<rect x="242.617" y="88" width="13.65" height="64" rx="4" fill="#215CBA"/>
<rect x="258.267" y="96" width="13.65" height="56" rx="4" fill="#215CBA"/>
<rect x="273.917" y="104" width="13.65" height="48" rx="4" fill="white" fill-opacity="0.2"/>
<rect x="289.567" y="120" width="13.65" height="32" rx="4" fill="white" fill-opacity="0.2"/>
<rect x="305.217" y="128" width="13.65" height="24" rx="4" fill="white" fill-opacity="0.2"/>
<rect x="320.867" y="136" width="13.65" height="16" rx="4" fill="white" fill-opacity="0.2"/>
<rect x="336.517" y="136" width="13.65" height="16" rx="4" fill="white" fill-opacity="0.2"/>
<path d="M39.1667 170C39.1667 168.895 40.0621 168 41.1667 168H348.167C349.271 168 350.167 168.895 350.167 170C350.167 171.105 349.271 172 348.167 172H41.1667C40.0621 172 39.1667 171.105 39.1667 170Z" fill="white" fill-opacity="0.2"/>
<rect width="192" height="4" transform="translate(94.1667 168)" fill="#5389DF"/>
<g opacity="0.2" filter="url(#filter1_d_1966_66133)">
<rect x="109.167" y="158" width="24" height="24" rx="12" fill="#5389DF"/>
</g>
<g filter="url(#filter2_d_1966_66133)">
<rect x="113.167" y="162" width="16" height="16" rx="8" fill="#5389DF"/>
</g>
<g opacity="0.2" filter="url(#filter3_d_1966_66133)">
<rect x="294.167" y="158" width="24" height="24" rx="12" fill="#5389DF"/>
</g>
<g filter="url(#filter4_d_1966_66133)">
<rect x="298.167" y="162" width="16" height="16" rx="8" fill="#5389DF"/>
</g>
<path d="M40.0067 203V194.36H40.8167L44.2127 201.626L47.5907 194.36H48.4127V202.994H47.5727V196.328L44.4947 203H43.9247L40.8527 196.328V203H40.0067ZM50.2165 195.29V194.3H51.0985V195.29H50.2165ZM50.2165 203V196.52H51.0985V203H50.2165ZM57.5773 203V199.694C57.5773 199.334 57.5433 199.004 57.4753 198.704C57.4073 198.4 57.2973 198.136 57.1453 197.912C56.9973 197.684 56.8033 197.508 56.5633 197.384C56.3273 197.26 56.0393 197.198 55.6993 197.198C55.3873 197.198 55.1113 197.252 54.8713 197.36C54.6353 197.468 54.4353 197.624 54.2713 197.828C54.1113 198.028 53.9893 198.272 53.9053 198.56C53.8213 198.848 53.7793 199.176 53.7793 199.544L53.1553 199.406C53.1553 198.742 53.2713 198.184 53.5033 197.732C53.7353 197.28 54.0553 196.938 54.4633 196.706C54.8713 196.474 55.3393 196.358 55.8673 196.358C56.2553 196.358 56.5933 196.418 56.8813 196.538C57.1733 196.658 57.4193 196.82 57.6193 197.024C57.8233 197.228 57.9873 197.462 58.1113 197.726C58.2353 197.986 58.3253 198.264 58.3813 198.56C58.4373 198.852 58.4653 199.144 58.4653 199.436V203H57.5773ZM52.8913 203V196.52H53.6893V198.116H53.7793V203H52.8913Z" fill="#B3B3B3"/>
<path d="M67.7857 204.393V202.734H69.4727V204.393H67.7857ZM67.7857 193.193V191.534H69.4727V193.193H67.7857ZM68.6677 203.21C67.9584 203.21 67.3237 203.079 66.7637 202.818C66.2037 202.557 65.744 202.188 65.3847 201.712C65.03 201.236 64.8037 200.671 64.7057 200.018L66.3717 199.752C66.5024 200.326 66.7824 200.783 67.2117 201.124C67.6457 201.46 68.1637 201.628 68.7657 201.628C69.3444 201.628 69.8204 201.493 70.1937 201.222C70.567 200.947 70.7537 200.599 70.7537 200.179C70.7537 199.885 70.665 199.647 70.4877 199.465C70.3104 199.278 70.0257 199.124 69.6337 199.003L67.2047 198.247C65.7907 197.808 65.0837 196.95 65.0837 195.671C65.0837 195.074 65.226 194.553 65.5107 194.11C65.8 193.662 66.206 193.319 66.7287 193.081C67.2514 192.838 67.8674 192.719 68.5767 192.724C69.2347 192.729 69.8204 192.848 70.3337 193.081C70.8517 193.314 71.281 193.65 71.6217 194.089C71.967 194.528 72.212 195.055 72.3567 195.671L70.6277 195.986C70.5624 195.655 70.434 195.363 70.2427 195.111C70.0514 194.859 69.811 194.663 69.5217 194.523C69.2324 194.383 68.9104 194.308 68.5557 194.299C68.215 194.294 67.9094 194.348 67.6387 194.46C67.368 194.567 67.1534 194.721 66.9947 194.922C66.836 195.118 66.7567 195.34 66.7567 195.587C66.7567 195.862 66.8664 196.098 67.0857 196.294C67.3097 196.49 67.662 196.658 68.1427 196.798L69.9557 197.323C70.8284 197.575 71.456 197.918 71.8387 198.352C72.226 198.781 72.4197 199.353 72.4197 200.067C72.4197 200.692 72.2634 201.241 71.9507 201.712C71.638 202.183 71.1994 202.552 70.6347 202.818C70.07 203.079 69.4144 203.21 68.6677 203.21ZM75.6877 203V194.761L73.7977 195.916V194.054L75.6877 192.92H77.4097V203H75.6877ZM83.0654 203.21C82.552 203.21 82.0737 203.105 81.6304 202.895C81.187 202.68 80.8044 202.386 80.4824 202.013C80.165 201.64 79.9364 201.206 79.7964 200.711L81.4204 200.277C81.4857 200.548 81.6047 200.781 81.7774 200.977C81.9547 201.173 82.16 201.325 82.3934 201.432C82.6314 201.539 82.8764 201.593 83.1284 201.593C83.455 201.593 83.7537 201.514 84.0244 201.355C84.295 201.196 84.5097 200.984 84.6684 200.718C84.827 200.447 84.9064 200.149 84.9064 199.822C84.9064 199.495 84.8247 199.199 84.6614 198.933C84.5027 198.662 84.288 198.45 84.0174 198.296C83.7467 198.137 83.4504 198.058 83.1284 198.058C82.741 198.058 82.419 198.128 82.1624 198.268C81.9104 198.408 81.7167 198.557 81.5814 198.716L80.1394 198.254L80.4474 192.92H85.9214V194.502H81.3504L81.9804 193.907L81.7564 197.617L81.4484 197.239C81.7097 197.001 82.013 196.824 82.3584 196.707C82.7037 196.59 83.0374 196.532 83.3594 196.532C83.9894 196.532 84.547 196.677 85.0324 196.966C85.5224 197.251 85.905 197.64 86.1804 198.135C86.4604 198.63 86.6004 199.192 86.6004 199.822C86.6004 200.452 86.437 201.024 86.1104 201.537C85.7837 202.046 85.352 202.452 84.8154 202.755C84.2834 203.058 83.7 203.21 83.0654 203.21ZM91.9055 203.21C91.1915 203.21 90.5615 203.058 90.0155 202.755C89.4695 202.447 89.0425 202.02 88.7345 201.474C88.4312 200.928 88.2795 200.298 88.2795 199.584V196.336C88.2795 195.622 88.4312 194.992 88.7345 194.446C89.0425 193.9 89.4695 193.475 90.0155 193.172C90.5615 192.864 91.1915 192.71 91.9055 192.71C92.6195 192.71 93.2472 192.864 93.7885 193.172C94.3345 193.475 94.7615 193.9 95.0695 194.446C95.3775 194.992 95.5315 195.622 95.5315 196.336V199.584C95.5315 200.298 95.3775 200.928 95.0695 201.474C94.7615 202.02 94.3345 202.447 93.7885 202.755C93.2472 203.058 92.6195 203.21 91.9055 203.21ZM91.9055 201.607C92.2602 201.607 92.5822 201.523 92.8715 201.355C93.1608 201.182 93.3895 200.954 93.5575 200.669C93.7255 200.38 93.8095 200.058 93.8095 199.703V196.21C93.8095 195.851 93.7255 195.529 93.5575 195.244C93.3895 194.955 93.1608 194.726 92.8715 194.558C92.5822 194.385 92.2602 194.299 91.9055 194.299C91.5508 194.299 91.2288 194.385 90.9395 194.558C90.6502 194.726 90.4215 194.955 90.2535 195.244C90.0855 195.529 90.0015 195.851 90.0015 196.21V199.703C90.0015 200.058 90.0855 200.38 90.2535 200.669C90.4215 200.954 90.6502 201.182 90.9395 201.355C91.2288 201.523 91.5508 201.607 91.9055 201.607Z" fill="white"/>
<path d="M290.786 204.393V202.734H292.473V204.393H290.786ZM290.786 193.193V191.534H292.473V193.193H290.786ZM291.668 203.21C290.958 203.21 290.324 203.079 289.764 202.818C289.204 202.557 288.744 202.188 288.385 201.712C288.03 201.236 287.804 200.671 287.706 200.018L289.372 199.752C289.502 200.326 289.782 200.783 290.212 201.124C290.646 201.46 291.164 201.628 291.766 201.628C292.344 201.628 292.82 201.493 293.194 201.222C293.567 200.947 293.754 200.599 293.754 200.179C293.754 199.885 293.665 199.647 293.488 199.465C293.31 199.278 293.026 199.124 292.634 199.003L290.205 198.247C288.791 197.808 288.084 196.95 288.084 195.671C288.084 195.074 288.226 194.553 288.511 194.11C288.8 193.662 289.206 193.319 289.729 193.081C290.251 192.838 290.867 192.719 291.577 192.724C292.235 192.729 292.82 192.848 293.334 193.081C293.852 193.314 294.281 193.65 294.622 194.089C294.967 194.528 295.212 195.055 295.357 195.671L293.628 195.986C293.562 195.655 293.434 195.363 293.243 195.111C293.051 194.859 292.811 194.663 292.522 194.523C292.232 194.383 291.91 194.308 291.556 194.299C291.215 194.294 290.909 194.348 290.639 194.46C290.368 194.567 290.153 194.721 289.995 194.922C289.836 195.118 289.757 195.34 289.757 195.587C289.757 195.862 289.866 196.098 290.086 196.294C290.31 196.49 290.662 196.658 291.143 196.798L292.956 197.323C293.828 197.575 294.456 197.918 294.839 198.352C295.226 198.781 295.42 199.353 295.42 200.067C295.42 200.692 295.263 201.241 294.951 201.712C294.638 202.183 294.199 202.552 293.635 202.818C293.07 203.079 292.414 203.21 291.668 203.21ZM300.424 203.21C299.766 203.21 299.173 203.056 298.646 202.748C298.123 202.435 297.708 202.004 297.4 201.453C297.092 200.902 296.938 200.27 296.938 199.556V196.49C296.938 195.725 297.089 195.06 297.393 194.495C297.701 193.93 298.13 193.494 298.681 193.186C299.236 192.878 299.88 192.724 300.613 192.724C301.121 192.724 301.604 192.81 302.062 192.983C302.519 193.151 302.925 193.422 303.28 193.795L302.062 194.978C301.884 194.768 301.667 194.602 301.411 194.481C301.159 194.36 300.893 194.299 300.613 194.299C300.221 194.299 299.878 194.392 299.584 194.579C299.29 194.761 299.061 195.001 298.898 195.3C298.739 195.599 298.66 195.918 298.66 196.259V197.932L298.352 197.596C298.641 197.26 298.989 196.999 299.395 196.812C299.801 196.621 300.225 196.525 300.669 196.525C301.303 196.525 301.863 196.67 302.349 196.959C302.834 197.244 303.217 197.636 303.497 198.135C303.777 198.63 303.917 199.194 303.917 199.829C303.917 200.459 303.756 201.031 303.434 201.544C303.116 202.053 302.694 202.459 302.167 202.762C301.639 203.061 301.058 203.21 300.424 203.21ZM300.424 201.593C300.75 201.593 301.049 201.516 301.32 201.362C301.59 201.203 301.805 200.991 301.964 200.725C302.127 200.454 302.209 200.156 302.209 199.829C302.209 199.502 302.129 199.204 301.971 198.933C301.812 198.662 301.597 198.448 301.327 198.289C301.061 198.126 300.764 198.044 300.438 198.044C300.111 198.044 299.812 198.126 299.542 198.289C299.271 198.448 299.056 198.662 298.898 198.933C298.739 199.204 298.66 199.502 298.66 199.829C298.66 200.146 298.737 200.44 298.891 200.711C299.049 200.977 299.262 201.192 299.528 201.355C299.798 201.514 300.097 201.593 300.424 201.593ZM308.622 203.21C308.109 203.21 307.63 203.105 307.187 202.895C306.744 202.68 306.361 202.386 306.039 202.013C305.722 201.64 305.493 201.206 305.353 200.711L306.977 200.277C307.042 200.548 307.161 200.781 307.334 200.977C307.511 201.173 307.717 201.325 307.95 201.432C308.188 201.539 308.433 201.593 308.685 201.593C309.012 201.593 309.31 201.514 309.581 201.355C309.852 201.196 310.066 200.984 310.225 200.718C310.384 200.447 310.463 200.149 310.463 199.822C310.463 199.495 310.381 199.199 310.218 198.933C310.059 198.662 309.845 198.45 309.574 198.296C309.303 198.137 309.007 198.058 308.685 198.058C308.298 198.058 307.976 198.128 307.719 198.268C307.467 198.408 307.273 198.557 307.138 198.716L305.696 198.254L306.004 192.92H311.478V194.502H306.907L307.537 193.907L307.313 197.617L307.005 197.239C307.266 197.001 307.57 196.824 307.915 196.707C308.26 196.59 308.594 196.532 308.916 196.532C309.546 196.532 310.104 196.677 310.589 196.966C311.079 197.251 311.462 197.64 311.737 198.135C312.017 198.63 312.157 199.192 312.157 199.822C312.157 200.452 311.994 201.024 311.667 201.537C311.34 202.046 310.909 202.452 310.372 202.755C309.84 203.058 309.257 203.21 308.622 203.21ZM317.462 203.21C316.748 203.21 316.118 203.058 315.572 202.755C315.026 202.447 314.599 202.02 314.291 201.474C313.988 200.928 313.836 200.298 313.836 199.584V196.336C313.836 195.622 313.988 194.992 314.291 194.446C314.599 193.9 315.026 193.475 315.572 193.172C316.118 192.864 316.748 192.71 317.462 192.71C318.176 192.71 318.804 192.864 319.345 193.172C319.891 193.475 320.318 193.9 320.626 194.446C320.934 194.992 321.088 195.622 321.088 196.336V199.584C321.088 200.298 320.934 200.928 320.626 201.474C320.318 202.02 319.891 202.447 319.345 202.755C318.804 203.058 318.176 203.21 317.462 203.21ZM317.462 201.607C317.817 201.607 318.139 201.523 318.428 201.355C318.717 201.182 318.946 200.954 319.114 200.669C319.282 200.38 319.366 200.058 319.366 199.703V196.21C319.366 195.851 319.282 195.529 319.114 195.244C318.946 194.955 318.717 194.726 318.428 194.558C318.139 194.385 317.817 194.299 317.462 194.299C317.107 194.299 316.785 194.385 316.496 194.558C316.207 194.726 315.978 194.955 315.81 195.244C315.642 195.529 315.558 195.851 315.558 196.21V199.703C315.558 200.058 315.642 200.38 315.81 200.669C315.978 200.954 316.207 201.182 316.496 201.355C316.785 201.523 317.107 201.607 317.462 201.607Z" fill="white"/>
<path d="M327.007 203V194.36H327.817L331.213 201.626L334.591 194.36H335.413V202.994H334.573V196.328L331.495 203H330.925L327.853 196.328V203H327.007ZM338.951 203.18C338.463 203.18 338.053 203.092 337.721 202.916C337.393 202.74 337.147 202.506 336.983 202.214C336.819 201.922 336.737 201.604 336.737 201.26C336.737 200.908 336.807 200.608 336.947 200.36C337.091 200.108 337.285 199.902 337.529 199.742C337.777 199.582 338.063 199.46 338.387 199.376C338.715 199.296 339.077 199.226 339.473 199.166C339.873 199.102 340.263 199.048 340.643 199.004C341.027 198.956 341.363 198.91 341.651 198.866L341.339 199.058C341.351 198.418 341.227 197.944 340.967 197.636C340.707 197.328 340.255 197.174 339.611 197.174C339.167 197.174 338.791 197.274 338.483 197.474C338.179 197.674 337.965 197.99 337.841 198.422L336.983 198.17C337.131 197.59 337.429 197.14 337.877 196.82C338.325 196.5 338.907 196.34 339.623 196.34C340.215 196.34 340.717 196.452 341.129 196.676C341.545 196.896 341.839 197.216 342.011 197.636C342.091 197.824 342.143 198.034 342.167 198.266C342.191 198.498 342.203 198.734 342.203 198.974V203H341.417V201.374L341.645 201.47C341.425 202.026 341.083 202.45 340.619 202.742C340.155 203.034 339.599 203.18 338.951 203.18ZM339.053 202.418C339.465 202.418 339.825 202.344 340.133 202.196C340.441 202.048 340.689 201.846 340.877 201.59C341.065 201.33 341.187 201.038 341.243 200.714C341.291 200.506 341.317 200.278 341.321 200.03C341.325 199.778 341.327 199.59 341.327 199.466L341.663 199.64C341.363 199.68 341.037 199.72 340.685 199.76C340.337 199.8 339.993 199.846 339.653 199.898C339.317 199.95 339.013 200.012 338.741 200.084C338.557 200.136 338.379 200.21 338.207 200.306C338.035 200.398 337.893 200.522 337.781 200.678C337.673 200.834 337.619 201.028 337.619 201.26C337.619 201.448 337.665 201.63 337.757 201.806C337.853 201.982 338.005 202.128 338.213 202.244C338.425 202.36 338.705 202.418 339.053 202.418ZM343.044 203L345.576 199.724L343.098 196.52H344.154L346.092 199.046L348.012 196.52H349.068L346.59 199.724L349.128 203H348.066L346.092 200.402L344.106 203H343.044Z" fill="#B3B3B3"/>
<g filter="url(#filter5_bd_1966_66133)">
<rect x="196.167" y="232" width="154" height="36" rx="18" fill="url(#paint2_radial_1966_66133)" fill-opacity="0.5" shape-rendering="crispEdges"/>
<rect x="196.167" y="232" width="154" height="36" rx="18" fill="black" fill-opacity="0.5" shape-rendering="crispEdges"/>
<rect x="196.667" y="232.5" width="153" height="35" rx="17.5" stroke="url(#paint3_linear_1966_66133)" shape-rendering="crispEdges"/>
<g filter="url(#filter6_bd_1966_66133)">
<rect x="200.167" y="236" width="72" height="28" rx="14" fill="url(#paint4_radial_1966_66133)" fill-opacity="0.5" shape-rendering="crispEdges"/>
<rect x="200.167" y="236" width="72" height="28" rx="14" fill="black" fill-opacity="0.2" shape-rendering="crispEdges"/>
<rect x="200.667" y="236.5" width="71" height="27" rx="13.5" stroke="url(#paint5_linear_1966_66133)" shape-rendering="crispEdges"/>
</g>
<g filter="url(#filter7_bd_1966_66133)">
</g>
</g>
</g>
</g>
<defs>
<filter id="filter0_bd_1966_66133" x="-0.833313" y="0" width="391" height="366" filterUnits="userSpaceOnUse" color-interpolation-filters="sRGB">
<feFlood flood-opacity="0" result="BackgroundImageFix"/>
<feGaussianBlur in="BackgroundImageFix" stdDeviation="12"/>
<feComposite in2="SourceAlpha" operator="in" result="effect1_backgroundBlur_1966_66133"/>
<feColorMatrix in="SourceAlpha" type="matrix" values="0 0 0 0 0 0 0 0 0 0 0 0 0 0 0 0 0 0 127 0" result="hardAlpha"/>
<feOffset dx="4" dy="8"/>
<feGaussianBlur stdDeviation="8"/>
<feComposite in2="hardAlpha" operator="out"/>
<feColorMatrix type="matrix" values="0 0 0 0 0 0 0 0 0 0 0 0 0 0 0 0 0 0 0.25 0"/>
<feBlend mode="normal" in2="effect1_backgroundBlur_1966_66133" result="effect2_dropShadow_1966_66133"/>
<feBlend mode="normal" in="SourceGraphic" in2="effect2_dropShadow_1966_66133" result="shape"/>
</filter>
<filter id="filter1_d_1966_66133" x="97.1667" y="152" width="48" height="48" filterUnits="userSpaceOnUse" color-interpolation-filters="sRGB">
<feFlood flood-opacity="0" result="BackgroundImageFix"/>
<feColorMatrix in="SourceAlpha" type="matrix" values="0 0 0 0 0 0 0 0 0 0 0 0 0 0 0 0 0 0 127 0" result="hardAlpha"/>
<feOffset dy="6"/>
<feGaussianBlur stdDeviation="6"/>
<feComposite in2="hardAlpha" operator="out"/>
<feColorMatrix type="matrix" values="0 0 0 0 0 0 0 0 0 0 0 0 0 0 0 0 0 0 0.2 0"/>
<feBlend mode="normal" in2="BackgroundImageFix" result="effect1_dropShadow_1966_66133"/>
<feBlend mode="normal" in="SourceGraphic" in2="effect1_dropShadow_1966_66133" result="shape"/>
</filter>
<filter id="filter2_d_1966_66133" x="97.1667" y="154" width="48" height="48" filterUnits="userSpaceOnUse" color-interpolation-filters="sRGB">
<feFlood flood-opacity="0" result="BackgroundImageFix"/>
<feColorMatrix in="SourceAlpha" type="matrix" values="0 0 0 0 0 0 0 0 0 0 0 0 0 0 0 0 0 0 127 0" result="hardAlpha"/>
<feOffset dy="8"/>
<feGaussianBlur stdDeviation="8"/>
<feComposite in2="hardAlpha" operator="out"/>
<feColorMatrix type="matrix" values="0 0 0 0 0 0 0 0 0 0 0 0 0 0 0 0 0 0 0.2 0"/>
<feBlend mode="normal" in2="BackgroundImageFix" result="effect1_dropShadow_1966_66133"/>
<feBlend mode="normal" in="SourceGraphic" in2="effect1_dropShadow_1966_66133" result="shape"/>
</filter>
<filter id="filter3_d_1966_66133" x="278.167" y="150" width="56" height="56" filterUnits="userSpaceOnUse" color-interpolation-filters="sRGB">
<feFlood flood-opacity="0" result="BackgroundImageFix"/>
<feColorMatrix in="SourceAlpha" type="matrix" values="0 0 0 0 0 0 0 0 0 0 0 0 0 0 0 0 0 0 127 0" result="hardAlpha"/>
<feOffset dy="8"/>
<feGaussianBlur stdDeviation="8"/>
<feComposite in2="hardAlpha" operator="out"/>
<feColorMatrix type="matrix" values="0 0 0 0 0 0 0 0 0 0 0 0 0 0 0 0 0 0 0.2 0"/>
<feBlend mode="normal" in2="BackgroundImageFix" result="effect1_dropShadow_1966_66133"/>
<feBlend mode="normal" in="SourceGraphic" in2="effect1_dropShadow_1966_66133" result="shape"/>
</filter>
<filter id="filter4_d_1966_66133" x="282.167" y="154" width="48" height="48" filterUnits="userSpaceOnUse" color-interpolation-filters="sRGB">
<feFlood flood-opacity="0" result="BackgroundImageFix"/>
<feColorMatrix in="SourceAlpha" type="matrix" values="0 0 0 0 0 0 0 0 0 0 0 0 0 0 0 0 0 0 127 0" result="hardAlpha"/>
<feOffset dy="8"/>
<feGaussianBlur stdDeviation="8"/>
<feComposite in2="hardAlpha" operator="out"/>
<feColorMatrix type="matrix" values="0 0 0 0 0 0 0 0 0 0 0 0 0 0 0 0 0 0 0.2 0"/>
<feBlend mode="normal" in2="BackgroundImageFix" result="effect1_dropShadow_1966_66133"/>
<feBlend mode="normal" in="SourceGraphic" in2="effect1_dropShadow_1966_66133" result="shape"/>
</filter>
<filter id="filter5_bd_1966_66133" x="172.167" y="208" width="202" height="84" filterUnits="userSpaceOnUse" color-interpolation-filters="sRGB">
<feFlood flood-opacity="0" result="BackgroundImageFix"/>
<feGaussianBlur in="BackgroundImageFix" stdDeviation="12"/>
<feComposite in2="SourceAlpha" operator="in" result="effect1_backgroundBlur_1966_66133"/>
<feColorMatrix in="SourceAlpha" type="matrix" values="0 0 0 0 0 0 0 0 0 0 0 0 0 0 0 0 0 0 127 0" result="hardAlpha"/>
<feOffset dx="4" dy="8"/>
<feGaussianBlur stdDeviation="8"/>
<feComposite in2="hardAlpha" operator="out"/>
<feColorMatrix type="matrix" values="0 0 0 0 0 0 0 0 0 0 0 0 0 0 0 0 0 0 0.25 0"/>
<feBlend mode="normal" in2="effect1_backgroundBlur_1966_66133" result="effect2_dropShadow_1966_66133"/>
<feBlend mode="normal" in="SourceGraphic" in2="effect2_dropShadow_1966_66133" result="shape"/>
</filter>
<filter id="filter6_bd_1966_66133" x="176.167" y="212" width="120" height="76" filterUnits="userSpaceOnUse" color-interpolation-filters="sRGB">
<feFlood flood-opacity="0" result="BackgroundImageFix"/>
<feGaussianBlur in="BackgroundImageFix" stdDeviation="12"/>
<feComposite in2="SourceAlpha" operator="in" result="effect1_backgroundBlur_1966_66133"/>
<feColorMatrix in="SourceAlpha" type="matrix" values="0 0 0 0 0 0 0 0 0 0 0 0 0 0 0 0 0 0 127 0" result="hardAlpha"/>
<feOffset dx="4" dy="8"/>
<feGaussianBlur stdDeviation="8"/>
<feComposite in2="hardAlpha" operator="out"/>
<feColorMatrix type="matrix" values="0 0 0 0 0 0 0 0 0 0 0 0 0 0 0 0 0 0 0.25 0"/>
<feBlend mode="normal" in2="effect1_backgroundBlur_1966_66133" result="effect2_dropShadow_1966_66133"/>
<feBlend mode="normal" in="SourceGraphic" in2="effect2_dropShadow_1966_66133" result="shape"/>
</filter>
<filter id="filter7_bd_1966_66133" x="248.167" y="212" width="120" height="76" filterUnits="userSpaceOnUse" color-interpolation-filters="sRGB">
<feFlood flood-opacity="0" result="BackgroundImageFix"/>
<feGaussianBlur in="BackgroundImageFix" stdDeviation="12"/>
<feComposite in2="SourceAlpha" operator="in" result="effect1_backgroundBlur_1966_66133"/>
<feColorMatrix in="SourceAlpha" type="matrix" values="0 0 0 0 0 0 0 0 0 0 0 0 0 0 0 0 0 0 127 0" result="hardAlpha"/>
<feOffset dx="4" dy="8"/>
<feGaussianBlur stdDeviation="8"/>
<feComposite in2="hardAlpha" operator="out"/>
<feColorMatrix type="matrix" values="0 0 0 0 0 0 0 0 0 0 0 0 0 0 0 0 0 0 0.25 0"/>
<feBlend mode="normal" in2="effect1_backgroundBlur_1966_66133" result="effect2_dropShadow_1966_66133"/>
<feBlend mode="normal" in="SourceGraphic" in2="effect2_dropShadow_1966_66133" result="shape"/>
</filter>
<radialGradient id="paint0_radial_1966_66133" cx="0" cy="0" r="1" gradientUnits="userSpaceOnUse" gradientTransform="translate(37.7946 45) rotate(40.6672) scale(401.664 735.046)">
<stop stop-color="#CFCFCF" stop-opacity="0.5"/>
<stop offset="1" stop-color="#6B6B6B" stop-opacity="0.3"/>
</radialGradient>
<linearGradient id="paint1_linear_1966_66133" x1="80.4174" y1="24" x2="279.488" y2="274.627" gradientUnits="userSpaceOnUse">
<stop stop-color="#DEDEDE" stop-opacity="0.5"/>
<stop offset="1" stop-color="#666666" stop-opacity="0.5"/>
</linearGradient>
<radialGradient id="paint2_radial_1966_66133" cx="0" cy="0" r="1" gradientUnits="userSpaceOnUse" gradientTransform="translate(202.734 234.377) rotate(12.223) scale(139.961 107.219)">
<stop stop-color="#CFCFCF" stop-opacity="0.5"/>
<stop offset="1" stop-color="#6B6B6B" stop-opacity="0.3"/>
</radialGradient>
<linearGradient id="paint3_linear_1966_66133" x1="221.871" y1="232" x2="230.781" y2="276.489" gradientUnits="userSpaceOnUse">
<stop stop-color="#DEDEDE" stop-opacity="0.5"/>
<stop offset="1" stop-color="#666666" stop-opacity="0.5"/>
</linearGradient>
<radialGradient id="paint4_radial_1966_66133" cx="0" cy="0" r="1" gradientUnits="userSpaceOnUse" gradientTransform="translate(203.237 237.849) rotate(19.818) scale(67.979 80.2733)">
<stop stop-color="white" stop-opacity="0.5"/>
<stop offset="1" stop-color="#B6B6B6" stop-opacity="0.3"/>
</radialGradient>
<linearGradient id="paint5_linear_1966_66133" x1="212.184" y1="236" x2="222.977" y2="268.394" gradientUnits="userSpaceOnUse">
<stop stop-color="#DEDEDE" stop-opacity="0.5"/>
<stop offset="1" stop-color="#666666" stop-opacity="0.5"/>
</linearGradient>
<clipPath id="clip0_1966_66133">
<rect width="389.333" height="240" rx="8" fill="white"/>
</clipPath>
</defs>
</svg>
