<svg width="390" height="240" viewBox="0 0 390 240" fill="none" xmlns="http://www.w3.org/2000/svg">
<g clip-path="url(#clip0_1966_66201)">
<rect x="0.333374" width="389.333" height="240" rx="8" fill="#05080D"/>
<g filter="url(#filter0_bd_1966_66201)">
<path d="M23.5 32C23.5 27.5817 27.0817 24 31.5 24H358.5C362.918 24 366.5 27.5817 366.5 32V244H23.5V32Z" fill="url(#paint0_radial_1966_66201)" fill-opacity="0.5" shape-rendering="crispEdges"/>
<path d="M23.5 32C23.5 27.5817 27.0817 24 31.5 24H358.5C362.918 24 366.5 27.5817 366.5 32V244H23.5V32Z" fill="black" fill-opacity="0.5" shape-rendering="crispEdges"/>
<path d="M24 32C24 27.8579 27.3579 24.5 31.5 24.5H358.5C362.642 24.5 366 27.8579 366 32V243.5H24V32Z" stroke="url(#paint1_linear_1966_66201)" shape-rendering="crispEdges"/>
<path d="M40.62 58V46.48H45.188C45.9667 46.48 46.604 46.6373 47.1 46.952C47.6013 47.2613 47.972 47.6587 48.212 48.144C48.4573 48.6293 48.58 49.1307 48.58 49.648C48.58 50.2827 48.428 50.8213 48.124 51.264C47.8253 51.7067 47.4173 52.0053 46.9 52.16V51.76C47.6253 51.9253 48.1747 52.2693 48.548 52.792C48.9267 53.3147 49.116 53.9093 49.116 54.576C49.116 55.2587 48.9853 55.856 48.724 56.368C48.4627 56.88 48.0733 57.28 47.556 57.568C47.044 57.856 46.4093 58 45.652 58H40.62ZM42.572 56.184H45.412C45.748 56.184 46.0493 56.1173 46.316 55.984C46.5827 55.8453 46.7907 55.6533 46.94 55.408C47.0947 55.1573 47.172 54.8613 47.172 54.52C47.172 54.2107 47.1053 53.9333 46.972 53.688C46.8387 53.4427 46.644 53.248 46.388 53.104C46.132 52.9547 45.8253 52.88 45.468 52.88H42.572V56.184ZM42.572 51.08H45.164C45.4413 51.08 45.6893 51.0267 45.908 50.92C46.1267 50.8133 46.3 50.656 46.428 50.448C46.556 50.24 46.62 49.984 46.62 49.68C46.62 49.28 46.492 48.9467 46.236 48.68C45.98 48.4133 45.6227 48.28 45.164 48.28H42.572V51.08ZM53.9538 58.248C53.3138 58.248 52.7858 58.1413 52.3698 57.928C51.9538 57.7147 51.6231 57.4427 51.3778 57.112C51.1324 56.7813 50.9511 56.4293 50.8338 56.056C50.7164 55.6827 50.6391 55.3307 50.6018 55C50.5698 54.664 50.5538 54.392 50.5538 54.184V49.36H52.5058V53.52C52.5058 53.7867 52.5244 54.088 52.5618 54.424C52.5991 54.7547 52.6844 55.0747 52.8178 55.384C52.9564 55.688 53.1591 55.9387 53.4258 56.136C53.6978 56.3333 54.0631 56.432 54.5218 56.432C54.7671 56.432 55.0098 56.392 55.2498 56.312C55.4898 56.232 55.7058 56.096 55.8978 55.904C56.0951 55.7067 56.2524 55.4373 56.3698 55.096C56.4871 54.7547 56.5458 54.3227 56.5458 53.8L57.6898 54.288C57.6898 55.024 57.5458 55.6907 57.2578 56.288C56.9751 56.8853 56.5564 57.3627 56.0018 57.72C55.4471 58.072 54.7644 58.248 53.9538 58.248ZM56.7778 58V55.32H56.5458V49.36H58.4818V58H56.7778ZM64.1934 58.24C63.3987 58.24 62.7054 58.04 62.1134 57.64C61.5214 57.24 61.0627 56.696 60.7374 56.008C60.412 55.32 60.2494 54.544 60.2494 53.68C60.2494 52.8053 60.412 52.0267 60.7374 51.344C61.068 50.656 61.5347 50.1147 62.1374 49.72C62.74 49.32 63.4494 49.12 64.2654 49.12C65.0867 49.12 65.7747 49.32 66.3294 49.72C66.8894 50.1147 67.3134 50.656 67.6014 51.344C67.8894 52.032 68.0334 52.8107 68.0334 53.68C68.0334 54.5387 67.8894 55.3147 67.6014 56.008C67.3134 56.696 66.884 57.24 66.3134 57.64C65.7427 58.04 65.036 58.24 64.1934 58.24ZM64.4894 56.512C65.0067 56.512 65.4227 56.3947 65.7374 56.16C66.0574 55.92 66.2894 55.5867 66.4334 55.16C66.5827 54.7333 66.6574 54.24 66.6574 53.68C66.6574 53.1147 66.5827 52.6213 66.4334 52.2C66.2894 51.7733 66.0627 51.4427 65.7534 51.208C65.444 50.968 65.044 50.848 64.5534 50.848C64.036 50.848 63.6094 50.976 63.2734 51.232C62.9374 51.4827 62.6894 51.824 62.5294 52.256C62.3694 52.6827 62.2894 53.1573 62.2894 53.68C62.2894 54.208 62.3667 54.688 62.5214 55.12C62.6814 55.5467 62.924 55.8853 63.2494 56.136C63.5747 56.3867 63.988 56.512 64.4894 56.512ZM66.6574 58V51.936H66.4174V46.48H68.3614V58H66.6574ZM74.2364 62.08C73.7564 62.08 73.295 62.0053 72.8524 61.856C72.415 61.7067 72.0204 61.4907 71.6684 61.208C71.3164 60.9307 71.0284 60.5947 70.8044 60.2L72.5804 59.32C72.7457 59.6347 72.9777 59.8667 73.2764 60.016C73.5804 60.1707 73.903 60.248 74.2444 60.248C74.6444 60.248 75.0017 60.176 75.3164 60.032C75.631 59.8933 75.8737 59.6853 76.0444 59.408C76.2204 59.136 76.303 58.7947 76.2924 58.384V55.928H76.5324V49.36H78.2204V58.416C78.2204 58.6347 78.2097 58.8427 78.1884 59.04C78.1724 59.2427 78.143 59.44 78.1004 59.632C77.9724 60.192 77.727 60.6507 77.3644 61.008C77.0017 61.3707 76.551 61.64 76.0124 61.816C75.479 61.992 74.887 62.08 74.2364 62.08ZM74.0684 58.24C73.2737 58.24 72.5804 58.04 71.9884 57.64C71.3964 57.24 70.9377 56.696 70.6124 56.008C70.287 55.32 70.1244 54.544 70.1244 53.68C70.1244 52.8053 70.287 52.0267 70.6124 51.344C70.943 50.656 71.4097 50.1147 72.0124 49.72C72.615 49.32 73.3244 49.12 74.1404 49.12C74.9617 49.12 75.6497 49.32 76.2044 49.72C76.7644 50.1147 77.1884 50.656 77.4764 51.344C77.7644 52.032 77.9084 52.8107 77.9084 53.68C77.9084 54.5387 77.7644 55.3147 77.4764 56.008C77.1884 56.696 76.759 57.24 76.1884 57.64C75.6177 58.04 74.911 58.24 74.0684 58.24ZM74.3644 56.512C74.8817 56.512 75.2977 56.3947 75.6124 56.16C75.9324 55.92 76.1644 55.5867 76.3084 55.16C76.4577 54.7333 76.5324 54.24 76.5324 53.68C76.5324 53.1147 76.4577 52.6213 76.3084 52.2C76.1644 51.7733 75.9377 51.4427 75.6284 51.208C75.319 50.968 74.919 50.848 74.4284 50.848C73.911 50.848 73.4844 50.976 73.1484 51.232C72.8124 51.4827 72.5644 51.824 72.4044 52.256C72.2444 52.6827 72.1644 53.1573 72.1644 53.68C72.1644 54.208 72.2417 54.688 72.3964 55.12C72.5564 55.5467 72.799 55.8853 73.1244 56.136C73.4497 56.3867 73.863 56.512 74.3644 56.512ZM84.3918 58.24C83.5171 58.24 82.7491 58.0507 82.0878 57.672C81.4264 57.2933 80.9091 56.768 80.5358 56.096C80.1678 55.424 79.9838 54.6507 79.9838 53.776C79.9838 52.832 80.1651 52.0133 80.5278 51.32C80.8904 50.6213 81.3944 50.08 82.0398 49.696C82.6851 49.312 83.4318 49.12 84.2798 49.12C85.1758 49.12 85.9358 49.3307 86.5598 49.752C87.1891 50.168 87.6558 50.7573 87.9598 51.52C88.2638 52.2827 88.3784 53.1813 88.3038 54.216H86.3918V53.512C86.3864 52.5733 86.2211 51.888 85.8958 51.456C85.5704 51.024 85.0584 50.808 84.3598 50.808C83.5704 50.808 82.9838 51.0533 82.5998 51.544C82.2158 52.0293 82.0238 52.7413 82.0238 53.68C82.0238 54.5547 82.2158 55.232 82.5998 55.712C82.9838 56.192 83.5438 56.432 84.2798 56.432C84.7544 56.432 85.1624 56.328 85.5038 56.12C85.8504 55.9067 86.1171 55.6 86.3038 55.2L88.2078 55.776C87.8771 56.5547 87.3651 57.16 86.6718 57.592C85.9838 58.024 85.2238 58.24 84.3918 58.24ZM81.4158 54.216V52.76H87.3598V54.216H81.4158ZM95.1528 58C94.5821 58.1067 94.0221 58.152 93.4728 58.136C92.9288 58.1253 92.4408 58.0267 92.0088 57.84C91.5768 57.648 91.2488 57.3467 91.0247 56.936C90.8274 56.5627 90.7234 56.1813 90.7128 55.792C90.7021 55.4027 90.6968 54.9627 90.6968 54.472V46.96H92.6168V54.36C92.6168 54.7067 92.6194 55.0107 92.6248 55.272C92.6354 55.5333 92.6914 55.7467 92.7928 55.912C92.9848 56.232 93.2914 56.4107 93.7128 56.448C94.1341 56.4853 94.6141 56.464 95.1528 56.384V58ZM89.1288 50.872V49.36H95.1528V50.872H89.1288ZM99.4138 58L103.046 46.48H105.87L109.502 58H107.518L104.222 47.664H104.654L101.398 58H99.4138ZM101.438 55.504V53.704H107.486V55.504H101.438ZM111.108 58V46.24H113.036V58H111.108ZM115.593 58V46.24H117.521V58H115.593ZM123.733 58.24C122.869 58.24 122.114 58.0453 121.469 57.656C120.824 57.2667 120.322 56.7307 119.965 56.048C119.613 55.36 119.437 54.5707 119.437 53.68C119.437 52.7733 119.618 51.9787 119.981 51.296C120.344 50.6133 120.848 50.08 121.493 49.696C122.138 49.312 122.885 49.12 123.733 49.12C124.602 49.12 125.36 49.3147 126.005 49.704C126.65 50.0933 127.152 50.632 127.509 51.32C127.866 52.0027 128.045 52.7893 128.045 53.68C128.045 54.576 127.864 55.368 127.501 56.056C127.144 56.7387 126.642 57.2747 125.997 57.664C125.352 58.048 124.597 58.24 123.733 58.24ZM123.733 56.432C124.501 56.432 125.072 56.176 125.445 55.664C125.818 55.152 126.005 54.4907 126.005 53.68C126.005 52.8427 125.816 52.176 125.437 51.68C125.058 51.1787 124.49 50.928 123.733 50.928C123.216 50.928 122.789 51.0453 122.453 51.28C122.122 51.5093 121.877 51.832 121.717 52.248C121.557 52.6587 121.477 53.136 121.477 53.68C121.477 54.5173 121.666 55.1867 122.045 55.688C122.429 56.184 122.992 56.432 123.733 56.432ZM133.56 58.24C132.669 58.24 131.909 58.0427 131.28 57.648C130.65 57.248 130.168 56.704 129.832 56.016C129.501 55.328 129.333 54.5493 129.328 53.68C129.333 52.7947 129.506 52.0107 129.848 51.328C130.194 50.64 130.685 50.1013 131.32 49.712C131.954 49.3173 132.709 49.12 133.584 49.12C134.565 49.12 135.394 49.368 136.072 49.864C136.754 50.3547 137.2 51.0267 137.408 51.88L135.488 52.4C135.338 51.936 135.09 51.576 134.744 51.32C134.397 51.0587 134.002 50.928 133.56 50.928C133.058 50.928 132.645 51.048 132.32 51.288C131.994 51.5227 131.754 51.848 131.6 52.264C131.445 52.68 131.368 53.152 131.368 53.68C131.368 54.5013 131.552 55.1653 131.92 55.672C132.288 56.1787 132.834 56.432 133.56 56.432C134.072 56.432 134.474 56.3147 134.768 56.08C135.066 55.8453 135.29 55.5067 135.44 55.064L137.408 55.504C137.141 56.384 136.674 57.0613 136.008 57.536C135.341 58.0053 134.525 58.24 133.56 58.24ZM141.286 58.24C140.662 58.24 140.134 58.1227 139.702 57.888C139.27 57.648 138.942 57.3307 138.718 56.936C138.499 56.5413 138.39 56.1067 138.39 55.632C138.39 55.216 138.459 54.8427 138.598 54.512C138.737 54.176 138.95 53.888 139.238 53.648C139.526 53.4027 139.899 53.2027 140.358 53.048C140.705 52.936 141.11 52.8347 141.574 52.744C142.043 52.6533 142.55 52.5707 143.094 52.496C143.643 52.416 144.217 52.3307 144.814 52.24L144.126 52.632C144.131 52.0347 143.998 51.5947 143.726 51.312C143.454 51.0293 142.995 50.888 142.35 50.888C141.961 50.888 141.585 50.9787 141.222 51.16C140.859 51.3413 140.606 51.6533 140.462 52.096L138.702 51.544C138.915 50.8133 139.321 50.2267 139.918 49.784C140.521 49.3413 141.331 49.12 142.35 49.12C143.118 49.12 143.793 49.2453 144.374 49.496C144.961 49.7467 145.395 50.1573 145.678 50.728C145.833 51.032 145.926 51.344 145.958 51.664C145.99 51.9787 146.006 52.3227 146.006 52.696V58H144.318V56.128L144.598 56.432C144.209 57.056 143.753 57.5147 143.23 57.808C142.713 58.096 142.065 58.24 141.286 58.24ZM141.67 56.704C142.107 56.704 142.481 56.6267 142.79 56.472C143.099 56.3173 143.345 56.128 143.526 55.904C143.713 55.68 143.838 55.4693 143.902 55.272C144.003 55.0267 144.059 54.7467 144.07 54.432C144.086 54.112 144.094 53.8533 144.094 53.656L144.686 53.832C144.105 53.9227 143.606 54.0027 143.19 54.072C142.774 54.1413 142.417 54.208 142.118 54.272C141.819 54.3307 141.555 54.3973 141.326 54.472C141.102 54.552 140.913 54.6453 140.758 54.752C140.603 54.8587 140.483 54.9813 140.398 55.12C140.318 55.2587 140.278 55.4213 140.278 55.608C140.278 55.8213 140.331 56.0107 140.438 56.176C140.545 56.336 140.699 56.464 140.902 56.56C141.11 56.656 141.366 56.704 141.67 56.704ZM153.153 58C152.582 58.1067 152.022 58.152 151.473 58.136C150.929 58.1253 150.441 58.0267 150.009 57.84C149.577 57.648 149.249 57.3467 149.025 56.936C148.827 56.5627 148.723 56.1813 148.713 55.792C148.702 55.4027 148.697 54.9627 148.697 54.472V46.96H150.617V54.36C150.617 54.7067 150.619 55.0107 150.625 55.272C150.635 55.5333 150.691 55.7467 150.793 55.912C150.985 56.232 151.291 56.4107 151.713 56.448C152.134 56.4853 152.614 56.464 153.153 56.384V58ZM147.129 50.872V49.36H153.153V50.872H147.129ZM155.171 48.048V46.28H157.099V48.048H155.171ZM155.171 58V49.36H157.099V58H155.171ZM163.311 58.24C162.447 58.24 161.692 58.0453 161.047 57.656C160.402 57.2667 159.9 56.7307 159.543 56.048C159.191 55.36 159.015 54.5707 159.015 53.68C159.015 52.7733 159.196 51.9787 159.559 51.296C159.922 50.6133 160.426 50.08 161.071 49.696C161.716 49.312 162.463 49.12 163.311 49.12C164.18 49.12 164.938 49.3147 165.583 49.704C166.228 50.0933 166.73 50.632 167.087 51.32C167.444 52.0027 167.623 52.7893 167.623 53.68C167.623 54.576 167.442 55.368 167.079 56.056C166.722 56.7387 166.22 57.2747 165.575 57.664C164.93 58.048 164.175 58.24 163.311 58.24ZM163.311 56.432C164.079 56.432 164.65 56.176 165.023 55.664C165.396 55.152 165.583 54.4907 165.583 53.68C165.583 52.8427 165.394 52.176 165.015 51.68C164.636 51.1787 164.068 50.928 163.311 50.928C162.794 50.928 162.367 51.0453 162.031 51.28C161.7 51.5093 161.455 51.832 161.295 52.248C161.135 52.6587 161.055 53.136 161.055 53.68C161.055 54.5173 161.244 55.1867 161.623 55.688C162.007 56.184 162.57 56.432 163.311 56.432ZM175.362 58V53.84C175.362 53.568 175.343 53.2667 175.306 52.936C175.268 52.6053 175.18 52.288 175.042 51.984C174.908 51.6747 174.706 51.4213 174.434 51.224C174.167 51.0267 173.804 50.928 173.346 50.928C173.1 50.928 172.858 50.968 172.618 51.048C172.378 51.128 172.159 51.2667 171.962 51.464C171.77 51.656 171.615 51.9227 171.498 52.264C171.38 52.6 171.322 53.032 171.322 53.56L170.178 53.072C170.178 52.336 170.319 51.6693 170.602 51.072C170.89 50.4747 171.311 50 171.866 49.648C172.42 49.2907 173.103 49.112 173.914 49.112C174.554 49.112 175.082 49.2187 175.498 49.432C175.914 49.6453 176.244 49.9173 176.49 50.248C176.735 50.5787 176.916 50.9307 177.034 51.304C177.151 51.6773 177.226 52.032 177.258 52.368C177.295 52.6987 177.314 52.968 177.314 53.176V58H175.362ZM169.37 58V49.36H171.09V52.04H171.322V58H169.37Z" fill="white"/>
<g clip-path="url(#clip1_1966_66201)">
<rect x="39.5" y="82" width="199" height="40" rx="12" fill="white" fill-opacity="0.1"/>
<rect x="39.5" y="82" width="132" height="40" rx="12" fill="url(#paint2_linear_1966_66201)"/>
</g>
<path d="M254.74 93L257.716 84.36H258.886L261.862 93H260.944L258.118 84.852H258.466L255.658 93H254.74ZM256.066 90.906V90.078H260.53V90.906H256.066ZM265.633 93.18C264.981 93.18 264.429 93.034 263.977 92.742C263.525 92.45 263.181 92.048 262.945 91.536C262.713 91.02 262.593 90.428 262.585 89.76C262.593 89.08 262.717 88.484 262.957 87.972C263.197 87.456 263.543 87.056 263.995 86.772C264.447 86.484 264.995 86.34 265.639 86.34C266.295 86.34 266.865 86.5 267.349 86.82C267.837 87.14 268.171 87.578 268.351 88.134L267.487 88.41C267.335 88.022 267.093 87.722 266.761 87.51C266.433 87.294 266.057 87.186 265.633 87.186C265.157 87.186 264.763 87.296 264.451 87.516C264.139 87.732 263.907 88.034 263.755 88.422C263.603 88.81 263.525 89.256 263.521 89.76C263.529 90.536 263.709 91.16 264.061 91.632C264.413 92.1 264.937 92.334 265.633 92.334C266.073 92.334 266.447 92.234 266.755 92.034C267.067 91.83 267.303 91.534 267.463 91.146L268.351 91.41C268.111 91.986 267.759 92.426 267.295 92.73C266.831 93.03 266.277 93.18 265.633 93.18ZM273.118 93C272.754 93.076 272.394 93.106 272.038 93.09C271.686 93.074 271.37 92.998 271.09 92.862C270.814 92.726 270.604 92.514 270.46 92.226C270.344 91.986 270.28 91.744 270.268 91.5C270.26 91.252 270.256 90.97 270.256 90.654V84.72H271.132V90.618C271.132 90.89 271.134 91.118 271.138 91.302C271.146 91.482 271.188 91.642 271.264 91.782C271.408 92.05 271.636 92.21 271.948 92.262C272.264 92.314 272.654 92.302 273.118 92.226V93ZM268.87 87.276V86.52H273.118V87.276H268.87ZM274.515 85.29V84.3H275.397V85.29H274.515ZM274.515 93V86.52H275.397V93H274.515ZM278.947 93L276.595 86.52H277.489L279.403 91.848L281.305 86.52H282.211L279.859 93H278.947ZM283.409 85.29V84.3H284.291V85.29H283.409ZM283.409 93V86.52H284.291V93H283.409ZM289.618 93C289.254 93.076 288.894 93.106 288.538 93.09C288.186 93.074 287.87 92.998 287.59 92.862C287.314 92.726 287.104 92.514 286.96 92.226C286.844 91.986 286.78 91.744 286.768 91.5C286.76 91.252 286.756 90.97 286.756 90.654V84.72H287.632V90.618C287.632 90.89 287.634 91.118 287.638 91.302C287.646 91.482 287.688 91.642 287.764 91.782C287.908 92.05 288.136 92.21 288.448 92.262C288.764 92.314 289.154 92.302 289.618 92.226V93ZM285.37 87.276V86.52H289.618V87.276H285.37ZM291.015 85.29V84.3H291.897V85.29H291.015ZM291.015 93V86.52H291.897V93H291.015ZM296.437 93.18C295.805 93.18 295.257 93.04 294.793 92.76C294.333 92.48 293.975 92.086 293.719 91.578C293.463 91.07 293.335 90.474 293.335 89.79C293.335 89.082 293.461 88.47 293.713 87.954C293.965 87.438 294.319 87.04 294.775 86.76C295.235 86.48 295.777 86.34 296.401 86.34C297.041 86.34 297.587 86.488 298.039 86.784C298.491 87.076 298.833 87.496 299.065 88.044C299.297 88.592 299.403 89.246 299.383 90.006H298.483V89.694C298.467 88.854 298.285 88.22 297.937 87.792C297.593 87.364 297.089 87.15 296.425 87.15C295.729 87.15 295.195 87.376 294.823 87.828C294.455 88.28 294.271 88.924 294.271 89.76C294.271 90.576 294.455 91.21 294.823 91.662C295.195 92.11 295.721 92.334 296.401 92.334C296.865 92.334 297.269 92.228 297.613 92.016C297.961 91.8 298.235 91.49 298.435 91.086L299.257 91.404C299.001 91.968 298.623 92.406 298.123 92.718C297.627 93.026 297.065 93.18 296.437 93.18ZM293.959 90.006V89.268H298.909V90.006H293.959ZM303.133 93.174C302.373 93.174 301.747 93.01 301.255 92.682C300.767 92.354 300.467 91.898 300.355 91.314L301.255 91.164C301.351 91.532 301.569 91.826 301.909 92.046C302.253 92.262 302.677 92.37 303.181 92.37C303.673 92.37 304.061 92.268 304.345 92.064C304.629 91.856 304.771 91.574 304.771 91.218C304.771 91.018 304.725 90.856 304.633 90.732C304.545 90.604 304.363 90.486 304.087 90.378C303.811 90.27 303.399 90.142 302.851 89.994C302.263 89.834 301.803 89.674 301.471 89.514C301.139 89.354 300.903 89.17 300.763 88.962C300.623 88.75 300.553 88.492 300.553 88.188C300.553 87.82 300.657 87.498 300.865 87.222C301.073 86.942 301.361 86.726 301.729 86.574C302.097 86.418 302.525 86.34 303.013 86.34C303.501 86.34 303.937 86.42 304.321 86.58C304.709 86.736 305.021 86.956 305.257 87.24C305.493 87.524 305.633 87.854 305.677 88.23L304.777 88.392C304.717 88.012 304.527 87.712 304.207 87.492C303.891 87.268 303.489 87.152 303.001 87.144C302.541 87.132 302.167 87.22 301.879 87.408C301.591 87.592 301.447 87.838 301.447 88.146C301.447 88.318 301.499 88.466 301.603 88.59C301.707 88.71 301.895 88.824 302.167 88.932C302.443 89.04 302.835 89.158 303.343 89.286C303.939 89.438 304.407 89.598 304.747 89.766C305.087 89.934 305.329 90.132 305.473 90.36C305.617 90.588 305.689 90.87 305.689 91.206C305.689 91.818 305.461 92.3 305.005 92.652C304.553 93 303.929 93.174 303.133 93.174Z" fill="#B3B3B3"/>
<path d="M258.636 119.592V117.696H260.564V119.592H258.636ZM258.636 106.792V104.896H260.564V106.792H258.636ZM259.644 118.24C258.833 118.24 258.108 118.091 257.468 117.792C256.828 117.493 256.303 117.072 255.892 116.528C255.487 115.984 255.228 115.339 255.116 114.592L257.02 114.288C257.169 114.944 257.489 115.467 257.98 115.856C258.476 116.24 259.068 116.432 259.756 116.432C260.417 116.432 260.961 116.277 261.388 115.968C261.815 115.653 262.028 115.256 262.028 114.776C262.028 114.44 261.927 114.168 261.724 113.96C261.521 113.747 261.196 113.571 260.748 113.432L257.972 112.568C256.356 112.067 255.548 111.085 255.548 109.624C255.548 108.941 255.711 108.347 256.036 107.84C256.367 107.328 256.831 106.936 257.428 106.664C258.025 106.387 258.729 106.251 259.54 106.256C260.292 106.261 260.961 106.397 261.548 106.664C262.14 106.931 262.631 107.315 263.02 107.816C263.415 108.317 263.695 108.92 263.86 109.624L261.884 109.984C261.809 109.605 261.663 109.272 261.444 108.984C261.225 108.696 260.951 108.472 260.62 108.312C260.289 108.152 259.921 108.067 259.516 108.056C259.127 108.051 258.777 108.112 258.468 108.24C258.159 108.363 257.913 108.539 257.732 108.768C257.551 108.992 257.46 109.245 257.46 109.528C257.46 109.843 257.585 110.112 257.836 110.336C258.092 110.56 258.495 110.752 259.044 110.912L261.116 111.512C262.113 111.8 262.831 112.192 263.268 112.688C263.711 113.179 263.932 113.832 263.932 114.648C263.932 115.363 263.753 115.989 263.396 116.528C263.039 117.067 262.537 117.488 261.892 117.792C261.247 118.091 260.497 118.24 259.644 118.24ZM267.667 118V108.584L265.507 109.904V107.776L267.667 106.48H269.635V118H267.667ZM276.099 118.24C275.512 118.24 274.965 118.12 274.459 117.88C273.952 117.635 273.515 117.299 273.147 116.872C272.784 116.445 272.523 115.949 272.363 115.384L274.219 114.888C274.293 115.197 274.429 115.464 274.627 115.688C274.829 115.912 275.064 116.085 275.331 116.208C275.603 116.331 275.883 116.392 276.171 116.392C276.544 116.392 276.885 116.301 277.195 116.12C277.504 115.939 277.749 115.696 277.931 115.392C278.112 115.083 278.203 114.741 278.203 114.368C278.203 113.995 278.109 113.656 277.923 113.352C277.741 113.043 277.496 112.8 277.187 112.624C276.877 112.443 276.539 112.352 276.171 112.352C275.728 112.352 275.36 112.432 275.067 112.592C274.779 112.752 274.557 112.923 274.403 113.104L272.755 112.576L273.107 106.48H279.363V108.288H274.139L274.859 107.608L274.603 111.848L274.251 111.416C274.549 111.144 274.896 110.941 275.291 110.808C275.685 110.675 276.067 110.608 276.435 110.608C277.155 110.608 277.792 110.773 278.347 111.104C278.907 111.429 279.344 111.875 279.659 112.44C279.979 113.005 280.139 113.648 280.139 114.368C280.139 115.088 279.952 115.741 279.579 116.328C279.205 116.909 278.712 117.373 278.099 117.72C277.491 118.067 276.824 118.24 276.099 118.24ZM286.202 118.24C285.386 118.24 284.666 118.067 284.042 117.72C283.418 117.368 282.93 116.88 282.578 116.256C282.231 115.632 282.058 114.912 282.058 114.096V110.384C282.058 109.568 282.231 108.848 282.578 108.224C282.93 107.6 283.418 107.115 284.042 106.768C284.666 106.416 285.386 106.24 286.202 106.24C287.018 106.24 287.735 106.416 288.354 106.768C288.978 107.115 289.466 107.6 289.818 108.224C290.17 108.848 290.345 109.568 290.345 110.384V114.096C290.345 114.912 290.17 115.632 289.818 116.256C289.466 116.88 288.978 117.368 288.354 117.72C287.735 118.067 287.018 118.24 286.202 118.24ZM286.202 116.408C286.607 116.408 286.975 116.312 287.306 116.12C287.636 115.923 287.898 115.661 288.09 115.336C288.282 115.005 288.378 114.637 288.378 114.232V110.24C288.378 109.829 288.282 109.461 288.09 109.136C287.898 108.805 287.636 108.544 287.306 108.352C286.975 108.155 286.607 108.056 286.202 108.056C285.796 108.056 285.428 108.155 285.098 108.352C284.767 108.544 284.506 108.805 284.314 109.136C284.122 109.461 284.026 109.829 284.026 110.24V114.232C284.026 114.637 284.122 115.005 284.314 115.336C284.506 115.661 284.767 115.923 285.098 116.12C285.428 116.312 285.796 116.408 286.202 116.408ZM295.632 113.712V112.2H300.432V113.712H295.632ZM308.73 119.592V117.696H310.658V119.592H308.73ZM308.73 106.792V104.896H310.658V106.792H308.73ZM309.738 118.24C308.927 118.24 308.202 118.091 307.562 117.792C306.922 117.493 306.396 117.072 305.986 116.528C305.58 115.984 305.322 115.339 305.21 114.592L307.114 114.288C307.263 114.944 307.583 115.467 308.074 115.856C308.57 116.24 309.162 116.432 309.85 116.432C310.511 116.432 311.055 116.277 311.482 115.968C311.908 115.653 312.122 115.256 312.122 114.776C312.122 114.44 312.02 114.168 311.818 113.96C311.615 113.747 311.29 113.571 310.842 113.432L308.066 112.568C306.45 112.067 305.642 111.085 305.642 109.624C305.642 108.941 305.804 108.347 306.13 107.84C306.46 107.328 306.924 106.936 307.522 106.664C308.119 106.387 308.823 106.251 309.634 106.256C310.386 106.261 311.055 106.397 311.642 106.664C312.234 106.931 312.724 107.315 313.114 107.816C313.508 108.317 313.788 108.92 313.954 109.624L311.978 109.984C311.903 109.605 311.756 109.272 311.538 108.984C311.319 108.696 311.044 108.472 310.714 108.312C310.383 108.152 310.015 108.067 309.61 108.056C309.22 108.051 308.871 108.112 308.562 108.24C308.252 108.363 308.007 108.539 307.826 108.768C307.644 108.992 307.554 109.245 307.554 109.528C307.554 109.843 307.679 110.112 307.93 110.336C308.186 110.56 308.588 110.752 309.138 110.912L311.21 111.512C312.207 111.8 312.924 112.192 313.362 112.688C313.804 113.179 314.026 113.832 314.026 114.648C314.026 115.363 313.847 115.989 313.49 116.528C313.132 117.067 312.631 117.488 311.986 117.792C311.34 118.091 310.591 118.24 309.738 118.24ZM320.545 118V116.096H315.441V114.296L319.129 106.48H321.329L317.641 114.296H320.545V111.296H322.497V114.296H323.577V116.096H322.497V118H320.545ZM328.911 118.24C328.324 118.24 327.778 118.12 327.271 117.88C326.764 117.635 326.327 117.299 325.959 116.872C325.596 116.445 325.335 115.949 325.175 115.384L327.031 114.888C327.106 115.197 327.242 115.464 327.439 115.688C327.642 115.912 327.876 116.085 328.143 116.208C328.415 116.331 328.695 116.392 328.983 116.392C329.356 116.392 329.698 116.301 330.007 116.12C330.316 115.939 330.562 115.696 330.743 115.392C330.924 115.083 331.015 114.741 331.015 114.368C331.015 113.995 330.922 113.656 330.735 113.352C330.554 113.043 330.308 112.8 329.999 112.624C329.69 112.443 329.351 112.352 328.983 112.352C328.54 112.352 328.172 112.432 327.879 112.592C327.591 112.752 327.37 112.923 327.215 113.104L325.567 112.576L325.919 106.48H332.175V108.288H326.951L327.671 107.608L327.415 111.848L327.063 111.416C327.362 111.144 327.708 110.941 328.103 110.808C328.498 110.675 328.879 110.608 329.247 110.608C329.967 110.608 330.604 110.773 331.159 111.104C331.719 111.429 332.156 111.875 332.471 112.44C332.791 113.005 332.951 113.648 332.951 114.368C332.951 115.088 332.764 115.741 332.391 116.328C332.018 116.909 331.524 117.373 330.911 117.72C330.303 118.067 329.636 118.24 328.911 118.24ZM339.014 118.24C338.198 118.24 337.478 118.067 336.854 117.72C336.23 117.368 335.742 116.88 335.39 116.256C335.043 115.632 334.87 114.912 334.87 114.096V110.384C334.87 109.568 335.043 108.848 335.39 108.224C335.742 107.6 336.23 107.115 336.854 106.768C337.478 106.416 338.198 106.24 339.014 106.24C339.83 106.24 340.547 106.416 341.166 106.768C341.79 107.115 342.278 107.6 342.63 108.224C342.982 108.848 343.158 109.568 343.158 110.384V114.096C343.158 114.912 342.982 115.632 342.63 116.256C342.278 116.88 341.79 117.368 341.166 117.72C340.547 118.067 339.83 118.24 339.014 118.24ZM339.014 116.408C339.419 116.408 339.787 116.312 340.118 116.12C340.449 115.923 340.71 115.661 340.902 115.336C341.094 115.005 341.19 114.637 341.19 114.232V110.24C341.19 109.829 341.094 109.461 340.902 109.136C340.71 108.805 340.449 108.544 340.118 108.352C339.787 108.155 339.419 108.056 339.014 108.056C338.609 108.056 338.241 108.155 337.91 108.352C337.579 108.544 337.318 108.805 337.126 109.136C336.934 109.461 336.838 109.829 336.838 110.24V114.232C336.838 114.637 336.934 115.005 337.126 115.336C337.318 115.661 337.579 115.923 337.91 116.12C338.241 116.312 338.609 116.408 339.014 116.408Z" fill="white"/>
<g clip-path="url(#clip2_1966_66201)">
<rect x="39.5" y="134" width="199" height="40" rx="12" fill="white" fill-opacity="0.1"/>
<rect x="39.5" y="134" width="80" height="40" rx="12" fill="url(#paint3_linear_1966_66201)"/>
</g>
<path d="M255.46 145V136.36H256.342V144.154H260.446V145H255.46ZM264.175 145.18C263.531 145.18 262.981 145.034 262.525 144.742C262.069 144.45 261.719 144.046 261.475 143.53C261.231 143.014 261.109 142.422 261.109 141.754C261.109 141.074 261.233 140.478 261.481 139.966C261.729 139.454 262.081 139.056 262.537 138.772C262.997 138.484 263.543 138.34 264.175 138.34C264.823 138.34 265.375 138.486 265.831 138.778C266.291 139.066 266.641 139.468 266.881 139.984C267.125 140.496 267.247 141.086 267.247 141.754C267.247 142.434 267.125 143.032 266.881 143.548C266.637 144.06 266.285 144.46 265.825 144.748C265.365 145.036 264.815 145.18 264.175 145.18ZM264.175 144.334C264.895 144.334 265.431 144.096 265.783 143.62C266.135 143.14 266.311 142.518 266.311 141.754C266.311 140.97 266.133 140.346 265.777 139.882C265.425 139.418 264.891 139.186 264.175 139.186C263.691 139.186 263.291 139.296 262.975 139.516C262.663 139.732 262.429 140.034 262.273 140.422C262.121 140.806 262.045 141.25 262.045 141.754C262.045 142.534 262.225 143.16 262.585 143.632C262.945 144.1 263.475 144.334 264.175 144.334ZM271.084 145.18C270.48 145.18 269.964 145.03 269.536 144.73C269.108 144.426 268.78 144.016 268.552 143.5C268.324 142.984 268.21 142.402 268.21 141.754C268.21 141.11 268.322 140.53 268.546 140.014C268.774 139.498 269.1 139.09 269.524 138.79C269.948 138.49 270.456 138.34 271.048 138.34C271.656 138.34 272.168 138.488 272.584 138.784C273 139.08 273.314 139.486 273.526 140.002C273.742 140.514 273.85 141.098 273.85 141.754C273.85 142.398 273.744 142.98 273.532 143.5C273.32 144.016 273.008 144.426 272.596 144.73C272.184 145.03 271.68 145.18 271.084 145.18ZM271.174 144.358C271.634 144.358 272.014 144.246 272.314 144.022C272.614 143.798 272.838 143.49 272.986 143.098C273.134 142.702 273.208 142.254 273.208 141.754C273.208 141.246 273.134 140.798 272.986 140.41C272.838 140.018 272.614 139.712 272.314 139.492C272.018 139.272 271.644 139.162 271.192 139.162C270.728 139.162 270.344 139.276 270.04 139.504C269.736 139.732 269.51 140.042 269.362 140.434C269.218 140.826 269.146 141.266 269.146 141.754C269.146 142.246 269.22 142.69 269.368 143.086C269.52 143.478 269.746 143.788 270.046 144.016C270.346 144.244 270.722 144.358 271.174 144.358ZM273.208 145V140.122H273.112V136.36H274V145H273.208ZM278.258 148.06C277.926 148.06 277.598 148.01 277.274 147.91C276.954 147.814 276.658 147.66 276.386 147.448C276.114 147.24 275.886 146.968 275.702 146.632L276.5 146.188C276.68 146.548 276.932 146.806 277.256 146.962C277.584 147.122 277.918 147.202 278.258 147.202C278.726 147.202 279.104 147.114 279.392 146.938C279.684 146.766 279.896 146.51 280.028 146.17C280.16 145.83 280.224 145.406 280.22 144.898V143.17H280.322V138.52H281.108V144.91C281.108 145.094 281.102 145.27 281.09 145.438C281.082 145.61 281.064 145.778 281.036 145.942C280.96 146.426 280.802 146.824 280.562 147.136C280.326 147.448 280.014 147.68 279.626 147.832C279.242 147.984 278.786 148.06 278.258 148.06ZM278.198 145.18C277.594 145.18 277.078 145.03 276.65 144.73C276.222 144.426 275.894 144.016 275.666 143.5C275.438 142.984 275.324 142.402 275.324 141.754C275.324 141.11 275.436 140.53 275.66 140.014C275.888 139.498 276.214 139.09 276.638 138.79C277.062 138.49 277.57 138.34 278.162 138.34C278.77 138.34 279.282 138.488 279.698 138.784C280.114 139.08 280.428 139.486 280.64 140.002C280.856 140.514 280.964 141.098 280.964 141.754C280.964 142.398 280.858 142.98 280.646 143.5C280.434 144.016 280.122 144.426 279.71 144.73C279.298 145.03 278.794 145.18 278.198 145.18ZM278.288 144.358C278.748 144.358 279.128 144.246 279.428 144.022C279.728 143.798 279.952 143.49 280.1 143.098C280.248 142.702 280.322 142.254 280.322 141.754C280.322 141.246 280.248 140.798 280.1 140.41C279.952 140.018 279.728 139.712 279.428 139.492C279.132 139.272 278.758 139.162 278.306 139.162C277.842 139.162 277.458 139.276 277.154 139.504C276.85 139.732 276.624 140.042 276.476 140.434C276.332 140.826 276.26 141.266 276.26 141.754C276.26 142.246 276.334 142.69 276.482 143.086C276.634 143.478 276.86 143.788 277.16 144.016C277.46 144.244 277.836 144.358 278.288 144.358ZM282.905 137.29V136.3H283.787V137.29H282.905ZM282.905 145V138.52H283.787V145H282.905ZM290.266 145V141.694C290.266 141.334 290.232 141.004 290.164 140.704C290.096 140.4 289.986 140.136 289.834 139.912C289.686 139.684 289.492 139.508 289.252 139.384C289.016 139.26 288.728 139.198 288.388 139.198C288.076 139.198 287.8 139.252 287.56 139.36C287.324 139.468 287.124 139.624 286.96 139.828C286.8 140.028 286.678 140.272 286.594 140.56C286.51 140.848 286.468 141.176 286.468 141.544L285.844 141.406C285.844 140.742 285.96 140.184 286.192 139.732C286.424 139.28 286.744 138.938 287.152 138.706C287.56 138.474 288.028 138.358 288.556 138.358C288.944 138.358 289.282 138.418 289.57 138.538C289.862 138.658 290.108 138.82 290.308 139.024C290.512 139.228 290.676 139.462 290.8 139.726C290.924 139.986 291.014 140.264 291.07 140.56C291.126 140.852 291.154 141.144 291.154 141.436V145H290.266ZM285.58 145V138.52H286.378V140.116H286.468V145H285.58ZM295.285 148.06C294.953 148.06 294.625 148.01 294.301 147.91C293.981 147.814 293.685 147.66 293.413 147.448C293.141 147.24 292.913 146.968 292.729 146.632L293.527 146.188C293.707 146.548 293.959 146.806 294.283 146.962C294.611 147.122 294.945 147.202 295.285 147.202C295.753 147.202 296.131 147.114 296.419 146.938C296.711 146.766 296.923 146.51 297.055 146.17C297.187 145.83 297.251 145.406 297.247 144.898V143.17H297.349V138.52H298.135V144.91C298.135 145.094 298.129 145.27 298.117 145.438C298.109 145.61 298.091 145.778 298.063 145.942C297.987 146.426 297.829 146.824 297.589 147.136C297.353 147.448 297.041 147.68 296.653 147.832C296.269 147.984 295.813 148.06 295.285 148.06ZM295.225 145.18C294.621 145.18 294.105 145.03 293.677 144.73C293.249 144.426 292.921 144.016 292.693 143.5C292.465 142.984 292.351 142.402 292.351 141.754C292.351 141.11 292.463 140.53 292.687 140.014C292.915 139.498 293.241 139.09 293.665 138.79C294.089 138.49 294.597 138.34 295.189 138.34C295.797 138.34 296.309 138.488 296.725 138.784C297.141 139.08 297.455 139.486 297.667 140.002C297.883 140.514 297.991 141.098 297.991 141.754C297.991 142.398 297.885 142.98 297.673 143.5C297.461 144.016 297.149 144.426 296.737 144.73C296.325 145.03 295.821 145.18 295.225 145.18ZM295.315 144.358C295.775 144.358 296.155 144.246 296.455 144.022C296.755 143.798 296.979 143.49 297.127 143.098C297.275 142.702 297.349 142.254 297.349 141.754C297.349 141.246 297.275 140.798 297.127 140.41C296.979 140.018 296.755 139.712 296.455 139.492C296.159 139.272 295.785 139.162 295.333 139.162C294.869 139.162 294.485 139.276 294.181 139.504C293.877 139.732 293.651 140.042 293.503 140.434C293.359 140.826 293.287 141.266 293.287 141.754C293.287 142.246 293.361 142.69 293.509 143.086C293.661 143.478 293.887 143.788 294.187 144.016C294.487 144.244 294.863 144.358 295.315 144.358Z" fill="#B3B3B3"/>
<path d="M258.636 171.592V169.696H260.564V171.592H258.636ZM258.636 158.792V156.896H260.564V158.792H258.636ZM259.644 170.24C258.833 170.24 258.108 170.091 257.468 169.792C256.828 169.493 256.303 169.072 255.892 168.528C255.487 167.984 255.228 167.339 255.116 166.592L257.02 166.288C257.169 166.944 257.489 167.467 257.98 167.856C258.476 168.24 259.068 168.432 259.756 168.432C260.417 168.432 260.961 168.277 261.388 167.968C261.815 167.653 262.028 167.256 262.028 166.776C262.028 166.44 261.927 166.168 261.724 165.96C261.521 165.747 261.196 165.571 260.748 165.432L257.972 164.568C256.356 164.067 255.548 163.085 255.548 161.624C255.548 160.941 255.711 160.347 256.036 159.84C256.367 159.328 256.831 158.936 257.428 158.664C258.025 158.387 258.729 158.251 259.54 158.256C260.292 158.261 260.961 158.397 261.548 158.664C262.14 158.931 262.631 159.315 263.02 159.816C263.415 160.317 263.695 160.92 263.86 161.624L261.884 161.984C261.809 161.605 261.663 161.272 261.444 160.984C261.225 160.696 260.951 160.472 260.62 160.312C260.289 160.152 259.921 160.067 259.516 160.056C259.127 160.051 258.777 160.112 258.468 160.24C258.159 160.363 257.913 160.539 257.732 160.768C257.551 160.992 257.46 161.245 257.46 161.528C257.46 161.843 257.585 162.112 257.836 162.336C258.092 162.56 258.495 162.752 259.044 162.912L261.116 163.512C262.113 163.8 262.831 164.192 263.268 164.688C263.711 165.179 263.932 165.832 263.932 166.648C263.932 167.363 263.753 167.989 263.396 168.528C263.039 169.067 262.537 169.488 261.892 169.792C261.247 170.091 260.497 170.24 259.644 170.24ZM269.387 158.256C270.139 158.256 270.816 158.435 271.419 158.792C272.022 159.144 272.496 159.635 272.843 160.264C273.195 160.888 273.371 161.608 273.371 162.424V165.936C273.371 166.805 273.195 167.565 272.843 168.216C272.496 168.861 272.008 169.36 271.379 169.712C270.75 170.064 270.014 170.24 269.171 170.24C268.59 170.24 268.04 170.141 267.523 169.944C267.006 169.741 266.542 169.432 266.131 169.016L267.515 167.664C267.723 167.904 267.971 168.093 268.259 168.232C268.552 168.365 268.856 168.432 269.171 168.432C269.619 168.432 270.011 168.328 270.347 168.12C270.683 167.907 270.944 167.632 271.131 167.296C271.318 166.955 271.411 166.589 271.411 166.2V164.288L271.755 164.672C271.43 165.056 271.035 165.357 270.571 165.576C270.107 165.789 269.619 165.896 269.107 165.896C268.387 165.896 267.747 165.731 267.187 165.4C266.632 165.069 266.195 164.621 265.875 164.056C265.56 163.485 265.403 162.84 265.403 162.12C265.403 161.4 265.584 160.749 265.947 160.168C266.31 159.581 266.792 159.117 267.395 158.776C268.003 158.429 268.667 158.256 269.387 158.256ZM269.387 160.096C269.014 160.096 268.672 160.187 268.363 160.368C268.054 160.549 267.808 160.795 267.627 161.104C267.446 161.408 267.355 161.747 267.355 162.12C267.355 162.493 267.443 162.835 267.619 163.144C267.8 163.453 268.043 163.699 268.347 163.88C268.656 164.061 268.998 164.152 269.371 164.152C269.744 164.152 270.086 164.061 270.395 163.88C270.704 163.699 270.95 163.453 271.131 163.144C271.318 162.835 271.411 162.493 271.411 162.12C271.411 161.757 271.32 161.424 271.139 161.12C270.958 160.811 270.712 160.563 270.403 160.376C270.099 160.189 269.76 160.096 269.387 160.096ZM275.284 169.984V168.304L280.212 163.912C280.596 163.571 280.863 163.248 281.012 162.944C281.162 162.64 281.236 162.347 281.236 162.064C281.236 161.68 281.154 161.339 280.988 161.04C280.823 160.736 280.594 160.496 280.3 160.32C280.012 160.144 279.679 160.056 279.3 160.056C278.9 160.056 278.546 160.149 278.236 160.336C277.932 160.517 277.695 160.76 277.524 161.064C277.354 161.368 277.274 161.696 277.284 162.048H275.3C275.3 161.28 275.471 160.611 275.812 160.04C276.159 159.469 276.634 159.027 277.236 158.712C277.844 158.397 278.546 158.24 279.34 158.24C280.076 158.24 280.738 158.405 281.324 158.736C281.911 159.061 282.372 159.515 282.708 160.096C283.044 160.672 283.212 161.336 283.212 162.088C283.212 162.637 283.138 163.099 282.988 163.472C282.839 163.845 282.615 164.189 282.316 164.504C282.023 164.819 281.658 165.168 281.22 165.552L277.724 168.648L277.548 168.168H283.212V169.984H275.284ZM288.179 165.712V164.2H292.979V165.712H288.179ZM301.277 171.592V169.696H303.205V171.592H301.277ZM301.277 158.792V156.896H303.205V158.792H301.277ZM302.285 170.24C301.474 170.24 300.749 170.091 300.109 169.792C299.469 169.493 298.943 169.072 298.533 168.528C298.127 167.984 297.869 167.339 297.757 166.592L299.661 166.288C299.81 166.944 300.13 167.467 300.621 167.856C301.117 168.24 301.709 168.432 302.397 168.432C303.058 168.432 303.602 168.277 304.029 167.968C304.455 167.653 304.669 167.256 304.669 166.776C304.669 166.44 304.567 166.168 304.365 165.96C304.162 165.747 303.837 165.571 303.389 165.432L300.613 164.568C298.997 164.067 298.189 163.085 298.189 161.624C298.189 160.941 298.351 160.347 298.677 159.84C299.007 159.328 299.471 158.936 300.069 158.664C300.666 158.387 301.37 158.251 302.181 158.256C302.933 158.261 303.602 158.397 304.189 158.664C304.781 158.931 305.271 159.315 305.661 159.816C306.055 160.317 306.335 160.92 306.501 161.624L304.525 161.984C304.45 161.605 304.303 161.272 304.085 160.984C303.866 160.696 303.591 160.472 303.261 160.312C302.93 160.152 302.562 160.067 302.157 160.056C301.767 160.051 301.418 160.112 301.109 160.24C300.799 160.363 300.554 160.539 300.373 160.768C300.191 160.992 300.101 161.245 300.101 161.528C300.101 161.843 300.226 162.112 300.477 162.336C300.733 162.56 301.135 162.752 301.685 162.912L303.757 163.512C304.754 163.8 305.471 164.192 305.909 164.688C306.351 165.179 306.573 165.832 306.573 166.648C306.573 167.363 306.394 167.989 306.037 168.528C305.679 169.067 305.178 169.488 304.533 169.792C303.887 170.091 303.138 170.24 302.285 170.24ZM311.604 170.216C311.028 170.216 310.484 170.104 309.972 169.88C309.46 169.656 309.014 169.339 308.636 168.928C308.262 168.517 307.993 168.032 307.828 167.472L309.692 166.968C309.825 167.427 310.068 167.781 310.42 168.032C310.777 168.277 311.169 168.397 311.595 168.392C311.974 168.392 312.313 168.304 312.612 168.128C312.91 167.952 313.145 167.715 313.316 167.416C313.486 167.112 313.572 166.773 313.572 166.4C313.572 165.829 313.388 165.352 313.02 164.968C312.652 164.584 312.177 164.392 311.595 164.392C311.42 164.392 311.246 164.416 311.076 164.464C310.91 164.512 310.75 164.579 310.596 164.664L309.716 163.144L313.588 159.832L313.756 160.296H308.276V158.48H315.34V160.304L312.228 163.296L312.212 162.728C312.91 162.776 313.505 162.971 313.996 163.312C314.492 163.653 314.87 164.093 315.132 164.632C315.398 165.171 315.532 165.76 315.532 166.4C315.532 167.125 315.353 167.776 314.996 168.352C314.644 168.928 314.169 169.384 313.572 169.72C312.98 170.051 312.324 170.216 311.604 170.216ZM318.188 170L322.156 160.304H317.124V158.48H324.22V160.304L320.268 170H318.188ZM330.12 170.24C329.368 170.24 328.69 170.064 328.088 169.712C327.49 169.355 327.016 168.861 326.664 168.232C326.312 167.603 326.136 166.88 326.136 166.064V162.56C326.136 161.685 326.309 160.925 326.656 160.28C327.008 159.635 327.498 159.136 328.128 158.784C328.762 158.432 329.498 158.256 330.336 158.256C330.917 158.256 331.469 158.355 331.992 158.552C332.514 158.744 332.978 159.053 333.384 159.48L331.992 160.832C331.789 160.592 331.541 160.403 331.248 160.264C330.96 160.125 330.656 160.056 330.336 160.056C329.888 160.056 329.496 160.163 329.16 160.376C328.824 160.584 328.562 160.859 328.376 161.2C328.194 161.541 328.104 161.907 328.104 162.296V164.208L327.752 163.824C328.082 163.44 328.48 163.141 328.944 162.928C329.408 162.709 329.893 162.6 330.4 162.6C331.125 162.6 331.765 162.765 332.32 163.096C332.874 163.421 333.312 163.869 333.632 164.44C333.952 165.005 334.112 165.651 334.112 166.376C334.112 167.096 333.928 167.749 333.56 168.336C333.197 168.917 332.714 169.381 332.112 169.728C331.509 170.069 330.845 170.24 330.12 170.24ZM330.12 168.392C330.493 168.392 330.834 168.304 331.144 168.128C331.453 167.947 331.698 167.704 331.88 167.4C332.066 167.091 332.16 166.749 332.16 166.376C332.16 166.003 332.069 165.661 331.888 165.352C331.706 165.043 331.461 164.797 331.152 164.616C330.848 164.429 330.509 164.336 330.136 164.336C329.762 164.336 329.421 164.429 329.112 164.616C328.802 164.797 328.557 165.043 328.376 165.352C328.194 165.661 328.104 166.003 328.104 166.376C328.104 166.739 328.192 167.075 328.368 167.384C328.549 167.688 328.792 167.933 329.096 168.12C329.405 168.301 329.746 168.392 330.12 168.392Z" fill="white"/>
<g clip-path="url(#clip3_1966_66201)">
<rect x="39.5" y="186" width="199" height="40" rx="12" fill="white" fill-opacity="0.1"/>
<rect x="39.5" y="186" width="20" height="40" rx="10" fill="url(#paint4_linear_1966_66201)"/>
</g>
<path d="M257.638 197V189.206H254.62V188.36H261.538V189.206H258.52V197H257.638ZM261.903 197V190.52H262.695V192.08L262.539 191.876C262.611 191.684 262.705 191.508 262.821 191.348C262.937 191.184 263.063 191.05 263.199 190.946C263.367 190.798 263.563 190.686 263.787 190.61C264.011 190.53 264.237 190.484 264.465 190.472C264.693 190.456 264.901 190.472 265.089 190.52V191.348C264.853 191.288 264.595 191.274 264.315 191.306C264.035 191.338 263.777 191.45 263.541 191.642C263.325 191.81 263.163 192.012 263.055 192.248C262.947 192.48 262.875 192.728 262.839 192.992C262.803 193.252 262.785 193.51 262.785 193.766V197H261.903ZM267.835 197.18C267.347 197.18 266.937 197.092 266.605 196.916C266.277 196.74 266.031 196.506 265.867 196.214C265.703 195.922 265.621 195.604 265.621 195.26C265.621 194.908 265.691 194.608 265.831 194.36C265.975 194.108 266.169 193.902 266.413 193.742C266.661 193.582 266.947 193.46 267.271 193.376C267.599 193.296 267.961 193.226 268.357 193.166C268.757 193.102 269.147 193.048 269.527 193.004C269.911 192.956 270.247 192.91 270.535 192.866L270.223 193.058C270.235 192.418 270.111 191.944 269.851 191.636C269.591 191.328 269.139 191.174 268.495 191.174C268.051 191.174 267.675 191.274 267.367 191.474C267.063 191.674 266.849 191.99 266.725 192.422L265.867 192.17C266.015 191.59 266.313 191.14 266.761 190.82C267.209 190.5 267.791 190.34 268.507 190.34C269.099 190.34 269.601 190.452 270.013 190.676C270.429 190.896 270.723 191.216 270.895 191.636C270.975 191.824 271.027 192.034 271.051 192.266C271.075 192.498 271.087 192.734 271.087 192.974V197H270.301V195.374L270.529 195.47C270.309 196.026 269.967 196.45 269.503 196.742C269.039 197.034 268.483 197.18 267.835 197.18ZM267.937 196.418C268.349 196.418 268.709 196.344 269.017 196.196C269.325 196.048 269.573 195.846 269.761 195.59C269.949 195.33 270.071 195.038 270.127 194.714C270.175 194.506 270.201 194.278 270.205 194.03C270.209 193.778 270.211 193.59 270.211 193.466L270.547 193.64C270.247 193.68 269.921 193.72 269.569 193.76C269.221 193.8 268.877 193.846 268.537 193.898C268.201 193.95 267.897 194.012 267.625 194.084C267.441 194.136 267.263 194.21 267.091 194.306C266.919 194.398 266.777 194.522 266.665 194.678C266.557 194.834 266.503 195.028 266.503 195.26C266.503 195.448 266.549 195.63 266.641 195.806C266.737 195.982 266.889 196.128 267.097 196.244C267.309 196.36 267.589 196.418 267.937 196.418ZM277.329 197V193.694C277.329 193.334 277.295 193.004 277.227 192.704C277.159 192.4 277.049 192.136 276.897 191.912C276.749 191.684 276.555 191.508 276.315 191.384C276.079 191.26 275.791 191.198 275.451 191.198C275.139 191.198 274.863 191.252 274.623 191.36C274.387 191.468 274.187 191.624 274.023 191.828C273.863 192.028 273.741 192.272 273.657 192.56C273.573 192.848 273.531 193.176 273.531 193.544L272.907 193.406C272.907 192.742 273.023 192.184 273.255 191.732C273.487 191.28 273.807 190.938 274.215 190.706C274.623 190.474 275.091 190.358 275.619 190.358C276.007 190.358 276.345 190.418 276.633 190.538C276.925 190.658 277.171 190.82 277.371 191.024C277.575 191.228 277.739 191.462 277.863 191.726C277.987 191.986 278.077 192.264 278.133 192.56C278.189 192.852 278.217 193.144 278.217 193.436V197H277.329ZM272.643 197V190.52H273.441V192.116H273.531V197H272.643ZM282.192 197.174C281.432 197.174 280.806 197.01 280.314 196.682C279.826 196.354 279.526 195.898 279.414 195.314L280.314 195.164C280.41 195.532 280.628 195.826 280.968 196.046C281.312 196.262 281.736 196.37 282.24 196.37C282.732 196.37 283.12 196.268 283.404 196.064C283.688 195.856 283.83 195.574 283.83 195.218C283.83 195.018 283.784 194.856 283.692 194.732C283.604 194.604 283.422 194.486 283.146 194.378C282.87 194.27 282.458 194.142 281.91 193.994C281.322 193.834 280.862 193.674 280.53 193.514C280.198 193.354 279.962 193.17 279.822 192.962C279.682 192.75 279.612 192.492 279.612 192.188C279.612 191.82 279.716 191.498 279.924 191.222C280.132 190.942 280.42 190.726 280.788 190.574C281.156 190.418 281.584 190.34 282.072 190.34C282.56 190.34 282.996 190.42 283.38 190.58C283.768 190.736 284.08 190.956 284.316 191.24C284.552 191.524 284.692 191.854 284.736 192.23L283.836 192.392C283.776 192.012 283.586 191.712 283.266 191.492C282.95 191.268 282.548 191.152 282.06 191.144C281.6 191.132 281.226 191.22 280.938 191.408C280.65 191.592 280.506 191.838 280.506 192.146C280.506 192.318 280.558 192.466 280.662 192.59C280.766 192.71 280.954 192.824 281.226 192.932C281.502 193.04 281.894 193.158 282.402 193.286C282.998 193.438 283.466 193.598 283.806 193.766C284.146 193.934 284.388 194.132 284.532 194.36C284.676 194.588 284.748 194.87 284.748 195.206C284.748 195.818 284.52 196.3 284.064 196.652C283.612 197 282.988 197.174 282.192 197.174ZM288.988 197.18C288.392 197.18 287.888 197.03 287.476 196.73C287.064 196.426 286.752 196.016 286.54 195.5C286.328 194.98 286.222 194.398 286.222 193.754C286.222 193.098 286.328 192.514 286.54 192.002C286.756 191.486 287.072 191.08 287.488 190.784C287.904 190.488 288.416 190.34 289.024 190.34C289.616 190.34 290.124 190.49 290.548 190.79C290.972 191.09 291.296 191.498 291.52 192.014C291.748 192.53 291.862 193.11 291.862 193.754C291.862 194.402 291.748 194.984 291.52 195.5C291.292 196.016 290.964 196.426 290.536 196.73C290.108 197.03 289.592 197.18 288.988 197.18ZM286.072 199.88V190.52H286.864V195.398H286.96V199.88H286.072ZM288.898 196.358C289.35 196.358 289.726 196.244 290.026 196.016C290.326 195.788 290.55 195.478 290.698 195.086C290.85 194.69 290.926 194.246 290.926 193.754C290.926 193.266 290.852 192.826 290.704 192.434C290.556 192.042 290.33 191.732 290.026 191.504C289.726 191.276 289.344 191.162 288.88 191.162C288.428 191.162 288.052 191.272 287.752 191.492C287.456 191.712 287.234 192.018 287.086 192.41C286.938 192.798 286.864 193.246 286.864 193.754C286.864 194.254 286.938 194.702 287.086 195.098C287.234 195.49 287.458 195.798 287.758 196.022C288.058 196.246 288.438 196.358 288.898 196.358ZM295.886 197.18C295.242 197.18 294.692 197.034 294.236 196.742C293.78 196.45 293.43 196.046 293.186 195.53C292.942 195.014 292.82 194.422 292.82 193.754C292.82 193.074 292.944 192.478 293.192 191.966C293.44 191.454 293.792 191.056 294.248 190.772C294.708 190.484 295.254 190.34 295.886 190.34C296.534 190.34 297.086 190.486 297.542 190.778C298.002 191.066 298.352 191.468 298.592 191.984C298.836 192.496 298.958 193.086 298.958 193.754C298.958 194.434 298.836 195.032 298.592 195.548C298.348 196.06 297.996 196.46 297.536 196.748C297.076 197.036 296.526 197.18 295.886 197.18ZM295.886 196.334C296.606 196.334 297.142 196.096 297.494 195.62C297.846 195.14 298.022 194.518 298.022 193.754C298.022 192.97 297.844 192.346 297.488 191.882C297.136 191.418 296.602 191.186 295.886 191.186C295.402 191.186 295.002 191.296 294.686 191.516C294.374 191.732 294.14 192.034 293.984 192.422C293.832 192.806 293.756 193.25 293.756 193.754C293.756 194.534 293.936 195.16 294.296 195.632C294.656 196.1 295.186 196.334 295.886 196.334ZM300.281 197V190.52H301.073V192.08L300.917 191.876C300.989 191.684 301.083 191.508 301.199 191.348C301.315 191.184 301.441 191.05 301.577 190.946C301.745 190.798 301.941 190.686 302.165 190.61C302.389 190.53 302.615 190.484 302.843 190.472C303.071 190.456 303.279 190.472 303.467 190.52V191.348C303.231 191.288 302.973 191.274 302.693 191.306C302.413 191.338 302.155 191.45 301.919 191.642C301.703 191.81 301.541 192.012 301.433 192.248C301.325 192.48 301.253 192.728 301.217 192.992C301.181 193.252 301.163 193.51 301.163 193.766V197H300.281ZM308.134 197C307.77 197.076 307.41 197.106 307.054 197.09C306.702 197.074 306.386 196.998 306.106 196.862C305.83 196.726 305.62 196.514 305.476 196.226C305.36 195.986 305.296 195.744 305.284 195.5C305.276 195.252 305.272 194.97 305.272 194.654V188.72H306.148V194.618C306.148 194.89 306.15 195.118 306.154 195.302C306.162 195.482 306.204 195.642 306.28 195.782C306.424 196.05 306.652 196.21 306.964 196.262C307.28 196.314 307.67 196.302 308.134 196.226V197ZM303.886 191.276V190.52H308.134V191.276H303.886Z" fill="#B3B3B3"/>
<path d="M258.636 223.592V221.696H260.564V223.592H258.636ZM258.636 210.792V208.896H260.564V210.792H258.636ZM259.644 222.24C258.833 222.24 258.108 222.091 257.468 221.792C256.828 221.493 256.303 221.072 255.892 220.528C255.487 219.984 255.228 219.339 255.116 218.592L257.02 218.288C257.169 218.944 257.489 219.467 257.98 219.856C258.476 220.24 259.068 220.432 259.756 220.432C260.417 220.432 260.961 220.277 261.388 219.968C261.815 219.653 262.028 219.256 262.028 218.776C262.028 218.44 261.927 218.168 261.724 217.96C261.521 217.747 261.196 217.571 260.748 217.432L257.972 216.568C256.356 216.067 255.548 215.085 255.548 213.624C255.548 212.941 255.711 212.347 256.036 211.84C256.367 211.328 256.831 210.936 257.428 210.664C258.025 210.387 258.729 210.251 259.54 210.256C260.292 210.261 260.961 210.397 261.548 210.664C262.14 210.931 262.631 211.315 263.02 211.816C263.415 212.317 263.695 212.92 263.86 213.624L261.884 213.984C261.809 213.605 261.663 213.272 261.444 212.984C261.225 212.696 260.951 212.472 260.62 212.312C260.289 212.152 259.921 212.067 259.516 212.056C259.127 212.051 258.777 212.112 258.468 212.24C258.159 212.363 257.913 212.539 257.732 212.768C257.551 212.992 257.46 213.245 257.46 213.528C257.46 213.843 257.585 214.112 257.836 214.336C258.092 214.56 258.495 214.752 259.044 214.912L261.116 215.512C262.113 215.8 262.831 216.192 263.268 216.688C263.711 217.179 263.932 217.832 263.932 218.648C263.932 219.363 263.753 219.989 263.396 220.528C263.039 221.067 262.537 221.488 261.892 221.792C261.247 222.091 260.497 222.24 259.644 222.24ZM269.083 222.24C268.496 222.24 267.95 222.12 267.443 221.88C266.936 221.635 266.499 221.299 266.131 220.872C265.768 220.445 265.507 219.949 265.347 219.384L267.203 218.888C267.278 219.197 267.414 219.464 267.611 219.688C267.814 219.912 268.048 220.085 268.315 220.208C268.587 220.331 268.867 220.392 269.155 220.392C269.528 220.392 269.87 220.301 270.179 220.12C270.488 219.939 270.734 219.696 270.915 219.392C271.096 219.083 271.187 218.741 271.187 218.368C271.187 217.995 271.094 217.656 270.907 217.352C270.726 217.043 270.48 216.8 270.171 216.624C269.862 216.443 269.523 216.352 269.155 216.352C268.712 216.352 268.344 216.432 268.051 216.592C267.763 216.752 267.542 216.923 267.387 217.104L265.739 216.576L266.091 210.48H272.347V212.288H267.123L267.843 211.608L267.587 215.848L267.235 215.416C267.534 215.144 267.88 214.941 268.275 214.808C268.67 214.675 269.051 214.608 269.419 214.608C270.139 214.608 270.776 214.773 271.331 215.104C271.891 215.429 272.328 215.875 272.643 216.44C272.963 217.005 273.123 217.648 273.123 218.368C273.123 219.088 272.936 219.741 272.563 220.328C272.19 220.909 271.696 221.373 271.083 221.72C270.475 222.067 269.808 222.24 269.083 222.24ZM279.826 222V220.096H274.722V218.296L278.41 210.48H280.61L276.922 218.296H279.826V215.296H281.778V218.296H282.858V220.096H281.778V222H279.826ZM287.819 217.712V216.2H292.619V217.712H287.819ZM300.917 223.592V221.696H302.845V223.592H300.917ZM300.917 210.792V208.896H302.845V210.792H300.917ZM301.925 222.24C301.115 222.24 300.389 222.091 299.749 221.792C299.109 221.493 298.584 221.072 298.173 220.528C297.768 219.984 297.509 219.339 297.397 218.592L299.301 218.288C299.451 218.944 299.771 219.467 300.261 219.856C300.757 220.24 301.349 220.432 302.037 220.432C302.699 220.432 303.243 220.277 303.669 219.968C304.096 219.653 304.309 219.256 304.309 218.776C304.309 218.44 304.208 218.168 304.005 217.96C303.803 217.747 303.477 217.571 303.029 217.432L300.253 216.568C298.637 216.067 297.829 215.085 297.829 213.624C297.829 212.941 297.992 212.347 298.317 211.84C298.648 211.328 299.112 210.936 299.709 210.664C300.307 210.387 301.011 210.251 301.821 210.256C302.573 210.261 303.243 210.397 303.829 210.664C304.421 210.931 304.912 211.315 305.301 211.816C305.696 212.317 305.976 212.92 306.141 213.624L304.165 213.984C304.091 213.605 303.944 213.272 303.725 212.984C303.507 212.696 303.232 212.472 302.901 212.312C302.571 212.152 302.203 212.067 301.797 212.056C301.408 212.051 301.059 212.112 300.749 212.24C300.44 212.363 300.195 212.539 300.013 212.768C299.832 212.992 299.741 213.245 299.741 213.528C299.741 213.843 299.867 214.112 300.117 214.336C300.373 214.56 300.776 214.752 301.325 214.912L303.397 215.512C304.395 215.8 305.112 216.192 305.549 216.688C305.992 217.179 306.213 217.832 306.213 218.648C306.213 219.363 306.035 219.989 305.677 220.528C305.32 221.067 304.819 221.488 304.173 221.792C303.528 222.091 302.779 222.24 301.925 222.24ZM309.948 222V212.584L307.788 213.904V211.776L309.948 210.48H311.916V222H309.948ZM318.948 222.24C318.196 222.24 317.518 222.064 316.916 221.712C316.318 221.355 315.844 220.861 315.492 220.232C315.14 219.603 314.964 218.88 314.964 218.064V214.56C314.964 213.685 315.137 212.925 315.484 212.28C315.836 211.635 316.326 211.136 316.956 210.784C317.59 210.432 318.326 210.256 319.164 210.256C319.745 210.256 320.297 210.355 320.82 210.552C321.342 210.744 321.806 211.053 322.212 211.48L320.82 212.832C320.617 212.592 320.369 212.403 320.076 212.264C319.788 212.125 319.484 212.056 319.164 212.056C318.716 212.056 318.324 212.163 317.988 212.376C317.652 212.584 317.39 212.859 317.204 213.2C317.022 213.541 316.932 213.907 316.932 214.296V216.208L316.58 215.824C316.91 215.44 317.308 215.141 317.772 214.928C318.236 214.709 318.721 214.6 319.228 214.6C319.953 214.6 320.593 214.765 321.148 215.096C321.702 215.421 322.14 215.869 322.46 216.44C322.78 217.005 322.94 217.651 322.94 218.376C322.94 219.096 322.756 219.749 322.388 220.336C322.025 220.917 321.542 221.381 320.94 221.728C320.337 222.069 319.673 222.24 318.948 222.24ZM318.948 220.392C319.321 220.392 319.662 220.304 319.972 220.128C320.281 219.947 320.526 219.704 320.708 219.4C320.894 219.091 320.988 218.749 320.988 218.376C320.988 218.003 320.897 217.661 320.716 217.352C320.534 217.043 320.289 216.797 319.98 216.616C319.676 216.429 319.337 216.336 318.964 216.336C318.59 216.336 318.249 216.429 317.94 216.616C317.63 216.797 317.385 217.043 317.204 217.352C317.022 217.661 316.932 218.003 316.932 218.376C316.932 218.739 317.02 219.075 317.196 219.384C317.377 219.688 317.62 219.933 317.924 220.12C318.233 220.301 318.574 220.392 318.948 220.392ZM324.581 221.984V220.304L329.509 215.912C329.893 215.571 330.16 215.248 330.309 214.944C330.459 214.64 330.533 214.347 330.533 214.064C330.533 213.68 330.451 213.339 330.285 213.04C330.12 212.736 329.891 212.496 329.597 212.32C329.309 212.144 328.976 212.056 328.597 212.056C328.197 212.056 327.843 212.149 327.533 212.336C327.229 212.517 326.992 212.76 326.821 213.064C326.651 213.368 326.571 213.696 326.581 214.048H324.597C324.597 213.28 324.768 212.611 325.109 212.04C325.456 211.469 325.931 211.027 326.533 210.712C327.141 210.397 327.843 210.24 328.637 210.24C329.373 210.24 330.035 210.405 330.621 210.736C331.208 211.061 331.669 211.515 332.005 212.096C332.341 212.672 332.509 213.336 332.509 214.088C332.509 214.637 332.435 215.099 332.285 215.472C332.136 215.845 331.912 216.189 331.613 216.504C331.32 216.819 330.955 217.168 330.517 217.552L327.021 220.648L326.845 220.168H332.509V221.984H324.581Z" fill="white"/>
</g>
</g>
<defs>
<filter id="filter0_bd_1966_66201" x="-0.5" y="0" width="391" height="268" filterUnits="userSpaceOnUse" color-interpolation-filters="sRGB">
<feFlood flood-opacity="0" result="BackgroundImageFix"/>
<feGaussianBlur in="BackgroundImageFix" stdDeviation="12"/>
<feComposite in2="SourceAlpha" operator="in" result="effect1_backgroundBlur_1966_66201"/>
<feColorMatrix in="SourceAlpha" type="matrix" values="0 0 0 0 0 0 0 0 0 0 0 0 0 0 0 0 0 0 127 0" result="hardAlpha"/>
<feOffset dx="4" dy="8"/>
<feGaussianBlur stdDeviation="8"/>
<feComposite in2="hardAlpha" operator="out"/>
<feColorMatrix type="matrix" values="0 0 0 0 0 0 0 0 0 0 0 0 0 0 0 0 0 0 0.25 0"/>
<feBlend mode="normal" in2="effect1_backgroundBlur_1966_66201" result="effect2_dropShadow_1966_66201"/>
<feBlend mode="normal" in="SourceGraphic" in2="effect2_dropShadow_1966_66201" result="shape"/>
</filter>
<radialGradient id="paint0_radial_1966_66201" cx="0" cy="0" r="1" gradientUnits="userSpaceOnUse" gradientTransform="translate(38.1279 38.5283) rotate(30.7262) scale(354.418 576.31)">
<stop stop-color="#CFCFCF" stop-opacity="0.5"/>
<stop offset="1" stop-color="#6B6B6B" stop-opacity="0.3"/>
</radialGradient>
<linearGradient id="paint1_linear_1966_66201" x1="80.7507" y1="24" x2="200.102" y2="241.196" gradientUnits="userSpaceOnUse">
<stop stop-color="#DEDEDE" stop-opacity="0.5"/>
<stop offset="1" stop-color="#666666" stop-opacity="0.5"/>
</linearGradient>
<linearGradient id="paint2_linear_1966_66201" x1="130.486" y1="114.913" x2="121.991" y2="79.6089" gradientUnits="userSpaceOnUse">
<stop stop-color="#012A6A"/>
<stop offset="1" stop-color="#0252D0"/>
</linearGradient>
<linearGradient id="paint3_linear_1966_66201" x1="63.1233" y1="137.859" x2="66.6565" y2="174.447" gradientUnits="userSpaceOnUse">
<stop stop-color="#C10B2F"/>
<stop offset="1" stop-color="#5B0516"/>
</linearGradient>
<linearGradient id="paint4_linear_1966_66201" x1="43.1703" y1="190.667" x2="54.798" y2="210.813" gradientUnits="userSpaceOnUse">
<stop stop-color="#FEDB25"/>
<stop offset="1" stop-color="#988316"/>
</linearGradient>
<clipPath id="clip0_1966_66201">
<rect x="0.333374" width="389.333" height="240" rx="8" fill="white"/>
</clipPath>
<clipPath id="clip1_1966_66201">
<rect x="39.5" y="82" width="199" height="40" rx="12" fill="white"/>
</clipPath>
<clipPath id="clip2_1966_66201">
<rect x="39.5" y="134" width="199" height="40" rx="12" fill="white"/>
</clipPath>
<clipPath id="clip3_1966_66201">
<rect x="39.5" y="186" width="199" height="40" rx="12" fill="white"/>
</clipPath>
</defs>
</svg>
