<svg width="26" height="25" viewBox="0 0 26 25" fill="none" xmlns="http://www.w3.org/2000/svg">
<path d="M12.0436 1.6041C12.3509 0.981511 12.5046 0.670218 12.7132 0.57076C12.8947 0.484226 13.1055 0.484226 13.287 0.57076C13.4956 0.670218 13.6493 0.98151 13.9566 1.6041L16.8722 7.51072C16.9629 7.69452 17.0083 7.78642 17.0745 7.85777C17.1332 7.92095 17.2036 7.97214 17.2818 8.0085C17.3702 8.04957 17.4716 8.06439 17.6744 8.09404L24.1961 9.04728C24.8828 9.14766 25.2262 9.19785 25.3851 9.36559C25.5234 9.51153 25.5884 9.71207 25.5621 9.91138C25.5318 10.1404 25.2832 10.3826 24.786 10.8668L20.0687 15.4616C19.9216 15.6048 19.8481 15.6764 19.8007 15.7616C19.7586 15.8371 19.7317 15.92 19.7213 16.0057C19.7096 16.1025 19.7269 16.2037 19.7616 16.406L20.8747 22.8958C20.9921 23.5803 21.0508 23.9226 20.9405 24.1257C20.8445 24.3024 20.6739 24.4263 20.4762 24.463C20.2489 24.5051 19.9416 24.3435 19.3269 24.0202L13.4966 20.9541C13.3149 20.8586 13.2241 20.8108 13.1284 20.7921C13.0437 20.7754 12.9565 20.7754 12.8718 20.7921C12.7761 20.8108 12.6853 20.8586 12.5036 20.9541L6.67331 24.0202C6.05864 24.3435 5.7513 24.5051 5.52404 24.463C5.32632 24.4263 5.15571 24.3024 5.05973 24.1257C4.94942 23.9226 5.00811 23.5803 5.12551 22.8958L6.2386 16.406C6.2733 16.2037 6.29065 16.1025 6.27891 16.0057C6.26851 15.92 6.24156 15.8371 6.19956 15.7616C6.15211 15.6764 6.07858 15.6048 5.93153 15.4616L1.21416 10.8668C0.716965 10.3826 0.468368 10.1404 0.438116 9.91138C0.411796 9.71207 0.476819 9.51153 0.615082 9.36559C0.773995 9.19785 1.11738 9.14766 1.80414 9.04728L8.32583 8.09404C8.52865 8.06439 8.63006 8.04957 8.71837 8.0085C8.79657 7.97214 8.86696 7.92095 8.92566 7.85777C8.99196 7.78642 9.03732 7.69452 9.12805 7.51072L12.0436 1.6041Z" fill="#FEDB25"/>
</svg>
