<svg width="20" height="20" viewBox="0 0 20 20" fill="none" xmlns="http://www.w3.org/2000/svg">
<path d="M13.3337 5.83333C13.3337 5.05836 13.3337 4.67087 13.2485 4.35295C13.0173 3.49022 12.3434 2.81635 11.4807 2.58519C11.1628 2.5 10.7753 2.5 10.0003 2.5C9.22535 2.5 8.83786 2.5 8.51995 2.58519C7.65721 2.81635 6.98335 3.49022 6.75218 4.35295C6.66699 4.67087 6.66699 5.05836 6.66699 5.83333M10.667 14.5833H14.7503C14.9837 14.5833 15.1004 14.5833 15.1895 14.5379C15.2679 14.498 15.3316 14.4342 15.3716 14.3558C15.417 14.2667 15.417 14.15 15.417 13.9167V11.9167C15.417 11.6833 15.417 11.5666 15.3716 11.4775C15.3316 11.3991 15.2679 11.3354 15.1895 11.2954C15.1004 11.25 14.9837 11.25 14.7503 11.25H10.667C10.4336 11.25 10.317 11.25 10.2278 11.2954C10.1494 11.3354 10.0857 11.3991 10.0457 11.4775C10.0003 11.5666 10.0003 11.6833 10.0003 11.9167V13.9167C10.0003 14.15 10.0003 14.2667 10.0457 14.3558C10.0857 14.4342 10.1494 14.498 10.2278 14.5379C10.317 14.5833 10.4336 14.5833 10.667 14.5833ZM5.66699 17.5H14.3337C15.7338 17.5 16.4339 17.5 16.9686 17.2275C17.439 16.9878 17.8215 16.6054 18.0612 16.135C18.3337 15.6002 18.3337 14.9001 18.3337 13.5V9.83333C18.3337 8.4332 18.3337 7.73314 18.0612 7.19836C17.8215 6.72795 17.439 6.3455 16.9686 6.10582C16.4339 5.83333 15.7338 5.83333 14.3337 5.83333H5.66699C4.26686 5.83333 3.5668 5.83333 3.03202 6.10582C2.56161 6.3455 2.17916 6.72795 1.93948 7.19836C1.66699 7.73314 1.66699 8.4332 1.66699 9.83333V13.5C1.66699 14.9001 1.66699 15.6002 1.93948 16.135C2.17916 16.6054 2.56161 16.9878 3.03202 17.2275C3.5668 17.5 4.26686 17.5 5.66699 17.5Z" stroke="white" stroke-width="1.5" stroke-linecap="round" stroke-linejoin="round"/>
</svg>
